<?xml version="1.0" encoding="UTF-8"?>
<svg id="Layer_5" data-name="Layer 5" xmlns="http://www.w3.org/2000/svg" viewBox="0 0 306.63 399.81">
  <defs>
    <style>
      .cls-1 {
        fill: #fcd70f;
      }

      .cls-2 {
        fill: #f9f296;
      }

      .cls-3 {
        fill: #e1b025;
      }
    </style>
  </defs>
  <g>
    <path class="cls-3" d="M78.25,322.25c.8,9.79,1.71,19.54,2.12,29.35.1,2.36-.27,3.62,1.23,5.1,3.37,3.32,10.86,4.71,15.26,6.51,10.55,4.35,20.97,9.11,31.59,13.29,6.55,2.57,13.49,3.65,20.18,5.53,0-4.59.03-14.88.06-33.44.05-22.11.06-33.16.08-33.21.91-3.29,3.11-10.05.05-16.3-1.42-2.9-3.47-4.66-4.62-5.63-5.72-4.83-11.38-4.6-17.93-6.23-7.62-1.89-7-3.94-22.16-11.94-3.55-1.87-8.92-4.28-19.17-8.83-9.54,16.85-8.2,37.11-6.67,55.8Z"/>
    <path class="cls-1" d="M205.9,363.83c3.59-3.78,8.32-6.03,10.03-11.15,1.65-4.96,1.14-10.86,1.62-15.99.52-5.61,1.26-11.08,1.21-16.75-.11-12.12-.57-24.32-.98-36.44-.25-7.24-1.89-19.84-11.11-21.28-2.97-.46-4.63-2.19-5.22-4.3-23.96,5.94-45.04,11.3-50.53,14.54v-.02c-1,.59.1.33.94,5.28,2.96,17.48.44,30.73-.56,36.83-4.75,29.1-2.96,68.51,3.26,68.94.6.04,1.11-.28,1.27-.38,3.18-1.99,17.55-6.91,47.46-15.84.76-1.21,1.59-2.38,2.6-3.45Z"/>
    <path class="cls-2" d="M207.94,258.83c-8.3-4.26-16-8.51-24.8-11.79-7.73-2.88-16.04-4.88-23.44-8.59-2.71-1.36-5.4-4.59-8.32-5.27-3.87-.9-6.61,2.85-9.62,4.85-6.59,4.36-14.61,4.62-21.75,7.67-2.79,1.19-5.46.71-7.53-.62-4.88,2.49-9.6,5.5-13.98,8.4-4.75,3.15-8.73,7.6-13.3,10.99l125.65-2.34c.82-.37,1.65-.73,2.47-1.1-1.82-.56-3.61-1.29-5.38-2.2Z"/>
    <path class="cls-2" d="M85.2,264.47c-.21.16-.43.31-.65.46,4.23,1.82,7.95,3.49,11.57,5.23,22.01,10.57,33.01,15.86,33.99,16.71,2.76,2.38,8.41,7.68,15.73,7.34,4.8-.23,8.26-2.78,9.37-3.58h.03c8.55-6.11,31.27-17.59,55.6-28.5l-125.65,2.34Z"/>
    <rect x="143.62" y="291.74" width="11.79" height="94.36"/>
    <path d="M223.91,355.39c-.11-.9-.09-1.82.08-2.72l-2.52-5.56-79.38,36.03,1.92,4.24c2.67.75,4.28,2.86,4.85,5.26.06.1.11.2.17.3l75.2-34.13s0-.08,0-.12c-.16-.68-.23-1.39-.22-2.1-.07-.4-.1-.8-.11-1.2Z"/>
    <path d="M222.81,263.52c-2.48-.54-4.11-2.2-4.92-4.23-.37-.31-.72-.63-1.01-1.01l-76.02,35.42,4.98,10.69,77.28-36.01c-.59-1.54-.68-3.26-.31-4.86Z"/>
    <path d="M81.91,258.71c-1,.63-2.23,1.02-3.69,1.07.47,2.36-.05,4.95-1.57,6.79.32.93.48,1.92.45,2.91l74.82,34.27,4.91-10.72-74.93-34.32Z"/>
    <path d="M150.21,392.45c.71-2.32,2.43-4.29,5.17-4.87l1.81-3.86-78.13-36.6-3.84,8.19c0,1.02-.02,2.04-.03,3.06,24.65,11.53,49.3,23.07,73.95,34.6.33-.2.69-.38,1.07-.52Z"/>
    <rect x="75.22" y="260.71" width="11.79" height="97.59"/>
    <path d="M153.85,229.19c-.07-.04-.13-.07-.2-.11-.48-.29-1.21-.87-1.62-1.25-.03-.02-.05-.05-.07-.08-.32-.14-.63-.3-.92-.49-.02-.01-.04-.02-.06-.04-.17-.07-.34-.14-.5-.22-.54-.17-1.05-.39-1.5-.67l-73.73,34.36,4.98,10.69,77.89-36.3-2.38-5.11c-.59-.16-1.36-.5-1.89-.78Z"/>
    <path d="M224.08,260.72c-25.03-11.46-50.07-22.93-75.1-34.39-.18.6-.84,2.49-2.78,3.84-1.55,1.08-3.11,1.24-3.78,1.27l-1.84,4.02,80.23,36.74,3.26-7.12v-4.35Z"/>
    <path d="M221.44,259.53c-3.01-.01-6.01-.02-9.02-.04v98.85c1.21-1.7,3.12-2.87,5.75-2.87.71,0,2.5.03,4.23,1.31.93.69,1.5,1.48,1.83,2.02.03-32.66.06-65.31.08-97.97-.96-.44-1.92-.87-2.88-1.31Z"/>
  </g>
  <g>
    <path class="cls-3" d="M146.49,202.26c.8,9.79,1.71,19.54,2.12,29.35.1,2.36-.27,3.62,1.23,5.1,3.37,3.32,10.86,4.71,15.26,6.51,10.55,4.35,20.97,9.11,31.59,13.29,6.55,2.57,13.49,3.65,20.18,5.53,0-4.59.03-14.88.06-33.44.05-22.11.06-33.16.08-33.21.91-3.29,3.11-10.05.05-16.3-1.42-2.9-3.47-4.66-4.62-5.63-5.72-4.83-11.38-4.6-17.93-6.23-7.62-1.89-7-3.94-22.16-11.94-3.55-1.87-8.92-4.28-19.17-8.83-9.54,16.85-8.2,37.11-6.67,55.8Z"/>
    <path class="cls-1" d="M274.15,243.84c3.59-3.78,8.32-6.03,10.03-11.15,1.65-4.96,1.14-10.86,1.62-15.99.52-5.61,1.26-11.08,1.21-16.75-.11-12.12-.57-24.32-.98-36.44-.25-7.24-1.89-19.84-11.11-21.28-2.97-.46-4.63-2.19-5.22-4.3-23.96,5.94-45.04,11.3-50.53,14.54v-.02c-1,.59.1.33.94,5.28,2.96,17.48.44,30.73-.56,36.83-4.75,29.1-2.96,68.51,3.26,68.94.6.04,1.11-.28,1.27-.38,3.18-1.99,17.55-6.91,47.46-15.84.76-1.21,1.59-2.38,2.6-3.45Z"/>
    <path class="cls-2" d="M276.18,138.85c-8.3-4.26-16-8.51-24.8-11.79-7.73-2.88-16.04-4.88-23.44-8.59-2.71-1.36-5.4-4.59-8.32-5.27-3.87-.9-6.61,2.85-9.62,4.85-6.59,4.36-14.61,4.62-21.75,7.67-2.79,1.19-5.46.71-7.53-.62-4.88,2.49-9.6,5.5-13.98,8.4-4.75,3.15-8.73,7.6-13.3,10.99l125.65-2.34c.82-.37,1.65-.73,2.47-1.1-1.82-.56-3.61-1.29-5.38-2.2Z"/>
    <path class="cls-2" d="M153.44,144.49c-.21.16-.43.31-.65.46,4.23,1.82,7.95,3.49,11.57,5.23,22.01,10.57,33.01,15.86,33.99,16.71,2.76,2.38,8.41,7.68,15.73,7.34,4.8-.23,8.26-2.78,9.37-3.58h.03c8.55-6.11,31.27-17.59,55.6-28.5l-125.65,2.34Z"/>
    <rect x="211.86" y="171.75" width="11.79" height="94.36"/>
    <path d="M292.16,235.4c-.11-.9-.09-1.82.08-2.72l-2.52-5.56-79.38,36.03,1.92,4.24c2.67.75,4.28,2.86,4.85,5.26.06.1.11.2.17.3l75.2-34.13s0-.08,0-.12c-.16-.68-.23-1.39-.22-2.1-.07-.4-.1-.8-.11-1.2Z"/>
    <path d="M291.06,143.53c-2.48-.54-4.11-2.2-4.92-4.23-.37-.31-.72-.63-1.01-1.01l-76.02,35.42,4.98,10.69,77.28-36.01c-.59-1.54-.68-3.26-.31-4.86Z"/>
    <path d="M150.15,138.72c-1,.63-2.23,1.02-3.69,1.07.47,2.36-.05,4.95-1.57,6.79.32.93.48,1.92.45,2.91l74.82,34.27,4.91-10.72-74.93-34.32Z"/>
    <path d="M218.45,272.46c.71-2.32,2.43-4.29,5.17-4.87l1.81-3.86-78.13-36.6-3.84,8.19c0,1.02-.02,2.04-.03,3.06,24.65,11.53,49.3,23.07,73.95,34.6.33-.2.69-.38,1.07-.52Z"/>
    <rect x="143.46" y="140.72" width="11.79" height="97.59"/>
    <path d="M222.09,109.2c-.07-.04-.13-.07-.2-.11-.48-.29-1.21-.87-1.62-1.25-.03-.02-.05-.05-.07-.08-.32-.14-.63-.3-.92-.49-.02-.01-.04-.02-.06-.04-.17-.07-.34-.14-.5-.22-.54-.17-1.05-.39-1.5-.67l-73.73,34.36,4.98,10.69,77.89-36.3-2.38-5.11c-.59-.16-1.36-.5-1.89-.78Z"/>
    <path d="M292.32,140.73c-25.03-11.46-50.07-22.93-75.1-34.39-.18.6-.84,2.49-2.78,3.84-1.55,1.08-3.11,1.24-3.78,1.27l-1.84,4.02,80.23,36.74,3.26-7.12v-4.35Z"/>
    <path d="M289.68,139.55c-3.01-.01-6.01-.02-9.02-.04v98.85c1.21-1.7,3.12-2.87,5.75-2.87.71,0,2.5.03,4.23,1.31.93.69,1.5,1.48,1.83,2.02.03-32.66.06-65.31.08-97.97-.96-.44-1.92-.87-2.88-1.31Z"/>
  </g>
  <g>
    <path class="cls-3" d="M146.49,110.93c.8,9.79,1.71,19.54,2.12,29.35.1,2.36-.27,3.62,1.23,5.1,3.37,3.32,10.86,4.71,15.26,6.51,10.55,4.35,20.97,9.11,31.59,13.29,6.55,2.57,13.49,3.65,20.18,5.53,0-4.59.03-14.88.06-33.44.05-22.11.06-33.16.08-33.21.91-3.29,3.11-10.05.05-16.3-1.42-2.9-3.47-4.66-4.62-5.63-5.72-4.83-11.38-4.6-17.93-6.23-7.62-1.89-7-3.94-22.16-11.94-3.55-1.87-8.92-4.28-19.17-8.83-9.54,16.85-8.2,37.11-6.67,55.8Z"/>
    <path class="cls-1" d="M274.15,152.51c3.59-3.78,8.32-6.03,10.03-11.15,1.65-4.96,1.14-10.86,1.62-15.99.52-5.61,1.26-11.08,1.21-16.75-.11-12.12-.57-24.32-.98-36.44-.25-7.24-1.89-19.84-11.11-21.28-2.97-.46-4.63-2.19-5.22-4.3-23.96,5.94-45.04,11.3-50.53,14.54v-.02c-1,.59.1.33.94,5.28,2.96,17.48.44,30.73-.56,36.83-4.75,29.1-2.96,68.51,3.26,68.94.6.04,1.11-.28,1.27-.38,3.18-1.99,17.55-6.91,47.46-15.84.76-1.21,1.59-2.38,2.6-3.45Z"/>
    <path class="cls-2" d="M276.18,47.52c-8.3-4.26-16-8.51-24.8-11.79-7.73-2.88-16.04-4.88-23.44-8.59-2.71-1.36-5.4-4.59-8.32-5.27-3.87-.9-6.61,2.85-9.62,4.85-6.59,4.36-14.61,4.62-21.75,7.67-2.79,1.19-5.46.71-7.53-.62-4.88,2.49-9.6,5.5-13.98,8.4-4.75,3.15-8.73,7.6-13.3,10.99l125.65-2.34c.82-.37,1.65-.73,2.47-1.1-1.82-.56-3.61-1.29-5.38-2.2Z"/>
    <path class="cls-2" d="M153.44,53.16c-.21.16-.43.31-.65.46,4.23,1.82,7.95,3.49,11.57,5.23,22.01,10.57,33.01,15.86,33.99,16.71,2.76,2.38,8.41,7.68,15.73,7.34,4.8-.23,8.26-2.78,9.37-3.58h.03c8.55-6.11,31.27-17.59,55.6-28.5l-125.65,2.34Z"/>
    <rect x="211.86" y="80.43" width="11.79" height="94.36"/>
    <path d="M292.16,144.07c-.11-.9-.09-1.82.08-2.72l-2.52-5.56-79.38,36.03,1.92,4.24c2.67.75,4.28,2.86,4.85,5.26.06.1.11.2.17.3l75.2-34.13s0-.08,0-.12c-.16-.68-.23-1.39-.22-2.1-.07-.4-.1-.8-.11-1.2Z"/>
    <path d="M291.06,52.2c-2.48-.54-4.11-2.2-4.92-4.23-.37-.31-.72-.63-1.01-1.01l-76.02,35.42,4.98,10.69,77.28-36.01c-.59-1.54-.68-3.26-.31-4.86Z"/>
    <path d="M150.15,47.39c-1,.63-2.23,1.02-3.69,1.07.47,2.36-.05,4.95-1.57,6.79.32.93.48,1.92.45,2.91l74.82,34.27,4.91-10.72-74.93-34.32Z"/>
    <path d="M218.45,181.13c.71-2.32,2.43-4.29,5.17-4.87l1.81-3.86-78.13-36.6-3.84,8.19c0,1.02-.02,2.04-.03,3.06,24.65,11.53,49.3,23.07,73.95,34.6.33-.2.69-.38,1.07-.52Z"/>
    <rect x="143.46" y="49.39" width="11.79" height="97.59"/>
    <path d="M222.09,17.87c-.07-.04-.13-.07-.2-.11-.48-.29-1.21-.87-1.62-1.25-.03-.02-.05-.05-.07-.08-.32-.14-.63-.3-.92-.49-.02-.01-.04-.02-.06-.04-.17-.07-.34-.14-.5-.22-.54-.17-1.05-.39-1.5-.67l-73.73,34.36,4.98,10.69,77.89-36.3-2.38-5.11c-.59-.16-1.36-.5-1.89-.78Z"/>
    <path d="M292.32,49.4c-25.03-11.46-50.07-22.93-75.1-34.39-.18.6-.84,2.49-2.78,3.84-1.55,1.08-3.11,1.24-3.78,1.27l-1.84,4.02,80.23,36.74,3.26-7.12v-4.35Z"/>
    <path d="M289.68,48.22c-3.01-.01-6.01-.02-9.02-.04v98.85c1.21-1.7,3.12-2.87,5.75-2.87.71,0,2.5.03,4.23,1.31.93.69,1.5,1.48,1.83,2.02.03-32.66.06-65.31.08-97.97-.96-.44-1.92-.87-2.88-1.31Z"/>
  </g>
  <g>
    <path class="cls-3" d="M13.16,110.43c.8,9.79,1.71,19.54,2.12,29.35.1,2.36-.27,3.62,1.23,5.1,3.37,3.32,10.86,4.71,15.26,6.51,10.55,4.35,20.97,9.11,31.59,13.29,6.55,2.57,13.49,3.65,20.18,5.53,0-4.59.03-14.88.06-33.44.05-22.11.06-33.16.08-33.21.91-3.29,3.11-10.05.05-16.3-1.42-2.9-3.47-4.66-4.62-5.63-5.72-4.83-11.38-4.6-17.93-6.23-7.62-1.89-7-3.94-22.16-11.94-3.55-1.87-8.92-4.28-19.17-8.83-9.54,16.85-8.2,37.11-6.67,55.8Z"/>
    <path class="cls-1" d="M140.82,152.01c3.59-3.78,8.32-6.03,10.03-11.15,1.65-4.96,1.14-10.86,1.62-15.99.52-5.61,1.26-11.08,1.21-16.75-.11-12.12-.57-24.32-.98-36.44-.25-7.24-1.89-19.84-11.11-21.28-2.97-.46-4.63-2.19-5.22-4.3-23.96,5.94-45.04,11.3-50.53,14.54v-.02c-1,.59.1.33.94,5.28,2.96,17.48.44,30.73-.56,36.83-4.75,29.1-2.96,68.51,3.26,68.94.6.04,1.11-.28,1.27-.38,3.18-1.99,17.55-6.91,47.46-15.84.76-1.21,1.59-2.38,2.6-3.45Z"/>
    <path class="cls-2" d="M142.85,47.02c-8.3-4.26-16-8.51-24.8-11.79-7.73-2.88-16.04-4.88-23.44-8.59-2.71-1.36-5.4-4.59-8.32-5.27-3.87-.9-6.61,2.85-9.62,4.85-6.59,4.36-14.61,4.62-21.75,7.67-2.79,1.19-5.46.71-7.53-.62-4.88,2.49-9.6,5.5-13.98,8.4-4.75,3.15-8.73,7.6-13.3,10.99l125.65-2.34c.82-.37,1.65-.73,2.47-1.1-1.82-.56-3.61-1.29-5.38-2.2Z"/>
    <path class="cls-2" d="M20.12,52.66c-.21.16-.43.31-.65.46,4.23,1.82,7.95,3.49,11.57,5.23,22.01,10.57,33.01,15.86,33.99,16.71,2.76,2.38,8.41,7.68,15.73,7.34,4.8-.23,8.26-2.78,9.37-3.58h.03c8.55-6.11,31.27-17.59,55.6-28.5l-125.65,2.34Z"/>
    <rect x="78.54" y="79.93" width="11.79" height="94.36"/>
    <path d="M158.83,143.57c-.11-.9-.09-1.82.08-2.72l-2.52-5.56-79.38,36.03,1.92,4.24c2.67.75,4.28,2.86,4.85,5.26.06.1.11.2.17.3l75.2-34.13s0-.08,0-.12c-.16-.68-.23-1.39-.22-2.1-.07-.4-.1-.8-.11-1.2Z"/>
    <path d="M157.73,51.7c-2.48-.54-4.11-2.2-4.92-4.23-.37-.31-.72-.63-1.01-1.01l-76.02,35.42,4.98,10.69,77.28-36.01c-.59-1.54-.68-3.26-.31-4.86Z"/>
    <path d="M16.82,46.89c-1,.63-2.23,1.02-3.69,1.07.47,2.36-.05,4.95-1.57,6.79.32.93.48,1.92.45,2.91l74.82,34.27,4.91-10.72L16.82,46.89Z"/>
    <path d="M85.13,180.63c.71-2.32,2.43-4.29,5.17-4.87l1.81-3.86L13.98,135.3l-3.84,8.19c0,1.02-.02,2.04-.03,3.06,24.65,11.53,49.3,23.07,73.95,34.6.33-.2.69-.38,1.07-.52Z"/>
    <rect x="10.14" y="48.89" width="11.79" height="97.59"/>
    <path d="M88.77,17.37c-.07-.04-.13-.07-.2-.11-.48-.29-1.21-.87-1.62-1.25-.03-.02-.05-.05-.07-.08-.32-.14-.63-.3-.92-.49-.02-.01-.04-.02-.06-.04-.17-.07-.34-.14-.5-.22-.54-.17-1.05-.39-1.5-.67L10.17,48.87l4.98,10.69L93.04,23.26l-2.38-5.11c-.59-.16-1.36-.5-1.89-.78Z"/>
    <path d="M159,48.91c-25.03-11.46-50.07-22.93-75.1-34.39-.18.6-.84,2.49-2.78,3.84-1.55,1.08-3.11,1.24-3.78,1.27l-1.84,4.02,80.23,36.74,3.26-7.12v-4.35Z"/>
    <path d="M156.36,47.72c-3.01-.01-6.01-.02-9.02-.04v98.85c1.21-1.7,3.12-2.87,5.75-2.87.71,0,2.5.03,4.23,1.31.93.69,1.5,1.48,1.83,2.02.03-32.66.06-65.31.08-97.97-.96-.44-1.92-.87-2.88-1.31Z"/>
  </g>
  <g>
    <path class="cls-3" d="M78.37,233.15c.8,9.79,1.71,19.54,2.12,29.35.1,2.36-.27,3.62,1.23,5.1,3.37,3.32,10.86,4.71,15.26,6.51,10.55,4.35,20.97,9.11,31.59,13.29,6.55,2.57,13.49,3.65,20.18,5.53,0-4.59.03-14.88.06-33.44.05-22.11.06-33.16.08-33.21.91-3.29,3.11-10.05.05-16.3-1.42-2.9-3.47-4.66-4.62-5.63-5.72-4.83-11.38-4.6-17.93-6.23-7.62-1.89-7-3.94-22.16-11.94-3.55-1.87-8.92-4.28-19.17-8.83-9.54,16.85-8.2,37.11-6.67,55.8Z"/>
    <path class="cls-1" d="M206.03,274.73c3.59-3.78,8.32-6.03,10.03-11.15,1.65-4.96,1.14-10.86,1.62-15.99.52-5.61,1.26-11.08,1.21-16.75-.11-12.12-.57-24.32-.98-36.44-.25-7.24-1.89-19.84-11.11-21.28-2.97-.46-4.63-2.19-5.22-4.3-23.96,5.94-45.04,11.3-50.53,14.54v-.02c-1,.59.1.33.94,5.28,2.96,17.48.44,30.73-.56,36.83-4.75,29.1-2.96,68.51,3.26,68.94.6.04,1.11-.28,1.27-.38,3.18-1.99,17.55-6.91,47.46-15.84.76-1.21,1.59-2.38,2.6-3.45Z"/>
    <path class="cls-2" d="M208.06,169.74c-8.3-4.26-16-8.51-24.8-11.79-7.73-2.88-16.04-4.88-23.44-8.59-2.71-1.36-5.4-4.59-8.32-5.27-3.87-.9-6.61,2.85-9.62,4.85-6.59,4.36-14.61,4.62-21.75,7.67-2.79,1.19-5.46.71-7.53-.62-4.88,2.49-9.6,5.5-13.98,8.4-4.75,3.15-8.73,7.6-13.3,10.99l125.65-2.34c.82-.37,1.65-.73,2.47-1.1-1.82-.56-3.61-1.29-5.38-2.2Z"/>
    <path class="cls-2" d="M85.33,175.38c-.21.16-.43.31-.65.46,4.23,1.82,7.95,3.49,11.57,5.23,22.01,10.57,33.01,15.86,33.99,16.71,2.76,2.38,8.41,7.68,15.73,7.34,4.8-.23,8.26-2.78,9.37-3.58h.03c8.55-6.11,31.27-17.59,55.6-28.5l-125.65,2.34Z"/>
    <rect x="143.75" y="202.65" width="11.79" height="94.36"/>
    <path d="M224.04,266.29c-.11-.9-.09-1.82.08-2.72l-2.52-5.56-79.38,36.03,1.92,4.24c2.67.75,4.28,2.86,4.85,5.26.06.1.11.2.17.3l75.2-34.13s0-.08,0-.12c-.16-.68-.23-1.39-.22-2.1-.07-.4-.1-.8-.11-1.2Z"/>
    <path d="M222.94,174.42c-2.48-.54-4.11-2.2-4.92-4.23-.37-.31-.72-.63-1.01-1.01l-76.02,35.42,4.98,10.69,77.28-36.01c-.59-1.54-.68-3.26-.31-4.86Z"/>
    <path d="M82.04,169.62c-1,.63-2.23,1.02-3.69,1.07.47,2.36-.05,4.95-1.57,6.79.32.93.48,1.92.45,2.91l74.82,34.27,4.91-10.72-74.93-34.32Z"/>
    <path d="M150.34,303.35c.71-2.32,2.43-4.29,5.17-4.87l1.81-3.86-78.13-36.6-3.84,8.19c0,1.02-.02,2.04-.03,3.06,24.65,11.53,49.3,23.07,73.95,34.6.33-.2.69-.38,1.07-.52Z"/>
    <rect x="75.35" y="171.61" width="11.79" height="97.59"/>
    <path d="M153.98,140.09c-.07-.04-.13-.07-.2-.11-.48-.29-1.21-.87-1.62-1.25-.03-.02-.05-.05-.07-.08-.32-.14-.63-.3-.92-.49-.02-.01-.04-.02-.06-.04-.17-.07-.34-.14-.5-.22-.54-.17-1.05-.39-1.5-.67l-73.73,34.36,4.98,10.69,77.89-36.3-2.38-5.11c-.59-.16-1.36-.5-1.89-.78Z"/>
    <path d="M224.21,171.63c-25.03-11.46-50.07-22.93-75.1-34.39-.18.6-.84,2.49-2.78,3.84-1.55,1.08-3.11,1.24-3.78,1.27l-1.84,4.02,80.23,36.74,3.26-7.12v-4.35Z"/>
    <path d="M221.57,170.44c-3.01-.01-6.01-.02-9.02-.04v98.85c1.21-1.7,3.12-2.87,5.75-2.87.71,0,2.5.03,4.23,1.31.93.69,1.5,1.48,1.83,2.02.03-32.66.06-65.31.08-97.97-.96-.44-1.92-.87-2.88-1.31Z"/>
  </g>
</svg>