<?xml version="1.0" encoding="UTF-8"?>
<svg xmlns="http://www.w3.org/2000/svg" viewBox="0 0 255.12 255.12">
  <defs>
    <style>
      .cls-1, .cls-2, .cls-3, .cls-4 {
        fill: #3c3c3d;
      }

      .cls-2 {
        stroke-width: 2px;
      }

      .cls-2, .cls-3, .cls-4 {
        stroke: #3c3c3d;
        stroke-miterlimit: 10;
      }

      .cls-5 {
        fill: #f4ffc2;
      }

      .cls-3 {
        stroke-width: 4px;
      }

      .cls-4 {
        stroke-width: 3px;
      }

      .cls-6 {
        fill: #fcfcfc;
      }
    </style>
  </defs>
  <g id="Layer_2" data-name="Layer 2">
    <rect class="cls-6" x=".5" y=".5" width="254.12" height="254.12" rx="63.24" ry="63.24"/>
  </g>
  <g id="Layer_1" data-name="Layer 1">
    <g>
      <path class="cls-4" d="M176.08,18.74c13.89,6.88,24.73,16.53,32.82,27.84,37.5,52.44,22.2,125.06-11.35,167.04-17.59,22.01-45.99,31.54-80.77,29.03-6.35-.46-12.66-1.51-19-2.59-5.03-2-10.91-3.31-15.84-5.38-12.3-5.17-25.98-16.67-33.74-25.99-29.52-35.5-21.94-81.49-15.86-117.53.51-3.03,2.04-6.49,2.39-9.26.22-1.76-1.16-4.94-1.07-7.32.4-10.56,8.01-18.2,19.6-21.38-.72-7.24,2.69-13.78,9.99-17.09,3.02-1.37,6.76-1.62,9.81-3,4.83-2.19,9.74-6.29,14.61-8.91,19.17-10.33,46.86-17.4,72.58-10.84l15.84,5.38ZM104.54,62.24c-1.46,2.55-5.44,2.32-8.47,2.69,7.34,14.41-.21,29.06-17.17,32.58-12.64,2.62-25.55-2.52-37.28-8.62-1.86.22-2.33,1.8-2.69,3.1-3.51,12.6-4.86,32.68-4.77,46.19.27,40.08,22.31,95.55,83.92,97.86,56.03,2.1,75.15-22.63,90.67-60.7,16-39.25,22.28-86.68-9.73-128.48-22.33-29.16-57.85-32.6-90.08-23.58-10.07,2.82-20.67,7.23-28.34,12.9,8.15,4.6,16.51,9,25.7,11.63-.08,3.6-5.24,3.76-8.82,2.84-6.84-1.75-12.55-6.09-19.32-7.97-9.47-2.63-20.73-.04-19.41,8.88,15.41,2.39,30.79,5.82,45.8,10.67ZM51.89,60.03c-7.87,2.89-15.54,15.88-8.28,23.09,5.73,5.69,23.96,9.72,31.66,8.32,11.36-2.07,17.57-14.76,15.86-24.07-.94-5.07-4.66-3.84-8.74-4.56-9.2-1.62-22.25-5.81-30.5-2.78Z"/>
      <path class="cls-3" d="M69.66,160.9c.15.14.98,2.44,1.81,3.41,7.17,8.36,36.31,15.3,48,17.52,17.01,3.24,35.09,3.96,50.96.99,3.25-.61,13.84-3.03,15.59-4.81,2.53-2.59-1.09-4.31-.68-6.29.34-1.65,1.7-1.32,3.08-.25,1.1.84,6.97,8.49,8.41,11.17.24.45.09,1-.34,1.28h0c-.36.22-.81.19-1.14-.08-5.04-4.07-6.87-.68-10.95.92-7.48,2.94-14.73,3.18-22.3,5.25-10.25,2.8-15.5,9.23-26.5,12.06-20.84,5.36-37.88,7.17-58.1-7.52-11.86-8.62-8.08-13.41-9.98-23.5-.43-2.29-3.24-7.7-3.06-8.97.24-1.75,3.52-2.73,5.21-1.16ZM102.44,183.57c-5.52-2.87-12.41-6.01-12.07,1.21.58,1.71,6.49,3.09,8.42,3.76l3.64-4.97ZM134.24,197.73c-1.67-4.52-7.39-4.78-11.77-4.19-5.4.73-5.04,1.91-4.72,6.35l16.49-2.15Z"/>
      <path class="cls-4" d="M173.94,74.8c21.23,5.18,26.11,28.92,23.47,42.52-4.68,24.15-30.88,57.95-63.19,24.15-3.47-3.63-4.97-6.44-5.74-10.73-3.56-19.78,13.56-63.71,45.46-55.94ZM175.24,83.95c-5.3-1.16-13.89.37-18.23,2.17-14.98,6.24-20.02,19.53-21.11,33.27-.99,12.39,1.08,18.79,15.95,26.47,6.16,3.18,8.31,4.23,14.22,1.63,18.28-8.01,29.69-37.41,20.04-55.14-2.53-4.64-4.62-7.03-10.87-8.4Z"/>
      <path class="cls-4" d="M176.66,53.17c7.38,1.81,15.44,6.4,19.74,11.91,1.42,1.82,3.64,4.77,1.65,6.36s-4.69-2.27-6.45-3.57c-6.41-4.73-14.87-8.96-23-9.09-4.13-.07-10.36,1.44-14.21,1.01-5.72-.64-.87-4.04,1.4-5.12,5.48-2.61,14.04-3.17,20.87-1.49Z"/>
      <path class="cls-2" d="M138.57,162.05c-.4-.24-1.07-1.55-.92-2.01.9-2.74,12.05,1.66,14.64,2.26,3.25.75,6.59.42,9.66.05,2.65-.32,12.1-2.81,13.86-2.23.67.22,1.79.84,1.75,1.38-.11,1.41-10.51,4.98-12.6,5.35-4.36.78-11.7.19-16.2-1.34-2.28-.78-8.67-2.55-10.18-3.46Z"/>
      <path class="cls-1" d="M64.12,82.63c-7.71-8.19,10.51-18.88,15.83-9.17,3.28,5.97-4.89,20.79-15.83,9.17Z"/>
      <path class="cls-5" d="M134.24,197.73l-16.49,2.15c-.32-4.44-.68-5.62,4.72-6.35,4.38-.59,10.1-.33,11.77,4.19Z"/>
      <path class="cls-5" d="M102.44,183.57l-3.64,4.97c-1.94-.67-7.84-2.05-8.42-3.76-.34-7.21,6.54-4.08,12.07-1.21Z"/>
      <path class="cls-1" d="M170.06,126.59c5.61,9.76-15.92,19.77-17.1,3.72-.77-10.38,13.28-10.37,17.1-3.72Z"/>
    </g>
  </g>
</svg>