<?xml version="1.0" encoding="UTF-8"?>
<svg id="Layer_2" data-name="Layer 2" xmlns="http://www.w3.org/2000/svg" viewBox="0 0 256 121.65">
  <defs>
    <style>
      .cls-1 {
        fill: #020202;
      }

      .cls-2 {
        fill: #fd42ff;
      }
    </style>
  </defs>
  <rect class="cls-1" x="24.99" y="40.86" width="14.63" height="45.67" rx="5.74" ry="5.74"/>
  <path d="M62.7,40.8h-4.62c-7.92,0-14.33,6.42-14.33,14.33v17c0,7.92,6.42,14.33,14.33,14.33h4.62c7.92,0,14.33-6.42,14.33-14.33v-17c0-7.92-6.42-14.33-14.33-14.33ZM62.79,75.06c0,1.3-1.05,2.36-2.36,2.36h0c-1.3,0-2.36-1.05-2.36-2.36v-23.1c0-1.3,1.05-2.36,2.36-2.36s2.36,1.05,2.36,2.36v23.1Z"/>
  <rect x="118" y="40.91" width="14.63" height="45.67" rx="5.74" ry="5.74"/>
  <path d="M103.76,86.28c.53.16,1.1.25,1.69.25h2.87c3.17,0,5.74-2.57,5.74-5.74v-25.26c0-7.92-6.42-14.33-14.33-14.33h-4.62c-7.92,0-14.4,6.42-14.4,14.33v25.26c0,3.17,2.57,5.74,5.74,5.74h2.87c.6,0,1.17-.09,1.72-.26,0,0,.01,0,.02,0,2.33-.72,4.02-2.88,4.04-5.44v-28.49c0-1.3,1.06-2.36,2.36-2.36s2.36,1.05,2.36,2.36v28.58c0,3.91,2.04,4.86,4.26,5.42-.11-.03-.22-.04-.32-.07"/>
  <circle class="cls-2" cx="32.54" cy="28.22" r="8.65"/>
  <path d="M138.98,47.04c-1.65,2.33-2.62,5.18-2.62,8.26v17c0,7.92,6.42,14.33,14.33,14.33h4.62c7.92,0,14.33-6.42,14.33-14.33v-1.81c0-1.08-.88-1.96-1.96-1.96h-10.33c-1.08,0-1.96.88-1.96,1.96v4.73c0,1.3-1.05,2.36-2.36,2.36h0c-1.3,0-2.36-1.05-2.36-2.36v-22.99c0-1.1.7-2.14,1.77-2.4,1.55-.37,2.94.79,2.94,2.29v3.58c0,1.08.88,1.96,1.96,1.96h10.33c1.08,0,1.96-.88,1.96-1.96v-.39c0-7.92-6.42-14.33-14.33-14.33h-4.62c-4.84,0-9.12,2.4-11.72,6.08"/>
  <path class="cls-2" d="M193.96,79.33c-26.52,26.87-56.96,39.83-67.98,28.95-3.29-3.24-4.48-8.24-3.82-14.38.3-2.8,4.03-3.36,5.32-.87.52,1,1.17,1.89,1.96,2.68,9.38,9.27,34.64-1.1,56.42-23.16,21.77-22.06,31.83-47.45,22.44-56.71-3.3-3.26-8.58-4.09-14.98-2.82-.8.16-1.14-.96-.4-1.29,12.71-5.61,23.46-6.3,29.11-.72,11.02,10.87-1.55,41.47-28.08,68.34Z"/>
  <path class="cls-2" d="M193.98,45.97c-26.52-26.87-56.96-39.83-67.98-28.95-3.29,3.24-4.48,8.24-3.82,14.38.3,2.8,4.03,3.36,5.32.87.52-1,1.17-1.89,1.96-2.68,9.38-9.27,34.64,1.1,56.42,23.16,21.77,22.06,31.83,47.45,22.44,56.71-3.3,3.26-8.58,4.09-14.98,2.82-.8-.16-1.14.96-.4,1.29,12.71,5.61,23.46,6.3,29.11.72,11.02-10.87-1.55-41.47-28.08-68.34Z"/>
</svg>