<?xml version="1.0" encoding="UTF-8"?>
<svg id="Layer_1" data-name="Layer 1" xmlns="http://www.w3.org/2000/svg" viewBox="0 0 381.93 98.17">
  <defs>
    <style>
      .cls-1 {
        fill: #676768;
      }
    </style>
  </defs>
  <path class="cls-1" d="M157.59,6.5c6.5.65,9.11,5.27,9.48,11.39.29,4.83.62,14.99-4.81,17.05-.35.13-.23-.47,0,0,.25.52,2.99,1.9,3.72,2.52,6.88,5.82,6.38,23.84.36,30.13-2.21,2.31-8.54,3.56-11.65,3.24-.99-.1-1.7-.18-2.39-.33-1.11-.24-1.86-.78-2.99-.88l.24-63.12c2.58.19,5.49-.25,8.03,0ZM153.88,16.82v11.16c0,.54,1.43.44,1.93-.06.81-.79,1.38-3.58,1.44-4.73.11-2.17-.2-7.08-3.37-6.37ZM157.11,40.34c-1.02-.21-2.62.15-3.72,0v20.97c2.6,1.19,7.19.51,8.51-2.25,1.6-3.35,2.19-13.3-.02-16.3-1.13-1.54-3.14-2.07-4.78-2.42-.28-.06.06.01,0,0Z"/>
  <path class="cls-1" d="M13.5,71.96c-.65,0-2.57.04-2.57-.61-.01-2.37.06-4.9,0-7.27-.35-13.61-.28-27.23-.14-40.87.07-6.7-.03-10.12.14-14.82.05-1.28.42-2.05,2.19-1.98.05,0,1.93-.07,1.98-.07.68.05,1.72-.47,1.91.92l.02,1.95-.12,26.36c0,1.19,1.57,1.66,2.18.64.39-.66.86-1.25,1.55-1.65,1.11-.65,3.7-1.11,4.98-.97,2.74.3,4.92,3.52,5.84,5.91,3.4,8.74,4.82,25.9-2.67,32.7-.97.88-5.15,1.03-6.42.85-2.43-.35-4.45-3.89-4.76-6.36-.07-.08-.48.31-.48.36v3.74c0,.65-.53,1.18-1.18,1.18h-2.44ZM25.02,59c1.37-1.35,1.45-7.52,1.26-9.42-.12-1.24-1.39-6.13-3.08-3.8s-2.02,7.39-1.3,10.11c.38,1.45,1.2,4.04,3.12,3.11Z"/>
  <path class="cls-1" d="M210.96,65.3c-.57-.12-.39.07-.54.31-.32.5-.51,1.18-.89,1.74-1.82,2.66-4.26,5.35-7.76,3.67-7.02-3.38-8.42-15.77-8.09-22.65.25-5.09,1.26-14.65,5.52-17.99,1.95-1.53,5.62-1.56,7.56-.11,2.09,1.55,2.66,3.85,4.2,5.76l.59-7.93c.46-.68,3.14.66,3.96.5l.49,41.51c-1.85-.12-3.37,1.06-5.04-.36v-4.44ZM203.83,57.3c1.24,1.02,3.91-1.59,4.19-2.98.55-2.71.38-10.65-1.65-12.64-1.74-1.71-2.85-.48-3.69,1.3s-1.28,6.51-1.08,8.51c.13,1.31,1.25,5,2.23,5.81Z"/>
  <path class="cls-1" d="M321.29,65.3l-2.99,4.33c-2.65,2.77-6,2.24-8.53-.36-5.08-5.22-5.82-14.44-5.52-21.38.22-5.09,1.19-13.18,4.83-17,1.93-2.02,6.03-2.22,8.25-.62,1.86,1.34,2.57,3.53,3.7,5.41.13.21-.12.48.5.34.35-2.01.06-4.11.25-6.11.33-3.6,1.78-1.34,4.3-1.31l.49,41.51c-1.51.02-5.28,1.26-5.28-1.32v-3.48ZM314.98,40.85c-2.4,1.7-2.72,5.01-2.82,7.76-.1,2.58.12,5.39,1.49,7.65.55.9.95,1.67,2.06,1.18,1.38-.61,2.69-2.01,2.92-3.55.39-2.6.1-8.81-1.06-11.15-.38-.77-1.7-2.13-2.59-1.89Z"/>
  <path class="cls-1" d="M285.76,26.45l-.43,5.63c-3.23-.55-10.61.12-12.59,3-1.33,1.93-1.61,6.27-.81,8.45,1.19,3.22,6.27,3.77,8.99,4.93,1.24.53,4.99,3.08,5.64,4.19,4.73,8.02-.07,20.04-9.36,22.18-4.17.96-9.79-.82-13.66-2.38-.32-1.05-1.6-8.2-1.25-8.58,2.67.97,7.72,2.45,10.19.72,2.32-1.62,3.79-3.68,3.97-6.59.27-4.34-1.73-5.23-5.12-7.14-2.12-1.19-5.81-2.31-7.22-4.29-2.87-4.01-2.72-15.74,1.32-19.05,4.26-3.48,11.18-3.72,16.29-2.41,1.36.35,2.7.97,4.05,1.35Z"/>
  <path class="cls-1" d="M358.64,6.41c.46.04,3.56-.05,3.88,0,.64.11,1.47,0,1.45,1.04-.13,6.4.15,12.23.02,18.63-.02.96-.27,2.75.11,3.71s5.14.86,6.36.96c.12,2.35.32,4.61-.01,6.95l-6.72.87c.04,2.88,0,5.75,0,8.63.01,7.9.31,17.11-.22,24.96-.05.81-.18,2.16-.61,2.75h-5.88l-.51-36.81c-.28-.85-1.59-.4-2.25-.42s-1.26.09-1.94.07-1.56.07-2.26-.05v-6.96c.7-.38,1.35-.19,1.73-.23.29-.03.89.02,1.28,0,1.23-.06,2.48.02,3.71-.01l.16-23.39c.07-.56.39-.82,1.69-.71Z"/>
  <path class="cls-1" d="M62.02,67.93c-.11-.07.25-.06,0,0V28.82s4.09-.13,4.09-.13l.95,4.69c.13-.72.62-1.38,1.08-1.92,3.08-3.64,5.87-4.38,10.39-2.72,1.82.67,4.7,5.6,5.53,7.43,1.08,2.38,2.02,9.19,2.2,11.96.44,6.91-.35,14.29,0,21.25l-5.76-.24c.03-.78-.22-1.49-.25-2.27-.34-8.17,1.2-17.36-1.13-25.27-.63-2.13-1.43-4.75-4.03-4.86-3.01-.13-4.1,2.96-4.7,5.37-1.17,4.7-1.2,12.05-1.41,17.07-.09,2.18.38,5.77,0,7.68-.11.55-1.46,1.33-1.79,1.33-1.3,0-4.01.49-5.16-.25Z"/>
  <path class="cls-1" d="M233.62,68.18l-.6-39.36c1-.07,3.47-.62,4.22-.02.47.37.53,3.41.58,4.23.02.27-.16.66.24.59.34-1.79,2.41-3.63,3.86-4.66,2.33-1.64,5.09-1.15,7.61-.22,1.95.72,5.45,6.61,6.02,8.61.38,1.32.67,3.22.9,4.62,1.49,8.99.5,18.31.79,27.41l-5.76-.24c.04-4.21-.19-8.4-.25-12.61-.08-5.11.62-13.77-2.43-18.19-1.49-2.16-4.45-2.08-5.96-.04-2.57,3.49-2.18,12.56-2.39,16.81-.07,1.35-.44,2.95-.5,4.3-.1,2.12.37,5.58,0,7.44-.11.55-1.46,1.33-1.79,1.33h-4.56Z"/>
  <path class="cls-1" d="M92.84,68.18l-.6-39.36c1-.08,3.47-.61,4.22-.02l.7,4.58c1.45-2.62,4.49-5.6,7.68-5.54,5.04.1,7.57,4.14,9.51,8.25,1.01,2.13,1.97,9.24,2.12,11.79.43,7-.34,14.44,0,21.49l-5.76-.24c.16-4.05-.27-8.08-.25-12.13s.32-7.95-.3-11.92c-.48-3.11-1.67-9.55-6.1-8.16-2.24.7-3.08,3.67-3.56,5.8-1.06,4.77-1.08,11.88-1.32,16.92-.09,2.06.36,5.39,0,7.2-.11.55-1.46,1.33-1.79,1.33h-4.56Z"/>
  <path class="cls-1" d="M57.22,62.3c-.49,2.4-4.03,6.34-6.47,6.97-7.39,1.9-11.5-5.97-12.8-11.93-1.19-5.5-1.11-16.07.85-21.38.66-1.79,4.13-6.57,6.06-6.67,1.51-.08,4.74.64,6.13,1.33,3.05,1.5,4.54,7.14,4.78,10.33.12,1.61.25,6.48-.05,7.86-.33,1.5-2.55.99-3.66,1.14-2.04.28-4.06.73-6.11.97-.24,3.17,1.01,10.4,5.51,9.23,1.25-.32,3.06-2.25,3.95-3.24.55-.61.97-1.77,1.8-1.92-.3,2.12.4,5.35,0,7.32ZM50.72,44.16c-.22-2.37.29-6.69-3.41-5.52-.78,1.7-1.64,3.61-1.07,5.49,1.44.45,3.03.39,4.48.02Z"/>
  <path class="cls-1" d="M134.69,50.18l7.32-21.12c.88-.81,2.13,1.43,2.62,2.18.93,1.44,1.68,2.33,1.27,4.11-.33,1.45-1.63,4.29-2.22,5.94-5.49,15.43-10.78,30.83-16.43,46.2-.69,1.87-1.06,4.39-1.97,6.19-.12.24-.22.49-.54.41-1.57-1.4-2.9-3.12-3.66-5.12.4-1.75,1.57-3.42,2.2-4.98,3-7.44,5.66-15.14,7.81-22.88-2.4-4.94-4.13-10.13-6.12-15.26-.88-2.26-1.77-4.47-2.64-6.72-.63-1.63-1.91-2.95-1.54-4.91.18-.96,1.52-1.89,2.11-2.69.8-1.1,1.14-2.49,2.44-3.2.37,1.46,1.35,2.89,1.87,4.25,1.51,3.92,2.58,7.84,4.32,11.76.85,1.91,1.81,4.32,3.16,5.83Z"/>
  <path class="cls-1" d="M179.27,30.77l-.21,4.29,2.17-2.5c4.12-2.6,7.11,2.26,8.2,5.68.4,1.26,1.54,5.93,1.38,7.01-.25,1.62-3.84,1.35-5.04,1.33.23-1.87-.99-7.67-3.83-5.87-3.89,2.47-2.88,10.17-3.14,14.62l.02,13.65c-2.39,1-4.31,1.54-4.58-1.63-.15-1.8,0-4.75,0-6.72,0-2.81.25-5.64.26-8.4.03-7.32-.33-14.64-.25-21.97l5.01.51Z"/>
  <path class="cls-1" d="M336.16,35.3l1.79-2.41c4.17-3.32,7.5,1.99,8.59,5.59.39,1.3,1.76,6.67.9,7.51s-3.4.57-4.54.57c-.37-1.84-.24-4.38-1.82-5.74-2.09-1.79-4.49,2.63-4.68,4.44-.1.92.07,1.94,0,2.88-.54,6.95-.78,13.87-.75,20.85-.25.74-4.29,1.08-4.29-.21V30.26c1.52.03,3.47-.06,4.8.6v4.44Z"/>
  <polygon class="cls-1" points="227.03 30.5 226.8 67.8 221.99 68.42 221.74 31.13 227.03 30.5"/>
  <path class="cls-1" d="M299.14,75.8c-.07.72-6.16.87-6.21-.05-.14-2.47-.24-3.86.05-6.3.22-1.82,5.38-1.22,5.73-.19"/>
  <polygon class="cls-1" points="226.55 17.06 226.55 24.98 222.11 24.98 221.75 24.62 221.75 17.06 226.55 17.06"/>
</svg>