<?xml version="1.0" encoding="UTF-8"?>
<svg id="Layer_1" data-name="Layer 1" xmlns="http://www.w3.org/2000/svg" viewBox="0 0 288.38 120.85">
  <path d="M185.47,73.12l17.5-51.29,23.59-.12v61.38l-118.23.12.07,1.32,107.95-.06-33.58,4.27h-74.25s-.07,1.32-.07,1.32h63.32L30.11,108.07l5.41-31.83h175.54v-12.37h-6.12s-2.71,9.25-2.71,9.25h-16.76ZM212.02,37.69c-.3-.08-.32.49-.41.73-1.05,2.82-2.01,5.86-2.92,8.74-.79,2.51-1.61,5.03-2.2,7.59l5.41-.12.12-16.94ZM74.33,90.06c-.7,3.46,1.52,4.54,4.61,4.19,1.73-.19,3.42-1.44,4-3.08.55-1.53,1.91-8.08,1.82-9.56-.22-3.76-6.86-3.41-8.42-.4-.51.99-1.27,4.46-1.25,5.57.04,2.59,3.2,3.05,4.76,1.36-.23.79-.31,3.83-1.38,3.83-.93,0-.4-1.37-.42-1.91h-3.72ZM96.55,85.73c-1.72.62-2.38,4.13-2.36,5.73.05,3.96,6.73,3.47,8.27.73.57-1.01,1.32-4.42,1-5.5-.12-.41-.94-1.01-.91-1.13,2.04-.73,2.84-4.94,1.04-6.09-1.49-.96-4.62-.7-6.03.38-1.48,1.13-2.56,4.25-1.03,5.71v.17ZM46.27,79.12h-6.13l-3.06,14.89h6.55l.66-3h-2.64l.59-3.19,2.41-.06c0-.78.45-1.74.48-2.47,0-.14-.05-.4-.17-.4h-2.1l.5-2.63,2.5-.03c.02-.79.61-2.14.59-2.84,0-.15-.05-.19-.16-.27ZM75.05,79.12h-2.1c-.07,0-.86.77-1.03.89-1.14.8-2.26,1.24-3.6,1.6l-.24,1.72c.82.04,2.23-.26,2.22.9l-1.86,9.79h3.72l2.88-14.89ZM94.15,81.65c-.01-.64.48-1.69.46-2.25,0-.15-.05-.19-.16-.27h-7.57l-.3.42-1.57,7.14h3.72c0-.73.52-1.65,1.32-1.14.2.23.13.65.1.95-.06.65-.85,4.65-1.08,5.04s-.9.64-1.11.17c-.33-.77.36-2.47.4-3.34h-3.72c-.61,2.64-1.02,5.5,2.48,5.87,5.33.56,6.29-3.35,6.76-7.75.27-2.53-.43-3.85-3.24-3.36-.63.11-.88.46-1.43.67l.36-2.16h4.57ZM60.03,80.21h-3.54l-.56,1.91-.77.13-.42,1.75.84.12-1.55,7.7c-.46,2.71,2.69,2.22,4.44,2.15l.47-1.99c-.51-.02-1.18.2-1.08-.53l1.44-7.32,1.09-.08.24-1.92h-.96s.36-1.92.36-1.92ZM50.66,85.73h3.18c.94-2.23.17-3.8-2.3-4.07-3.22-.36-5.93,1.48-5.44,4.96.26,1.85,3.4,2.59,3.67,3.55.14.51-.15,1.84-.86,1.81-.98-.04-.23-1.46-.22-2.04,0-.14-.01-.16-.13-.25h-3.18c-.43,2.18-.64,3.84,1.92,4.39,1.7.37,3.89.1,5.05-1.33.76-.94,1.38-3.22.87-4.35-.54-1.19-3.13-1.88-3.54-2.83-.3-.7.41-2.25,1.05-1.65.4.36-.16,1.31-.06,1.8ZM62.79,90.9h-2.76l-.6,3.12h2.7c.19-.31.77-3.01.66-3.12Z"/>
  <path d="M9.81,108.07L25.3,22.6l21.1-.06v23.55s7.88-23.65,7.88-23.65l21.32-.02-9.23,51.14s-.24.15-.27.15h-14l6.01-33.63-11.65,33.58-10.11.12-.1-.14-.02-32.83-12.14,67.26h-14.3Z"/>
  <path d="M173.45,44.29l1.32-7.57h-5.77l-4.56,25.77v1.38s5.11,0,5.11,0c1.4-3.54,1.56-7.44,2.45-11.12l16.35-.17c-1.1,5.25-1.73,12.09-5.89,15.92-6.32,5.83-18.33,7.21-26.29,4.66-7.92-2.54-8.3-7.66-7.34-15.09.84-6.5,2.3-13.83,3.63-20.28,1.02-4.94,1.72-8.31,5.67-11.75,6.89-6.02,23.23-7.42,30.34-1.38,5.47,4.64,2.15,13.29,1.43,19.33l-.17.31h-16.28Z"/>
  <path d="M97.4,37.81l.84-5.17h-5.28c-.37,1.59-.9,3.85,0,5.33,1.04,1.69,7.44,4.68,9.51,5.99,2.31,1.46,5.94,3.86,7.07,6.38,1.98,4.42.22,14.84-3.02,18.52-5.93,6.73-24.23,7.84-31,2.04-4.42-3.79-2.27-10.53-1.54-15.47l.28-.2,14.84-.06-1.33,8.71h5.59c.94-1.9,1.63-6.15.35-7.92-.75-1.05-3.96-2.94-5.18-3.71-4.63-2.92-11.33-5.44-11.82-11.73-.3-3.88,1.07-10.01,3.44-13.15,5.57-7.37,23.6-8.06,30.73-2.99,3.89,2.76,2.73,8.66,1.85,12.73-.05.24-.06.52-.26.7h-15.08Z"/>
  <path d="M228.72,26.93c1.51-2.37,4.36-6.7,7.4-7.01,1.32-.14,2.69.1,3.95.1,3.32,0,9.44-.87,12.08,1.26.36.29.89,1.07,1.16,1.24.7.42,1.91.19,2.56.86-.62-3.18,1.37-7.11,4.28-8.51,2.46-1.19,5.71-.77,7.49,1.37,2.51,3.02,3.18,8.11.55,11.23-1.94,2.3-4.27,2.4-7.03,1.56-.19.63-.74,1.36-1.15,1.91-.51.68-1.08,1.34-1.68,1.94.3,1.1.57,2.18.77,3.32.19,1.05.4,2.41.5,3.47.05.54-.11,1.45.02,1.9.03.11.09.18.23.15.16-.04,1.44-.88,1.71-1.05,1.31-.84,2.83-1.85,4.09-2.76.34-.25,2.17-1.63,2.22-1.87.08-.36-.35-1.33.08-1.83.18-.21,2.76-.8,3.15-.81,1.21-.04,2.72,2.62,2.68,3.63s-2.24,2.03-3.05,2.49c-2.27,1.29-5.24,3.85-6.99,5.86-.83.96-1.4,2.05-2.4,2.89-1.55,1.3-3.7,1.85-5.11.06-.84-1.07-2.63-4.22-3.03-5.49-.14-.46-.21-.94-.33-1.41-1.87,2.53-4.22,4.62-6.49,6.79-.05.24.06.15.15.2,4.14,2.55,11.17,5.09,14.07,8.99.91,1.22.72,2.92.05,4.23-1.14,2.23-7.38,5.55-9.7,7.24-2.35,1.72-5.1,3.89-7.28,5.82-2.77,2.46-1.71,4.43-.87,7.59.41,1.54,2.06,4.9.25,5.96-1.02.6-1.89.02-2.68-.64-1.75-3.01-6.01-6.7-7.23-9.83-.93-2.38,2.38-3.59,3.9-4.67,3.59-2.55,5.8-6.34,8.67-9.59,1.28-1.45,2.76-2.42,4.27-3.6l-1.63.12c-4.37-.22-8.72-.95-13.08-1.42-1.41,1.29-2.59,2.87-4.04,4.12-.67.58-1.65,1.38-2.52,1.5v-17c0-.08.6-1.15.7-1.34,1.33-2.45,3.63-4.59,5.42-6.71,2.93-3.46,6.17-7.77,9.49-10.81.28-.25,1.32-.88,1.32-1.2-1.32-.27-2.68-.26-4.01-.44-2.03-.28-3.97-.93-6-1.04-1.24,1.55-2.79,2.8-4.17,4.24-.93.97-1.7,2.11-2.76,2.95v-5.95Z"/>
  <path d="M115.18,36.96l2.54-14.76,35.66-.06-2.57,14.7-9.8.11-6.49,36.39c-4.3.08-8.61-.09-12.92,0-.31,0-.61.12-.95.13-.82.02-1.65-.03-2.47,0l6.49-36.52h-9.49Z"/>
  <path d="M98.03,91.83c-.15-.15-.16-.54-.15-.74.03-.55.63-3.44.97-3.72.65-.55,1,.02.96.71-.03.54-.61,3.39-.9,3.67-.21.21-.64.32-.88.09Z"/>
  <path d="M100.87,81.29c.17.59-.23,3.06-.71,3.3-.29.14-.8.07-.81-.33,0-.45.44-2.74.81-2.91.21-.1.49-.07.72-.05Z"/>
  <path d="M80.3,81.31c.87-.26.79.35.74.98-.06.72-.53,3.28-.82,3.86-.21.43-.76.87-1.14.41-.27-.33-.09-.92-.03-1.34.1-.73.52-3.06.87-3.57.09-.13.23-.3.38-.34Z"/>
</svg>