<svg id="Layer_3" xmlns="http://www.w3.org/2000/svg" xmlns:xlink="http://www.w3.org/1999/xlink" viewBox="0 0 589.14 207.35"><defs><style>
      .cls-1 {
        fill: url(#linear-gradient);
      }
      .cls-2 {
        fill: #007b79;
      }
      .cls-3 {
        fill: #732126;
      }
      .cls-4 {
        fill: url(#linear-gradient-3);
      }
      .cls-5 {
        fill: url(#linear-gradient-4);
      }
      .cls-6 {
        fill: url(#linear-gradient-2);
      }
      .cls-7 {
        fill: url(#linear-gradient-6);
      }
      .cls-8 {
        fill: url(#linear-gradient-5);
      }
    </style><linearGradient id="linear-gradient" x1="68.71" y1="153.69" x2="68.71" y2="26.07" gradientUnits="userSpaceOnUse"><stop offset=".21" stop-color="#732126"></stop><stop offset=".32" stop-color="#622e32"></stop><stop offset=".54" stop-color="#365052"></stop><stop offset=".78" stop-color="#007b79"></stop></linearGradient><linearGradient id="linear-gradient-2" x1="533.4" y1="183.52" x2="533.4" y2=".4" xlink:href="#linear-gradient"></linearGradient><linearGradient id="linear-gradient-3" x1="348.18" y1="153.67" x2="348.18" y2="26.16" xlink:href="#linear-gradient"></linearGradient><linearGradient id="linear-gradient-4" x1="176.13" y1="153.74" x2="176.13" y2="26.15" xlink:href="#linear-gradient"></linearGradient><linearGradient id="linear-gradient-5" x1="431.47" y1="177.32" x2="431.47" y2="26.23" xlink:href="#linear-gradient"></linearGradient><linearGradient id="linear-gradient-6" x1="266.67" y1="153.69" x2="266.67" y2="26.26" xlink:href="#linear-gradient"></linearGradient></defs><g><path class="cls-1" d="m48.67,59.45c-.42,3.06-.84,6.12-1.26,9.19-1.88,13.79-3.77,27.59-5.65,41.38-1.92,14.1-3.84,28.2-5.72,42.3-.14,1.06-.5,1.38-1.57,1.37-9.76-.04-19.52-.02-29.28-.03-.41,0-.82-.05-1.36-.08.26-1.96.49-3.8.74-5.65,3.03-22.29,6.07-44.57,9.1-66.86,2.17-15.92,4.33-31.84,6.51-47.75.27-2.01.73-3.99.93-6,.11-1.1.58-1.27,1.53-1.26,3.71.06,7.42.08,11.14.08,12.06.01,24.11.02,36.17.02.45,0,.89,0,1.48,0v46.99s.1.02.14.03c4.04-15.64,8.07-31.28,12.11-46.95h49.9c-.33,2.65-.64,5.26-.97,7.87-1.19,9.25-2.36,18.51-3.61,27.76-2.54,18.88-5.13,37.75-7.7,56.63-1.54,11.33-3.1,22.66-4.62,34-.11.83-.35,1.18-1.26,1.18-9.95-.03-19.9-.02-29.86-.02-.3,0-.6-.05-1.08-.09,4.38-32.17,8.74-64.28,13.11-96.38-.09-.03-.18-.05-.28-.08-.09.32-.2.63-.28.95-3.01,11.59-6.02,23.17-9.04,34.76-2.38,9.14-4.77,18.28-7.15,27.42-2.8,10.77-5.61,21.54-8.37,32.32-.23.89-.62,1.13-1.49,1.13-6.97-.03-13.93-.03-20.9,0-.97,0-1.33-.22-1.32-1.27.09-30.14.15-60.29.22-90.43,0-.84,0-1.68,0-2.52-.11,0-.22-.01-.33-.02Z"></path><path class="cls-6" d="m477.98,46.36c-.04-.64-.08-1.01-.08-1.38,0-4.13-.03-8.26.02-12.39,0-.69.16-1.5.55-2.04,2.18-3.05,4.23-6.23,6.76-8.96,2.16-2.32,4.83-4.21,7.43-6.06,1.81-1.28,4.11-1.1,6.24-1.1,7,0,14,.06,21,.16,2.98.04,5.98,0,8.92.42,3.45.49,6.51,2.01,8.67,4.9.9,1.2,2.21,1.4,3.47,1.77,1.19.35,2.41.6,3.66.91,0,0,.02-.18,0-.34-1.42-9,5.24-19.43,14.16-21.42,5.95-1.33,12.71.31,16.81,7.16,3.88,6.5,4.74,13.24,2.29,20.23-1.78,5.1-5.38,8.67-10.92,9.82-2.51.52-4.94-.22-7.38-.61-.53-.08-1.04-.23-1.31-.29-2.36,3.01-4.62,5.93-6.93,8.8-.47.58-.6,1.02-.33,1.73,1.66,4.49,1.92,9.26,2.62,13.94.27,1.81.26,3.66.38,5.48.02.37.07.74.12,1.29,1.63-.99,3.16-1.83,4.6-2.8,3.99-2.7,7.95-5.45,11.91-8.18.44-.3.85-.65,1.28-.97,1.51-1.09,2.68-2.12,2.26-4.43-.39-2.09.1-2.43,2.23-3,1.77-.47,3.58-.77,5.37-1.16,1.5-.33,2.76.22,3.51,1.39,1.23,1.92,2.29,3.95,3.31,5.99.62,1.23.31,2.46-.71,3.34-1,.87-2.09,1.68-3.25,2.33-1.59.89-3.27,1.61-4.91,2.41-.2.1-.4.23-.57.37-5.2,4.34-10.43,8.65-15,13.66-1.67,1.83-2.99,3.98-4.69,5.78-1.89,2.02-4.09,3.82-7.01,4.01-2.93.19-5.6-.36-7.25-3.28-1.84-3.26-3.97-6.36-5.71-9.67-.93-1.76-1.29-3.82-1.91-5.74-.09-.28-.15-.58-.31-1.2-4.43,6.76-10.58,11.56-16.13,17.14,2.45,1.34,4.74,2.71,7.12,3.89,7.17,3.55,14.25,7.28,20.77,11.92,2.59,1.85,4.91,4.14,7.11,6.46,1.77,1.87,2.31,4.25,1.43,6.83-.37,1.08-.48,2.25-.9,3.31-.98,2.44-2.98,4.1-4.99,5.58-3.17,2.33-6.5,4.44-9.83,6.54-5.99,3.79-11.69,7.96-17.17,12.46-3.55,2.91-7.05,5.88-10.65,8.72-3.42,2.69-4.39,6.19-3.43,10.23,1.02,4.31,2.31,8.55,3.46,12.83.42,1.58.88,3.17,1.12,4.79.3,2.09-.35,3.92-2.27,4.99-1.92,1.08-3.83.56-5.29-.85-1.64-1.58-3.04-3.41-4.46-5.2-2.73-3.45-5.39-6.95-8.1-10.41-.53-.68-.6-1.3-.3-2.11,2.54-7.05,5.03-14.12,7.59-21.17.27-.75.83-1.43,1.36-2.06,2.39-2.88,4.81-5.74,7.24-8.57,4.03-4.69,7.98-9.48,12.2-14,1.75-1.87,4.11-3.16,6.19-4.72.21-.16.42-.32.82-.62-.67,0-1.14.03-1.59,0-5.41-.37-10.84-.64-16.24-1.16-5.94-.58-11.85-1.42-17.78-2.07-.46-.05-1.08.31-1.44.67-2.66,2.69-5.21,5.5-7.92,8.13-1.58,1.54-3.38,2.87-5.14,4.21-.51.39-1.24.48-2.05.77-.04-.62-.1-1.02-.1-1.42,0-13.12-.02-26.24.03-39.36,0-.94.32-1.96.74-2.82,3.24-6.63,8.55-11.69,13.25-17.2,1.19-1.39,2.19-2.95,3.4-4.32,2.77-3.16,5.64-6.22,8.43-9.37,1.64-1.86,3.15-3.84,4.8-5.7,3.32-3.74,6.58-7.57,10.66-10.54.15-.11.34-.18.51-.27-.04-.14-.08-.27-.13-.41-1.63-.21-3.26-.47-4.9-.61-4.54-.37-9.05-.96-13.47-2.11-1.81-.47-3.68-.72-5.54-.95-.42-.05-1.02.24-1.34.57-.99,1-1.85,2.14-2.83,3.16-4.26,4.44-8.54,8.86-12.81,13.29-.15.16-.33.3-.73.65Z"></path><path class="cls-4" d="m396,26.18c.09,2.69.21,5.24.25,7.79.16,10.34-1.65,20.48-3,30.67-.13.95-.3,1.89-.37,2.84-.06.79-.42,1.04-1.17,1.04-11.52.05-23.04.12-34.56.21-.98,0-1.02-.44-.91-1.22.92-6.63,1.82-13.26,2.72-19.9.05-.36.07-.73.11-1.18-.45-.03-.78-.08-1.12-.08-3.6,0-7.2.02-10.79-.02-.86,0-1.2.24-1.32,1.12-2.77,20.58-5.6,41.16-8.34,61.75-.7,5.27-1.17,10.56-1.66,15.85-.17,1.84-.04,1.85,1.75,1.85,2.87,0,5.74-.03,8.61.01.89.01,1.34-.3,1.49-1.18.93-5.39,1.97-10.75,2.82-16.15.78-4.95,1.4-9.92,2.04-14.89.11-.89.42-1.23,1.36-1.24,11.41-.05,22.81-.13,34.22-.23.87,0,1.24.15,1.11,1.15-1.29,9.52-2.6,19.03-5,28.35-1.08,4.19-2.36,8.31-4.37,12.18-.71,1.38-1.64,2.3-3.21,2.64-1.11.24-2.18.72-3.21,1.21-1.73.82-2.6,2.69-2.19,4.97.21,1.16-.13,1.81-1,2.5-3.29,2.65-6.75,5.04-10.61,6.78-.84.38-1.83.63-2.75.63-13.17.04-26.34.04-39.5,0-.77,0-1.61-.2-2.3-.55-8.61-4.38-13.51-11.36-14.55-20.99-.98-9.12-.24-18.2.95-27.23,2.27-17.33,4.62-34.65,7.09-51.95.94-6.62,2.21-13.2,3.53-19.76.45-2.22,1.47-4.33,2.32-6.45.12-.29.78-.51,1.19-.51,5.59-.04,11.18-.04,16.77-.04,20.67,0,41.34.01,62.01.02.46,0,.91,0,1.61,0Z"></path><path class="cls-5" d="m221.52,26.22c0,2.35.16,4.61-.03,6.84-.43,4.99-1.05,9.96-1.55,14.94-.09.94-.43,1.32-1.43,1.32-10.53.02-21.05.08-31.58.16-1.02,0-1.22-.35-1.08-1.3.64-4.27,1.23-8.55,1.82-12.83.2-1.44.17-1.48-1.33-1.49-3.2-.03-6.4-.01-9.61-.05-.74,0-1.08.24-1.24,1-.81,3.85-1.06,7.72-.64,11.63.26,2.41,1.1,4.62,2.91,6.2,2.87,2.52,5.83,4.95,8.91,7.2,6.46,4.73,12.74,9.65,18.47,15.27,6.11,5.99,9.19,13.18,9.55,21.69.34,8.07-.33,16.06-1.79,23.98-.82,4.46-1.93,8.9-3.24,13.24-2.32,7.66-7.45,13.09-14.22,17.19-2.87,1.74-5.77,2.56-9.19,2.52-13.32-.16-26.64-.07-39.96-.05-1.2,0-2.22-.3-3.23-.93-6.42-4.02-10.76-9.44-11.83-17.15-.66-4.76-.76-9.55-.29-14.31.62-6.35,1.47-12.68,2.21-19.03.09-.82.41-1.2,1.3-1.21,10.56-.03,21.13-.08,31.69-.17,1.18,0,1.19.54,1.07,1.43-.93,6.78-1.84,13.57-2.72,20.36-.14,1.06-.13,2.14-.21,3.2-.06.73.2,1.03.97,1.03,3.52-.03,7.04-.02,10.56,0,.7,0,1.05-.27,1.23-.92,1.74-6.38,2.4-12.84,1.54-19.42-.25-1.96-1.09-3.71-2.54-5.03-3.9-3.55-7.83-7.07-11.84-10.5-4.94-4.22-10-8.32-14.98-12.5-6.33-5.31-8.95-12.45-9.68-20.39-.72-7.81.27-15.5,2.12-23.09.64-2.64,1.35-5.25,2.01-7.88.18-.71.48-1.04,1.32-1.04,25.26.03,50.52.03,75.78.03.23,0,.46.02.73.04Z"></path><path class="cls-8" d="m474.84,127.33c-1.37-2.48-3.28-3.71-5.76-3.9-1-.08-2.09.05-3.02.4-3.73,1.41-5.91,4.08-6.24,8.14-.27,3.24-.8,6.48-.78,9.71.05,10.82.3,21.63.48,32.44.02.98.12,1.97.19,3.2-1.87,0-3.65,0-5.44,0-11.14,0-22.28-.02-33.41-.03-1.47,0-1.47,0-1.33-1.5.13-1.41.32-2.82.38-4.23.04-.92.42-1.14,1.27-1.13,5.89.03,11.79.01,17.68.01.42,0,.83,0,1.36,0v-3.24h-19.85c.22-2.21.38-4.25.62-6.29.29-2.42.32-2.41,2.74-2.41,5.05,0,10.1,0,15.16,0h1.42c0-1.57,0-3.05,0-4.52-.02-5.47-.07-10.93-.04-16.4,0-.35.45-.82.81-1.04,1.39-.86,2.97-1.47,4.24-2.48,4.22-3.36,5.07-8.31,2.22-12.89-2.03-3.27-5-5.39-8.9-5.51-2.13-.07-4.32.5-6.41,1.07-1.98.53-3.87,1.43-5.79,2.18-6.45,2.51-12.88,5.06-19.34,7.51-5.83,2.21-11.69,4.33-17.54,6.48-.38.14-.77.23-1.46.44,9.32-35.9,18.56-71.51,27.8-107.11h58.94v101.1Zm-32.58-77.85l-.28-.02c-.07.21-.14.42-.2.63-2.26,8.97-4.57,17.92-6.75,26.91-1.72,7.09-3.25,14.23-4.9,21.34-.23,1,.05,1.28,1.04,1.26,2.71-.07,5.43-.05,8.15-.08,2.9-.03,2.91-.03,2.91-2.94.01-15.25.02-30.5.02-45.76,0-.45,0-.9,0-1.35Z"></path><path class="cls-7" d="m307.64,26.26c-.19,1.94-.34,3.84-.56,5.72-.55,4.6-1.15,9.18-1.67,13.78-.1.92-.45,1.22-1.37,1.21-6.39-.03-12.78.02-19.18-.03-1.12,0-1.48.32-1.64,1.45-2.53,18.8-5.11,37.6-7.67,56.4-2.16,15.88-4.33,31.76-6.45,47.64-.13.99-.47,1.26-1.43,1.25-11.37-.03-22.74-.02-34.11-.02-.37,0-.74-.05-1.28-.09,4.83-35.52,9.65-70.93,14.5-106.54-.94-.04-1.77-.11-2.59-.11-5.82.02-11.64.04-17.45.09-.88,0-1.15-.29-1.02-1.15.49-3.44.98-6.89,1.4-10.34.38-3.07.68-6.14,1.02-9.28h79.49Z"></path></g><path class="cls-3" d="m400.89,144.9c-.42,2.42-.88,4.7-1.21,7-.7,4.8-1.36,9.6-1.96,14.41-.11.89-.55.92-1.22.92-4.55,0-9.11.05-13.66.05-109.51,0-219.02,0-328.53,0-17.15,0-34.29-.05-51.44-.08-.41,0-.82,0-1.33,0,.42-2.75.79-5.35,1.24-7.94.05-.29.54-.58.89-.73.3-.12.68-.03,1.02-.03,15.2,0,30.39,0,45.59,0,109.97-.02,219.94-.05,329.9-.05,1.04,0,1.54-.11,1.79-1.35.58-2.86,1.44-5.67,2.26-8.48.12-.42.58-.97.96-1.04,5.03-.94,10.08-1.8,15.13-2.68.14-.02.29,0,.57,0Z"></path><path class="cls-3" d="m0,177.2c.34-2.21.64-4.24.99-6.26.03-.19.39-.4.64-.47.28-.08.61-.03.91-.03,32.84-.03,65.68-.07,98.52-.07,91.9,0,183.8,0,275.71,0,6.39,0,12.78.06,19.17.03,1.06,0,1.5.17,1.34,1.38-.2,1.55-.2,3.13-.22,4.69-.01.65-.27.89-.89.88-1.53-.02-3.06-.03-4.59-.01-1.68.02-3.36.12-5.04.12-18.37,0-36.75,0-55.12,0-92.74-.05-185.49-.09-278.23-.15-17.26-.01-34.52-.07-51.78-.1-.41,0-.82,0-1.41,0Z"></path><path class="cls-2" d="m405,141.23c-1.86.21-3.65.32-5.4.63-3.26.57-6.48,1.37-9.75,1.86-4.07.62-8.18,1.04-12.27,1.53-.49.06-1,.07-1.49.04-1.11-.08-1.72-.78-1.89-2.06-.13-1,.19-1.63,1.22-1.99,8.16-2.92,16.31-5.87,24.46-8.82,4.59-1.67,9.17-3.36,13.75-5.06,3.61-1.34,7.23-2.68,10.82-4.1,3.05-1.21,6.01-2.66,9.1-3.75,1.95-.69,4.04-1.22,6.16-.79,4.27.85,7.36,5.54,6.18,9.36-.5,1.62-1.52,2.9-2.88,3.9-2.66,1.97-5.75,2.86-8.96,3.25-3.45.42-6.93.63-10.4.88-1.14.08-2.02.5-2.42,1.58-.38,1.03-.79,2.08-.93,3.16-.74,5.68-1.52,11.35-2.07,17.05-1.26,13.07-2.4,26.15-3.58,39.22-.13,1.44-.14,2.9-.33,4.34-.14,1.01-.37,2.04-.77,2.97-1.17,2.75-3.82,3.7-6.43,2.24-3.32-1.86-5.19-4.77-5.72-8.52-1.16-8.16-1.58-16.37-1.1-24.58.38-6.49,1.21-12.96,2.11-19.41.58-4.14,1.67-8.22,2.52-12.32.03-.14.03-.28.06-.6Z"></path><path class="cls-2" d="m462.14,165.84c0-4.07.02-7.21,0-10.34-.03-4.51-.28-9.03-.09-13.53.15-3.56-.2-7.18.85-10.69.7-2.35,2.22-3.89,4.42-4.78,1.95-.79,3.76.01,4.83,1.82.78,1.31.96,2.69,1.07,4.16.3,4.07.75,8.13,1,12.21.3,4.88.47,9.76.67,14.64.18,4.5.28,9.01.49,13.51.06,1.25.36,2.49.6,3.72.06.29.32.72.53.75.26.04.69-.21.84-.46.52-.92,1.1-1.85,1.4-2.85,4.24-13.87,8.73-27.66,14.2-41.11,1.55-3.82,3.15-7.6,5.55-11,1.45-2.05,3.03-3.93,5.37-5.05.95-.45,1.86-.47,2.7.09.88.58,1.01,1.47.69,2.45-.85,2.61-1.63,5.24-2.55,7.82-6.1,17.05-12.22,34.1-18.36,51.13-1.79,4.96-3.64,9.9-5.58,14.81-.95,2.41-2.07,4.77-3.32,7.05-1,1.82-2.54,3.14-4.73,3.46-2.39.35-4.52-.77-5.51-2.98-1.98-4.44-2.75-9.21-3.28-13.96-.81-7.25-1.25-14.53-1.77-20.89Z"></path><path class="cls-2" d="m230.47,10.73c.29-2.28.59-4.47.84-6.67.11-.94.77-.78,1.36-.78,7.27-.02,14.54-.02,21.81-.07,18.29-.13,36.57-.28,54.86-.42.48,0,.96,0,1.6,0-.42,2.75-.8,5.31-1.2,7.94h-79.26Z"></path><path class="cls-2" d="m474.87,1.88v8.93h-54.85c.65-2.83,1.25-5.53,1.9-8.22.05-.22.39-.43.64-.53.23-.09.53-.04.8-.04,16.76-.05,33.51-.1,50.27-.14.38,0,.76,0,1.24,0Z"></path><path class="cls-2" d="m389.25,10.72h-62.82l-.16-.29c1.91-1.35,3.73-2.86,5.77-3.99,2.76-1.54,5.67-2.81,8.55-4.13.64-.29,1.4-.42,2.11-.42,10.86-.02,21.72,0,32.59.02.53,0,1.08.07,1.57.25,4.71,1.73,8.8,4.4,12.17,8.15.07.08.11.19.23.41Z"></path><path class="cls-2" d="m216.31,10.76h-62.05c.3-.33.46-.56.66-.72,4.66-3.66,9.8-6.37,15.56-7.81,1.02-.26,2.12-.3,3.19-.31,7.46-.03,14.92.08,22.38-.05,3.6-.07,6.97.52,10.24,2,3.41,1.54,6.59,3.4,9.32,5.98.19.18.38.37.57.57.05.05.05.13.12.35Z"></path><path class="cls-2" d="m309.25,14.27c-.35,2.68-.67,5.22-1.05,7.75-.04.27-.49.55-.81.67-.3.11-.68.03-1.02.03-25.37,0-50.74,0-76.11,0-.45,0-.89,0-1.52,0,.42-2.91.82-5.66,1.22-8.45h79.29Z"></path><path class="cls-2" d="m316.65,22.66h78.79c-.57-2.7-1.5-5.14-2.76-7.48-.37-.7-.79-.96-1.6-.95-3.1.05-6.2.02-9.3.02-19.4,0-38.81,0-58.21.02-.52,0-1.24.13-1.51.48-1.95,2.49-3.81,5.05-5.69,7.58.09.11.19.22.28.32Z"></path><path class="cls-2" d="m219.61,15.1c-.3-.65-.66-.87-1.38-.87-22.27.02-44.54.01-66.81.05-.51,0-1.2.33-1.51.74-1.12,1.49-2.18,3.05-3.15,4.65-.55.91-.89,1.95-1.35,3.01h75.92c0-2.7-.61-5.18-1.72-7.57Z"></path><path class="cls-2" d="m473.69,14.24c-17.79,0-35.58,0-53.37,0-.15,0-.34-.05-.45.01-.29.16-.72.34-.79.59-.71,2.57-1.35,5.16-2.03,7.79h57.77v-8.39c-.45,0-.79,0-1.13,0Z"></path><path class="cls-2" d="m71.31,22.72v-8.44H22.91c-.35,2.81-.7,5.57-1.06,8.44h49.47Z"></path><path class="cls-2" d="m86.15,22.73c15.5,0,30.99,0,46.49,0,.27,0,.56.07.8-.02.27-.1.67-.32.71-.53.39-2.59.73-5.2,1.08-7.85h-48.43c-.69,2.8-1.37,5.53-2.09,8.4.61,0,1.03,0,1.44,0Z"></path><path class="cls-2" d="m136.66,3.88c-.3,2.23-.55,4.27-.87,6.3-.04.23-.4.46-.66.59-.18.09-.45.02-.68.02-15.15,0-30.3,0-45.45,0-.34,0-.68,0-1.22,0,.33-1.4.6-2.69.94-3.95.83-3.16.05-2.63,3.37-2.66,14.35-.12,28.69-.2,43.04-.29.45,0,.9,0,1.54,0Z"></path><path class="cls-2" d="m71.32,10.74H23.53c.25-1.93.45-3.81.78-5.66.04-.23.76-.48,1.17-.49,5.2-.08,10.41-.13,15.61-.15,9.64-.05,19.28-.06,28.93-.13.99,0,1.36.22,1.31,1.27-.08,1.67-.02,3.36-.02,5.17Z"></path></svg>