<?xml version="1.0" encoding="UTF-8"?><svg xmlns="http://www.w3.org/2000/svg" xmlns:xlink="http://www.w3.org/1999/xlink" viewBox="0 0 742.62 658.45"><defs><style>.f{fill:url(#e);}.g{fill:url(#d);}.h{fill:url(#c);}.i{fill:#191919;stroke:#000;stroke-miterlimit:10;stroke-width:1.37px;}.j{fill:#fff;}</style><linearGradient id="c" x1="213.91" y1="353.97" x2="213.91" y2="123.11" gradientUnits="userSpaceOnUse"><stop offset="0" stop-color="#64baf0"/><stop offset=".21" stop-color="#4eb0ed"/><stop offset=".5" stop-color="#35a4eb"/><stop offset=".77" stop-color="#279ee9"/><stop offset="1" stop-color="#229ce9"/></linearGradient><linearGradient id="d" x1="371.19" y1="353.46" x2="371.19" xlink:href="#c"/><linearGradient id="e" x1="528.71" x2="528.71" xlink:href="#c"/></defs><g id="a"><rect class="i" x=".69" y=".69" width="741.25" height="657.08" rx="70.31" ry="70.31"/></g><g id="b"><polygon class="h" points="294.21 123.62 273.15 353.97 224.78 353.97 240.12 186.26 182.07 186.28 182.07 353.97 133.71 353.97 133.71 186.3 133.61 186.3 133.61 123.11 294.21 123.62"/><polygon class="g" points="393.4 185.75 408.73 353.46 457.09 353.46 436.03 123.11 387.67 123.11 354.71 123.11 306.35 123.11 285.29 353.46 333.65 353.46 336.39 323.52 389.81 323.52 385.23 272.68 341.04 272.68 348.98 185.77 393.4 185.75"/><polygon class="f" points="609.01 123.11 448.42 123.62 469.48 353.97 517.84 353.97 502.51 186.26 560.55 186.28 560.55 353.97 608.91 353.97 608.91 186.3 609.01 186.3 609.01 123.11"/><polygon class="j" points="609.31 365.26 565 365.26 550.81 365.26 529.17 365.26 516.63 365.26 469.35 364.99 464.77 415.82 516.63 416.09 516.63 534.32 565 534.32 565 416.09 609.31 416.09 609.31 365.26"/><polygon class="j" points="456.93 364.71 333.91 365.26 285.54 365.26 301.08 535.15 301.08 535.15 349.44 535.15 398.26 535.15 398.25 535.09 441.26 535.09 445.84 484.25 382.76 484.25 382.76 484.32 344.79 484.32 343.16 466.48 417.37 466.48 420.59 430.55 339.88 430.55 338.55 416.09 452.35 415.54 456.93 364.71"/><path class="j" d="M289.41,521.32l-5.99-65.51c-.68-3.18-3.37-12.66-11.01-11.81-.97.11,8.98-1.39,8.6-14.49l-4.88-53.35c-.57-6.22-4.6-10.9-9.4-10.9h-133.43v170.09l47.75-.25h61.24v.06h37.71c5.67,0,10.07-6.47,9.4-13.83ZM181.67,416.09h46.45c1.89,0,3.47,1.84,3.7,4.29l.43,4.73c.26,2.9-1.47,5.44-3.7,5.44h-46.88v-14.46ZM233.46,484.25h-51.79v-17.77h51.06c1.89,0,3.47,1.84,3.7,4.29l.74,8.04c.26,2.9-1.47,5.44-3.7,5.44Z"/></g></svg>