<?xml version="1.0" encoding="UTF-8"?><svg id="a" xmlns="http://www.w3.org/2000/svg" xmlns:xlink="http://www.w3.org/1999/xlink" viewBox="0 0 553.2 553.2"><defs><style>.e{fill:url(#d);}.f{fill:url(#c);}.g{fill:url(#b);}.h{fill:#fff;}</style><linearGradient id="b" x1="116.6" y1="301.34" x2="116.6" y2="70.48" gradientUnits="userSpaceOnUse"><stop offset="0" stop-color="#64baf0"/><stop offset=".21" stop-color="#4eb0ed"/><stop offset=".5" stop-color="#35a4eb"/><stop offset=".77" stop-color="#279ee9"/><stop offset="1" stop-color="#229ce9"/></linearGradient><linearGradient id="c" x1="273.88" y1="300.83" x2="273.88" xlink:href="#b"/><linearGradient id="d" x1="431.4" x2="431.4" xlink:href="#b"/></defs><polygon class="g" points="196.9 70.99 175.84 301.34 127.47 301.34 142.81 133.63 84.76 133.66 84.76 301.34 36.4 301.34 36.4 133.68 36.3 133.68 36.3 70.48 196.9 70.99"/><polygon class="f" points="296.09 133.12 311.42 300.83 359.78 300.83 338.72 70.48 290.36 70.48 257.4 70.48 209.04 70.48 187.98 300.83 236.34 300.83 239.08 270.89 292.5 270.89 287.92 220.06 243.73 220.06 251.67 133.15 296.09 133.12"/><polygon class="e" points="511.7 70.48 351.11 70.99 372.17 301.34 420.53 301.34 405.2 133.63 463.24 133.66 463.24 301.34 511.6 301.34 511.6 133.68 511.7 133.68 511.7 70.48"/><polygon class="h" points="512 312.63 467.69 312.63 453.5 312.63 431.86 312.63 419.32 312.63 372.04 312.36 367.46 363.2 419.32 363.46 419.32 481.69 467.69 481.69 467.69 363.46 512 363.46 512 312.63"/><polygon class="h" points="359.62 312.08 236.6 312.63 188.23 312.63 203.77 482.52 203.77 482.52 252.13 482.52 300.95 482.52 300.94 482.46 343.95 482.46 348.53 431.62 285.45 431.62 285.45 431.69 247.48 431.69 245.85 413.85 320.06 413.85 323.28 377.92 242.57 377.92 241.24 363.46 355.04 362.91 359.62 312.08"/><path class="h" d="M192.1,468.69l-5.99-65.51c-.68-3.18-3.37-12.66-11.01-11.81-.97.11,8.98-1.39,8.6-14.49l-4.88-53.35c-.57-6.22-4.6-10.9-9.4-10.9H36v170.09l47.75-.25h61.24v.06h37.71c5.67,0,10.07-6.47,9.4-13.83ZM84.36,363.46h46.45c1.89,0,3.47,1.84,3.7,4.29l.43,4.73c.26,2.9-1.47,5.44-3.7,5.44h-46.88v-14.46ZM136.15,431.62h-51.79v-17.77h51.06c1.89,0,3.47,1.84,3.7,4.29l.74,8.04c.26,2.9-1.47,5.44-3.7,5.44Z"/></svg>