<?xml version="1.0" encoding="UTF-8"?><svg xmlns="http://www.w3.org/2000/svg" xmlns:xlink="http://www.w3.org/1999/xlink" viewBox="0 0 586.3 558.55"><defs><style>.f{fill:url(#e);}.g{fill:url(#d);}.h{fill:url(#c);}.i{fill:#191919;stroke:#000;stroke-miterlimit:10;stroke-width:1.06px;}.j{fill:#fff;}</style><linearGradient id="c" x1="129.36" y1="318.88" x2="129.36" y2="88.03" gradientUnits="userSpaceOnUse"><stop offset="0" stop-color="#64baf0"/><stop offset=".21" stop-color="#4eb0ed"/><stop offset=".5" stop-color="#35a4eb"/><stop offset=".77" stop-color="#279ee9"/><stop offset="1" stop-color="#229ce9"/></linearGradient><linearGradient id="d" x1="286.64" y1="318.37" x2="286.64" xlink:href="#c"/><linearGradient id="e" x1="444.17" x2="444.17" xlink:href="#c"/></defs><g id="a"><rect class="i" x=".53" y="40.41" width="572.47" height="507.47" rx="44.66" ry="44.66"/></g><g id="b"><polygon class="h" points="209.66 88.54 188.6 318.88 140.24 318.88 155.57 151.17 97.53 151.2 97.53 318.88 49.16 318.88 49.16 151.22 49.07 151.22 49.07 88.03 209.66 88.54"/><polygon class="g" points="308.85 150.66 324.18 318.37 372.55 318.37 351.49 88.03 303.12 88.03 270.16 88.03 221.8 88.03 200.74 318.37 249.1 318.37 251.84 288.43 305.27 288.43 300.68 237.6 256.49 237.6 264.43 150.69 308.85 150.66"/><polygon class="f" points="524.46 88.03 363.87 88.54 384.93 318.88 433.29 318.88 417.96 151.17 476 151.2 476 318.88 524.37 318.88 524.37 151.22 524.46 151.22 524.46 88.03"/><polygon class="j" points="524.77 330.17 480.45 330.17 466.26 330.17 444.62 330.17 432.09 330.17 384.81 329.9 380.22 380.74 432.09 381 432.09 499.24 480.45 499.24 480.45 381 524.77 381 524.77 330.17"/><polygon class="j" points="372.38 329.62 249.36 330.17 201 330.17 216.53 500.06 216.54 500.06 264.89 500.06 313.71 500.06 313.71 500 356.71 500 361.3 449.17 298.21 449.17 298.21 449.23 260.24 449.23 258.61 431.39 332.82 431.39 336.04 395.47 255.33 395.47 254.01 381 367.8 380.46 372.38 329.62"/><path class="j" d="M204.87,486.23l-5.99-65.51c-.68-3.18-3.37-12.66-11.01-11.81-.97.11,8.98-1.39,8.6-14.49l-4.88-53.35c-.57-6.22-4.6-10.9-9.4-10.9H48.76v170.09l47.75-.25h61.24v.06h37.71c5.67,0,10.07-6.47,9.4-13.83ZM97.13,381h46.45c1.89,0,3.47,1.84,3.7,4.29l.43,4.73c.26,2.9-1.47,5.44-3.7,5.44h-46.88v-14.46ZM148.92,449.17h-51.79v-17.77h51.06c1.89,0,3.47,1.84,3.7,4.29l.74,8.04c.26,2.9-1.47,5.44-3.7,5.44Z"/></g></svg>