<?xml version="1.0" encoding="UTF-8"?>
<svg id="Layer_1" data-name="Layer 1" xmlns="http://www.w3.org/2000/svg" viewBox="0 0 612 182.12">
  <defs>
    <style>
      .cls-1 {
        fill: #103840;
      }

      .cls-2 {
        fill: #fefefe;
      }

      .cls-3 {
        fill: #18343d;
      }
    </style>
  </defs>
  <path class="cls-3" d="M178.08,15.78c10.62-.74,36.95-1.36,46.53,1.28,3.31.91,3.76,2.17,4.36,5.34.64,3.39,1.58,11.97.88,15.08-.86,3.84-9.34,2.72-12.63,2.66-7.77-.15-18.85-2.14-26.2.11-3.69,1.13-6.33,5.06-6.41,8.86-.11,5.54,2.59,5.69,7.2,6.24,8.72,1.02,17.46.63,26.12,2.54,7.24,1.6,10.3,3.42,11.5,11.14,1.77,11.37,1.96,27.16,1.46,38.75-.13,2.94-.36,8.7-1.15,11.32-1.01,3.34-3.8,3.92-6.94,4.15-16.68,1.24-37.78,0-54.58-.94-2.67-.15-9.57.68-11.07-1.88s.32-12.83.66-16.37c.48-4.92-.81-10.32,6.66-10.34,4.66-.01,10.87,1.94,15.77,2.26,3.67.24,21.11.46,23.32-1.18s1.57-8.33.58-10.68c-2.54-5.98-14.7-5.19-20.19-5.69-4.63-.42-14.88-.57-18.58-2.22-2.93-1.31-4.64-4.19-5.2-7.27-1.95-10.76-1.51-27.95-1.4-39.23.02-2.3-.59-4.05.19-6.69,1.8-6.05,13.77-6.86,19.11-7.24Z"/>
  <path class="cls-3" d="M330.15,43c4.73-.6,19.9,2.09,24.26,4.16,3.36,1.6,5.57,5.5,7.98,8.19,2.11,2.36,4.64,3.44,5.88,6.6,1.98,5.03.28,13.41.84,19.02.42,4.21,2.48,6.54,1.86,11.56-.28,2.29-9.24,19.33-11.03,22.23-7.08,11.51-19.28,10.99-31.28,11.24-10.22.21-15.28-.92-24.39-5.67-4.65-2.43-4.43-7.15-6.58-11.43-.77-1.52-3.15-4.35-3.38-5.39-.46-2.03-.73-13.1-.58-15.62.38-6.34,5.51-23.04,9.27-28.14.96-1.29,10.4-11.6,11.11-11.99,1.16-.63,14.43-4.56,16.04-4.76ZM331.06,74.83c-4.75,1.01-4.85,15.68-.1,15.66,3.95-.02,4.77-5.93,4.28-8.94-.1-.62-1.76-6.09-1.96-6.35-.51-.69-1.49-.52-2.22-.36Z"/>
  <path class="cls-3" d="M398.22,117.46c-.18,1.87-.52,4.72-2.64,5.21s-12.53.33-14.15-.79c-.65-.45-1.14-3.05-1.23-3.96-2.11-19.84-2.58-42.23-3.26-62.31-.12-3.42-.77-6.63,2.67-8.45,2.93-1.55,9.83-2.95,12.45-.41,2.03,1.97,4.02,11.51,5.23,14.86.83,2.3,1.85,4.62,2.85,6.85s7.57,15.88,8.46,16.48c.56.38.94.55,1.64.43-.07-2.06.12-4.16,0-6.23-.48-8.29-2.46-17.19-2.76-25.4-.25-6.75,1.39-8.17,8.09-8.53,13.53-.73,9.98,6.32,10.38,16.41.59,15.02,1.62,30.18,1.89,45.21.04,2.48.37,12.98-.45,14.36-.31.52-1.04,1.01-1.66,1.12-2.01.36-7.26.7-9.24.47-5.52-.64-6.09-6-8.47-10.01-2.62-4.41-6.13-9.07-9.79-12.62-.4,5.56.54,11.84,0,17.32Z"/>
  <path class="cls-3" d="M23.53,123.23c-.47-.13-1.03-1.08-1.14-1.63-.56-2.72-.83-7.68-.96-10.58-.76-16.81-.18-34.4-.42-51.29-.14-9.73-.98-19.8-.99-29.53,0-4.6,1.2-10.73,5.88-12.64,5.72-2.32,27.88-2.51,34.63-1.92,6.34.55,9.87,4.45,12.13,10.05,4.66,11.57,5.43,25.62-.27,36.92-3.22,6.39-8.95,8.75-5.57,16.93,1.41,3.42,4.01,7.03,5.56,10.61,2.85,6.59,4.88,14.01,6.17,21.08.34,1.86,1.87,10.05,1.38,11.08-.1.21-.85.93-.93.93h-8.78c-1.38,0-1.94-7.32-2.3-8.79-2.21-9.22-7.16-17.46-10.01-26.48-.8-1.64-2.8-3.77-4.55-4.23-2.96-.77-12.12-.2-15.46.28-2.93.43-3.94,2.13-4.38,4.86-1.74,10.84.26,22.48-.95,32.76-.05.47-.21,1.59-.72,1.59-1.88,0-6.97.38-8.32,0ZM35.65,27.75c-1.95.43-2.76,2.57-3.07,4.33-1.29,7.48-2.67,23.12-1.89,30.44.34,3.14,2.52,5.85,5.77,6.24,2.83.34,9.11.25,12.02-.02,11.28-1.04,15.02-9.63,16.37-19.67.82-6.12,2.29-20.17-6.23-21.38-6.88-.97-15.87.56-22.98.06Z"/>
  <path class="cls-3" d="M479.03,45.79c4.36-.12,8.16-1.68,8.82,3.84.68,5.6-.79,7.34-6.24,7.97-6.64.76-16.81.24-22.94,2.03-1.95.57-3.41,1.81-4.15,3.7s-1.54,10.88-1.17,12.92c.33,1.84.92,2.67,2.88,2.69,2.8.03,11.87-3.32,14.14-1.69.56,2.74,2.65,9.4,1.58,11.8-1.7,3.79-14.22.56-15.82,6.82-.97,3.78-1.43,9.71,3.38,10.71,6.7,1.38,17.24-.84,24.49-.45,1.6.09,6.16.28,6.59,1.73.48,1.63,1.17,8.8.91,10.41-.47,2.99-1.89,3.79-4.72,4.05-13.64,1.27-29.19-1-43.03,0-2.21.01-3.2-.86-3.45-3.01-.81-6.81-.04-15.9-.46-23.09-.84-14.3-3.5-28.68-4.15-42.95-.2-4.33-1.07-6.71,3.91-7.17,12.01-1.11,26.97.03,39.45-.31Z"/>
  <path class="cls-3" d="M258.61,123.23c-.51-5.14-.54-10.3-.48-15.49.14-11.39,1.6-24.18.47-35.53-.21-2.15-.87-4.39-3.46-4.39h-15.26c-.32,0-.62-.77-.69-1.15-.94-5.14.69-12.58.55-17.92.78-2.59,11-1.59,13.57-1.69,11.56-.45,23.08-.23,34.67-.46,3.79-.08,9.18-2.52,9.02,3.46-.06,2.1-1.68,13.79-2.57,14.99-3.14,4.23-15.92-2.7-16.89,8.53-1.19,13.86,1.2,29.53,0,43.41-.14,1.61-.82,6.24-3,6.24h-15.95Z"/>
  <path class="cls-3" d="M86.65,73.15c.17-5.76-.87-19.93,2.51-24.27.61-.78,1.63-1.67,2.55-2.07,2.24-.95,13.16-1.74,15.43-1.11,4.58,1.27,6.3,11.05,7.37,15.28,4.85,19.3,8.27,38.98,14.61,57.9,1.33,5.27-6.08,5.94-9.05,3.26-3.11-2.8-4.94-13.09-7.67-14.27-2.13-.92-3.38.06-5.21.11-2.2.06-7.31-.42-8.89,1.05-2.02,1.87-.57,12.31-3.38,13.94-1.67.97-7.86.79-8.56-1.56M109.75,94.14l-5.85-35.01c0-2.77-6.41-2.3-7.12-1.16s-.57,18.38-.44,21.18c.21,4.87,1.06,9.82,1.48,14.68l.35.57c3.85.79,7.72-.48,11.59-.27Z"/>
  <path class="cls-3" d="M508.62,74.88c3.79-.3,11.53-.65,15.09-.11,6.91,1.06,5.9,13.74,6.25,18.69.45,6.44,1.47,13.95,1.44,20.3,0,1.73-.61,6.3-1.85,7.42s-5.77,1.49-7.64,1.6c-4.79.29-13.43.5-18.05-.02s-5.05-3-5.34-7.14c-.55-8.06.19-16.47.5-24.47.15-3.67-.76-10.29.97-13.35,1.47-2.59,5.9-2.71,8.63-2.93ZM519.24,85.94c-1.57-1.57-8.56-1.05-9.94.47s-1.29,16.19-.98,18.99c.61,5.69,2.9,7.23,8.51,6.77,2.69-.22,4.04-.89,4.63-3.68.52-2.5-.02-8.5-.26-11.33-.16-1.89-1.04-10.3-1.95-11.21Z"/>
  <path class="cls-3" d="M567.79,99.78c.56.4.62,2.62.6,3.38-.1,3.96-.34,10.03-.96,13.84-1.18,7.21-4.91,4.97-10.85,5.32-6.86.4-20.38,2.86-21.5-7.16-.87-7.7.94-26.95,4.45-33.89,2.5-4.95,6.31-5.94,11.51-6.51,2.17-.24,8.18-.7,10.12-.42,4.96.71,5.17,8.68,2.56,10.32-3.84,2.42-12.36.51-15.17,5.63-1.08,1.97-2.65,12.09-2.83,14.72-.19,2.76-.21,4.91,2.84,5.92,2.04.68,11.28,2.17,10.05-1.7-.75-2.36-6.71-.03-7.28-2.47-.25-1.1.96-7.15,2.24-7.76,1.39-.66,13.04-.06,14.23.79Z"/>
  <path class="cls-3" d="M139.11,123.23c-4.44-.95-1.73-8.84-1.6-11.76.58-12.81-.97-26.64-.04-39.28.1-1.41.58-4.88,1.38-5.88,1.53-1.91,8.31-1.68,8.79.84.24,11.85.27,23.7.46,35.56.09,6.1,1.23,12.8.5,18.94-.05.47-.21,1.59-.72,1.59-2.28,0-6.89.4-8.78,0Z"/>
  <path class="cls-3" d="M572.05,122.3c.07-1.61-.34-7.14.92-8.08,1.4-1.06,10.07.27,12.71-.24s1.62-3.78-.25-4.8c-3.98-2.17-11.69,1.54-12.45-5.11-.24-2.13-.57-9.95-.38-11.88.27-2.63,1.82-3.39,4.29-3.61,3.86-.35,11.93-.38,15.75.02,3.85.41,2.27,3.94,2.48,6.88-2.89,1.4-11.29-.67-13.11,1.45-4.24,4.93,6.95,4.2,9.49,4.8,2.99.71,3.66,2.28,4.08,5.16.76,5.12.49,10.35-.41,15.42h-23.11Z"/>
  <path class="cls-1" d="M54.74,138.23c.52-1.72,8.59-1.16,10.42-1.18.98,0,1.88.49,2.76.48,2.89-.02,6.86-.56,9.85-.83.52-.05.9-.21,1.27.34.41.64-.38,7.99-.8,8.26-1.77,1.13-5.7-.8-6.84,2.17-1.66,4.35.17,15.04-.45,20.33-.05.47-.21,1.59-.72,1.59h-7.17l-.46-23.09h-7.86c.39-2.1-.54-6.3,0-8.08Z"/>
  <path class="cls-1" d="M445.85,157.85l.48-4.41c-.07-1.33-1-6.43-.43-7.09.29-.33,4.65-.97,5.3-.08-.11,2.84,1.58,22.44.59,23.05-.28.17-4.19.17-4.48,0-.34-.21-2.99-6.11-4-6.86-.64,4.94,1.45,8.59-5.58,6.5l-1.07-22.13c1.49-.3,3.34-1.63,4.59-.32,1.58,1.67,2.93,8.97,4.61,11.34Z"/>
  <path class="cls-1" d="M346.91,157.85l.48-4.41c-.07-1.33-1-6.43-.43-7.09.29-.33,4.65-.97,5.3-.08-.11,2.84,1.58,22.44.59,23.05-.28.17-4.19.17-4.48,0-.34-.21-2.99-6.11-4-6.86-.64,4.94,1.45,8.59-5.58,6.5l-1.07-22.13c1.49-.3,3.34-1.63,4.59-.32,1.58,1.67,2.93,8.97,4.61,11.34Z"/>
  <path class="cls-1" d="M297.67,151.39c-2.18.29-1.65,1.37-1.62,3.23,2.04-.02,7.98-.08,9,1.86,1.37,2.6.73,9.92.25,12.91h-15.02c-.99,0-1.14-5.42.22-6.24,1.2-.72,7.35.88,9.25.24,1.41-5.95-7.13-2.16-8.99-4.64-.88-1.17-1.11-10.47-.49-11.52,1.02-1.74,12.16-1.58,14.26-.85,1.18.41,1.69,5.01.53,5.01-2.23,0-5.31-.28-7.4,0Z"/>
  <path class="cls-1" d="M176.55,151.39c-2.18.29-1.65,1.37-1.62,3.23,2.04-.02,7.98-.08,9,1.86,1.37,2.6.73,9.92.25,12.91h-15.02c-.99,0-1.14-5.42.22-6.24,1.2-.72,7.35.88,9.25.24,1.41-5.95-7.13-2.16-8.99-4.64-.88-1.17-1.11-10.47-.49-11.52,1.02-1.74,12.16-1.58,14.26-.85,1.18.41,1.69,5.01.53,5.01-2.23,0-5.31-.28-7.4,0Z"/>
  <path class="cls-1" d="M474.27,151.39c-2.18.29-1.65,1.37-1.62,3.23,2.04-.02,7.98-.08,9,1.86,1.37,2.6.73,9.92.25,12.91h-15.02c-.99,0-1.14-5.42.22-6.24,1.2-.72,7.35.88,9.25.24,1.41-5.95-7.13-2.16-8.99-4.64-.88-1.17-1.11-10.47-.49-11.52,1.02-1.74,12.16-1.58,14.26-.85,1.18.41,1.69,5.01.53,5.01-2.23,0-5.31-.28-7.4,0Z"/>
  <path class="cls-1" d="M244.74,148.85c.04-.27.58-1.85.72-2.05.77-1.15,5.1-1.74,5.29.21l-2.65,21.36c-.43,1.5-4.21,1.37-4.99.58-.63-.64-.35-2.54-1.83-1.85-.76.35-.55,1.93-1.45,2.24s-4.39.33-4.73-.7c-.21-.63-.41-4.68-.52-5.94-.19-2.06-.41-4.87-.49-6.9-.06-1.63-.28-7.68.08-8.73.46-1.35,5.95-1.85,5.95.4v10.85c2.2-2.71,1.87-3.62,3.93,0,.13.06.69-1.08.69-1.15,0-2.44-.33-6.07,0-8.31Z"/>
  <path class="cls-1" d="M133.67,157.28c-.4.42-2.73.98-2.65,1.27,2.03,3.24,3.56,6.96,3.23,10.86-1.01-.21-3.96.33-4.56-.06-.36-.23-1.37-6.23-4-7.32-.94-.39-.66.64-.69,1.15-.26,3.67,2.62,6.76-3.02,6.26-.61-.05-1.46.12-1.86-.46-.92-1.36-.54-7.98-.65-9.97-.12-2.19-1.3-10.72-.03-12,1.11-1.12,5.42-.62,7.17-.69,1.91-.07,3.8-1.25,5.78.24,1.8,1.36,2.67,9.27,1.27,10.73ZM128.71,150.93c-3.55-.52-4.45.73-4.16,4.16,4.09.45,4.37-.12,4.16-4.16Z"/>
  <path class="cls-1" d="M536.79,157.28c-.4.42-2.73.98-2.65,1.27,2.03,3.24,3.56,6.96,3.23,10.86-1.01-.21-3.96.33-4.56-.06-.36-.23-1.37-6.23-4-7.32-.94-.39-.66.64-.69,1.15-.26,3.67,2.62,6.76-3.02,6.26-.61-.05-1.46.12-1.86-.46-.92-1.36-.54-7.98-.65-9.97-.12-2.19-1.3-10.72-.03-12,1.11-1.12,5.42-.62,7.17-.69,1.91-.07,3.8-1.25,5.78.24,1.8,1.36,2.67,9.27,1.27,10.73ZM531.83,150.93c-3.55-.52-4.45.73-4.16,4.16,4.09.45,4.37-.12,4.16-4.16Z"/>
  <path class="cls-1" d="M399.95,157.28c-.4.42-2.73.98-2.65,1.27,2.03,3.24,3.56,6.96,3.23,10.86-1.01-.21-3.96.33-4.56-.06-.36-.23-1.37-6.23-4-7.32-.94-.39-.66.64-.69,1.15-.26,3.67,2.62,6.76-3.02,6.26-.61-.05-1.46.12-1.86-.46-.92-1.36-.54-7.98-.65-9.97-.12-2.19-1.3-10.72-.03-12,1.11-1.12,5.42-.62,7.17-.69,1.91-.07,3.8-1.25,5.78.24,1.8,1.36,2.67,9.27,1.27,10.73ZM394.99,150.93c-3.55-.52-4.45.73-4.16,4.16,4.09.45,4.37-.12,4.16-4.16Z"/>
  <path class="cls-1" d="M519.24,168.83c-.78.78-12.6.89-13.76.34-.34-.16-.68-.64-.87-.98-.88-1.53-.67-11.38-.54-13.82.07-1.24.34-5.58.57-6.36.71-2.37,10.17-2.56,12.2-1.74,1.57.63,2.25,2.41,2.47,4,.53,3.91.95,10.32,1,14.27.01.98-.45,3.66-1.07,4.28ZM514.61,163.75c1.11-.96.43-9.36-.09-11-.67-2.12-4.9-2.02-5.33.27-.25,1.32-.19,8.31.19,9.48.64,1.95,3.94,2.36,5.23,1.25Z"/>
  <path class="cls-1" d="M381.93,168.83c-.78.78-12.6.89-13.76.34-.34-.16-.68-.64-.87-.98-.88-1.53-.67-11.38-.54-13.82.07-1.24.34-5.58.57-6.36.71-2.37,10.17-2.56,12.2-1.74,1.57.63,2.25,2.41,2.47,4,.53,3.91.95,10.32,1,14.27.01.98-.45,3.66-1.07,4.28ZM377.31,163.75c1.11-.96.43-9.36-.09-11-.67-2.12-4.9-2.02-5.33.27-.25,1.32-.19,8.31.19,9.48.64,1.95,3.94,2.36,5.23,1.25Z"/>
  <path class="cls-1" d="M82.01,146.55c.36-1.17,5.02-.25,5.35.2,1.3,1.81-2.86,11.72,3.15,8.29,2.91-1.66-.18-6.41,1.17-8.07.57-.7,5.19-1.42,5.52-.35-.78,2.84,1.45,21.44.8,22.35-.41.58-4.84.65-5.28.37-1.08-.68.65-8.25-1-10.09-.93.33-4.62,1.55-4.62,2.54v7.62c-.93-.06-5.09.37-5.09-.69v-22.16Z"/>
  <path class="cls-1" d="M426.89,165.48c-.07.61-.68,2.62-1.12,3.03-1.28,1.2-11.02,1.23-12.77.68s-2.16-2.08-2.31-3.7c-.32-3.48.49-11.28,1.64-14.57.69-1.97,1.39-3.56,3.59-4.26,1.2-.38,6.8-1.05,7.88-.73,1.82.56,2.23,4.68,1.16,5.37s-6.38.17-7.53,2.4c-.44.85-1.17,5.96-1.2,7.14-.12,4.03,3.08,2.85,6.05,3v-1.38s-3.7,0-3.7,0c-.57-7.19,3.32-4.43,8.32-4.62-.21,2.42.29,5.26,0,7.62Z"/>
  <path class="cls-1" d="M269.24,169.4c-6.43,1.06-4.24-1.5-6.42-4.33-.51-.66-4.38-.07-4.62.22-1.13,1.37,2.19,5.42-5.14,4.11.31-2.96.15-22.04,1.36-22.89,2.34.19,6.52-1.74,8.11.27l6.71,22.62ZM259.93,151.46c-.4-.24-1.25.01-1.78-.07.46,1.45-1.1,8.88.28,9.26,1.07.3,2.75.14,2.97-1.2.13-.8-1.12-7.79-1.47-8Z"/>
  <path class="cls-1" d="M214.23,169.4c-6.43,1.06-4.24-1.5-6.42-4.33-.51-.66-4.38-.07-4.62.22-1.13,1.37,2.19,5.42-5.14,4.11.31-2.96.15-22.04,1.36-22.89,2.34.19,6.52-1.74,8.11.27l6.71,22.62ZM204.92,151.46c-.4-.24-1.25.01-1.78-.07.46,1.45-1.1,8.88.28,9.26,1.07.3,2.75.14,2.97-1.2.13-.8-1.12-7.79-1.47-8Z"/>
  <path class="cls-1" d="M335.81,169.4c-6.43,1.06-4.24-1.5-6.42-4.33-.51-.66-4.38-.07-4.62.22-1.13,1.37,2.19,5.42-5.14,4.11.31-2.96.15-22.04,1.36-22.89,2.34.19,6.52-1.74,8.11.27l6.71,22.62ZM326.5,151.46c-.4-.24-1.25.01-1.78-.07.46,1.45-1.1,8.88.28,9.26,1.07.3,2.75.14,2.97-1.2.13-.8-1.12-7.79-1.47-8Z"/>
  <path class="cls-1" d="M116.68,164.32c.31.3,1.05,4.44-.79,4.99-1.02.3-12.04.34-13.31.09-.37-.07-.72-.09-.95-.43l-1.59-22.66c4.08-.1,8.19.13,12.27.02,1.12-.03,2.95-1.09,3.38.28.15.47.21,2.65.02,2.88-.78.92-7.3-.02-9.17,1.22-1.37.91-.88,3.82-.94,5.29,3.16-.05,5.38-2.22,5.57,2.08.14,3.3-3.5,1.18-4.45,2.5-.52.72-.06,2.76-.2,3.73,1.4.27,9.81-.36,10.17,0Z"/>
  <path class="cls-1" d="M153.21,164.32c.31.3,1.05,4.44-.79,4.99-1.02.3-12.04.34-13.31.09-.37-.07-.72-.09-.95-.43l-1.59-22.66c4.08-.1,8.19.13,12.27.02,1.12-.03,2.95-1.09,3.38.28.15.47.21,2.65.02,2.88-.78.92-7.3-.02-9.17,1.22-1.37.91-.88,3.82-.94,5.29,3.16-.05,5.38-2.22,5.57,2.08.14,3.3-3.5,1.18-4.45,2.5-.52.72-.06,2.76-.2,3.73,1.4.27,9.81-.36,10.17,0Z"/>
  <path class="cls-1" d="M281.26,146.31c1.69.33,5.62-.95,6.01,1.15.2,1.07.11,10.44-.2,10.88-.43.61-4.88.64-4.88.89v9.47c0,1.03-5.55,1.03-5.55,0v-9.47c-1.12-.5-4.85-.19-5.35-.89-.36-.51-.36-11.08,0-11.6.28-.4,2.68-.92,3.28-.91,4.49.07,1.54,5.38,2.76,7.86.86,1.75,3.93.68,3.93-.23v-7.16Z"/>
  <path class="cls-1" d="M549.86,146.31c1.69.33,5.62-.95,6.01,1.15.2,1.07.11,10.44-.2,10.88-.43.61-4.88.64-4.88.89v9.47c0,1.03-5.55,1.03-5.55,0v-9.47c-1.12-.5-4.85-.19-5.35-.89-.36-.51-.36-11.08,0-11.6.28-.4,2.68-.92,3.28-.91,4.49.07,1.54,5.38,2.76,7.86.86,1.75,3.93.68,3.93-.23v-7.16Z"/>
  <path class="cls-1" d="M496.34,152.89c-1.62,1.88.3,12.88-.64,15.75-.34,1.05-4.91,1.01-5.42.69-1.1-.7-.07-4.11-.05-5.23.05-2.02.36-9.22-.08-10.57-.47-1.43-4.64-.5-5.95-.75.36-1.74-.98-6.07,1.16-6.47,4.55-.84,10.9.93,15.66-.42,1.27.21.3,5.69.09,6-.62.92-3.87-.05-4.77,1.01Z"/>
  <path class="cls-1" d="M231.8,169.4h-14.79l-.39-22.79c.42-1.38,5.01-.03,5.01.85v15.7s.64.69.69.69h8.32c2.16,0,1.8,4.07,1.16,5.54Z"/>
  <path class="cls-1" d="M408.4,169.4h-5.55s.46-21.94.46-21.94c.31-1.61,4.39-2.52,4.63-.46l.46,22.4Z"/>
  <path class="cls-1" d="M434.75,169.4h-5.55s.46-21.94.46-21.94c.31-1.61,4.39-2.52,4.63-.46l.46,22.4Z"/>
  <path class="cls-3" d="M140.6,46.23c1.36-.25,5.62-.44,6.37.81.38.65.87,8.93.23,9.48-1.01.86-6.66.98-7.86.45-2.52-1.13-1.93-6.89-1.19-9.02.42-1.19,1.27-1.5,2.45-1.71Z"/>
  <path class="cls-1" d="M159.05,135.3c.79-.26,4.62-.25,5.05.37s.4,7.24-.23,7.68-4.48.41-4.91-.23c-.4-.59-1.16-7.41.1-7.82Z"/>
  <path class="cls-2" d="M394.99,150.93c.2,4.04-.08,4.61-4.16,4.16-.28-3.42.62-4.68,4.16-4.16Z"/>
</svg>