<?xml version="1.0" encoding="UTF-8"?>
<svg id="Layer_1" data-name="Layer 1" xmlns="http://www.w3.org/2000/svg" viewBox="0 0 2947.98 2905.71">
  <defs>
    <style>
      .cls-1 {
        fill: #242133;
      }

      .cls-2 {
        fill: #77766b;
      }

      .cls-3 {
        fill: #76756b;
      }

      .cls-4 {
        fill: #c8c7b0;
      }

      .cls-5 {
        fill: #afad90;
      }

      .cls-6 {
        isolation: isolate;
      }

      .cls-7 {
        fill: #aeac90;
      }

      .cls-8 {
        fill: #c8c6a1;
      }

      .cls-9 {
        fill: #252234;
      }

      .cls-10 {
        fill: #c7c5a1;
      }

      .cls-11 {
        fill: #272436;
      }

      .cls-12 {
        fill: #e6e5c6;
      }

      .cls-13 {
        fill: #c9c7a2;
      }

      .cls-14 {
        fill: #221f32;
      }

      .cls-15 {
        fill: #bfbea7;
      }

      .cls-16 {
        fill: #afad91;
      }

      .cls-17 {
        fill: #78776c;
      }

      .cls-18 {
        fill: #211e31;
      }
    </style>
  </defs>
  <g id="Layer_2" data-name="Layer 2">
    <g>
      <path class="cls-9" d="M2033.91,1809.68c-33.36,45.54-67.42,89.37-111.39,124.61-58.58,46.96-124.24,71.13-199.92,72.88-69.4,1.6-137.13,17.45-199.46,48.34-43.93,21.77-80.86,53.76-104.25,99.04-9.69,18.75-21.79,36.29-33.33,54.03-7.31,11.25-16.83,20.73-31.61,18.89-15.87-1.98-25.99-12.47-31.78-26.77-4.25-10.5-7.25-21.5-10.89-32.25-.77-2.28-1.89-4.44-3.66-8.55-4.16,4.17-7.52,7.19-10.47,10.57-16.8,19.3-32.74,39.43-50.43,57.88-25.3,26.38-56.02,23.16-75.03-8.18-7.71-12.7-12.12-27.64-16.58-42.01-4.11-13.23-6.29-27.07-10.13-44.28-7.87,9.17-15.35,15.85-20.29,24.05-11.4,18.94-21.43,38.7-32.28,57.98-8.52,15.14-16.92,30.39-26.31,44.98-8.99,13.96-21.35,24.13-38.27,27.42-12.48,2.43-20.68-.58-26.08-11.85-16.29-33.98-31.28-68.45-33.58-106.9-.24-3.99-1.52-7.92-2.65-13.56-9.53,9.87-14.39,20.45-16.91,31.73-5.45,24.37-9.32,49.11-15.08,73.4-4.88,20.56-11.17,40.82-17.51,61-4.86,15.48-16.67,24.09-31.69,28.75-14,4.34-25.05-.94-33.56-11.56-20.01-25-38.27-51.24-50.53-81.06-9.83-23.91-21.81-47.19-23.49-73.75-.15-2.35-1.67-4.61-2.99-8.02-11.09,13.18-16.45,27.33-17.94,43.39-2.14,23.1-8.94,44.56-24,62.82-14.78,17.91-32.95,18.94-49.82,2.86-37.57-35.8-57.51-80.27-63.78-131.22-2.43-19.75-3.58-39.66-5.34-59.5-.27-3.07-.65-6.14-1.21-11.38-2.75,3.57-4.27,5.35-5.6,7.28-8.98,13.08-20.11,14.86-31.85,4.09-4.23-3.89-7.62-9.38-9.73-14.8-20.37-52.4-22.97-105.5-8.06-160.05,6.39-23.38,13.74-45.88,25.77-66.94,2.83-4.96,4.38-11.19,4.73-16.95,1.65-27.27,15.97-48.76,30.79-70.14,29.25-42.22,69.87-69.91,115.85-90.6,17.86-8.04,36.12-15.18,54.15-22.85,4.27-1.82,8.34-4.12,14.08-6.98-3.49-2.99-5.47-5.43-8.02-6.76-24.54-12.75-41.76-33.64-58.54-54.48-10.02-12.45-7.07-28.22-1.57-41.84,9.01-22.32,24.49-40.54,42.61-56.02,7.16-6.12,8.99-11.52,7.01-20.35-17.95-80.04-14.51-159.13,13.82-236.31,24.06-65.55,64-118.83,125.57-154.1,1.37-.79,2.68-1.84,4.16-2.26,25.08-7.12,40.78-25.61,57.19-44.45,109.64-125.84,249.93-194.58,413.74-214.38,126.03-15.24,246.8,9.53,361.57,62.79,130.03,60.35,232.8,152.51,307.92,274.18,48.31,78.25,72.7,164.97,78.21,257.01,6.53,109.27-18.51,211.91-61.22,311.65-13.59,31.73-29.88,61.19-50.33,89.49h0ZM1334.39,2139.43c5.15,17.18,9.68,34.58,15.71,51.44,3.41,9.52,8.06,9.47,13.56,1.22,4.03-6.05,7.74-12.31,11.61-18.46,14.8-23.52,28.88-47.54,44.67-70.38,10.77-15.57,11.69-14.71-.36-29.71-14.76-18.36-33.26-29.12-57.24-28-5.14.24-10.15,3.51-16.33,6.55-6.9,28.2-15.48,56.18-11.61,87.34h-.01ZM638.77,1877.64c-6.12-2.47-12.12-5.29-18.37-7.32-8.37-2.72-14.46.41-16.87,8.9-6.03,21.24-12.58,42.39-17.35,63.92-7.73,34.84-4.99,69.59,3.91,103.96,1.65,6.38,5.87,8.4,10.01,3.45,7.19-8.58,14.92-17.46,19.19-27.57,7.71-18.26,13.03-37.53,20.42-57.18,11.63-17.85,23.03-35.86,35.04-53.45,3.13-4.59,5.26-8.37-.03-11.86-11.46-7.56-23.25-14.62-35.95-22.84h0ZM1247.52,2018.95c-18.2-2.66-36.09-2.37-51.97,8.33-3.76,2.53-7.36,7.14-8.5,11.45-7.04,26.73-9.64,53.96-8.1,81.64,1.55,27.99,5.6,55.36,19.26,80.29,2.47,4.51,7.55,7.58,12.79,11.66,4.37-2.87,9.61-4.97,12.95-8.75,14.82-16.76,28.81-34.26,43.68-50.97,10.64-11.95,22.4-22.89,33.23-34.67,3.34-3.63,6.44-8.27,7.6-12.95,3.78-15.25,5.73-30.99,10.13-46.03,2.88-9.85,1.12-16.35-6.97-21.98-18.8-13.09-39.7-18.53-64.09-18.02h-.01ZM1045.16,1987.13c-19.7,2.32-30.96,12.23-36.65,34.15-17,65.46-16.14,130.77,3.4,195.58,3.68,12.2,9.16,23.87,13.81,35.78,1.2.26,2.41.52,3.61.77,4.14-5.16,8.29-10.32,13.55-16.13,9.16-14.73,18.95-29.12,27.37-44.27,17.96-32.37,36.36-64.09,63.83-89.93,7.94-7.47,12.86-19.39,16.21-30.19,3.69-11.9,4.3-24.82,5.55-37.37.36-3.65-.49-8.64-2.81-11.15-28.83-31.14-65.33-40.79-107.86-37.25h-.01ZM731.61,1910.2c-7.77,2.91-17.56,3.81-22.87,9.16-9.65,9.73-17.73,21.49-24.54,33.49-21.17,37.32-33.39,77.67-37.46,120.4-6.07,63.58,7.04,122.37,44.08,175.08,6.71,9.56,15.74,9.38,21.69-.62,2.56-4.3,4.44-9.11,6-13.89,6.82-21.01,13.41-42.1,21.14-63.94,6.44-8.1,13.12-16.01,19.21-24.36,3.42-4.68,7.74-9.84,8.39-15.18,2.05-16.89,3.38-33.95,3.51-50.96.38-46.6,17.7-87.48,41.82-125.96,5.51-8.79,4.34-14.37-2.82-20.18-22.38-18.19-47.9-25.93-78.15-23.04h0ZM888.06,1944.37c-20.84-1.95-36.86,6.25-45.99,24.81-7.88,16.03-15.15,32.66-20.08,49.78-14.11,48.98-20.6,98.79-12.63,149.83,8.15,52.15,24.82,100.41,61.04,140.2,7.81,8.58,14.8,7.5,17.36-3.92,4.61-20.56,7.6-41.49,11.95-63.93,3.52-17.31,6.22-34.84,10.75-51.89,7.92-29.79,20.66-56.86,45.84-76.73,4.19-3.31,6.86-10.81,7.1-16.5,1.15-28.05,5.81-55.21,16.16-81.4,4.81-12.18,2.46-23.05-6.16-33.43-21.94-26.41-50.74-36.11-85.34-36.82h0ZM1645.7,877.7c-61.81-18.12-124.94-25.45-189.25-23.02-165.25,6.24-307.69,66.58-427.28,180.9-3.97,3.79-7.02,8.55-11.21,13.74,16.31,4.62,33.96.81,46.57,16.32-2.18.99-3.56,1.85-5.06,2.26-5.17,1.41-10.37,2.7-15.59,3.96-63.94,15.39-121.05,43.18-163.45,95.03-75.98,92.93-94.52,198.07-63.19,312.87,3.4,12.45,1.67,22.29-8.05,30.75-8.82,7.68-17.8,15.22-26.24,23.3-22.97,21.97-22.55,29.96,1.37,50.87,9.97,8.71,19.98,17.47,29.04,27.08,8.3,8.81,11.87,8.64,18.21-1.9,3.67-6.11,8.79-11.35,13.25-16.98,1.07.45,2.14.9,3.21,1.35,1.25,4.43,3.81,8.94,3.52,13.26-1.75,26.03-10.75,49.39-32.35,64.91-16.59,11.91-35.29,20.85-52.98,31.23-29.12,17.1-59.03,33.05-87.05,51.8-30.53,20.43-46.02,52.52-59.77,86.27,4.6,1.2,8.17,2.65,11.84,3.01,20.53,2.03,36.92,12.12,51.53,25.88,4.14,3.9,7.88,8.62,12.73,11.27,5.2,2.84,11.45,3.87,17.33,5.3,1.69.41,3.7-.56,5.57-.9,45.62-8.3,88.47-6.48,121.32,32.81,1.44,1.72,5.04,2.55,7.51,2.34,17.52-1.51,34.99-4.58,52.52-4.94,40.91-.84,74.66,13.85,97.84,49.06,1.18,1.8,2.71,3.37,4.19,5.19,2.34-.97,4.41-1.68,6.36-2.65,23.93-11.85,49.11-18.45,75.91-17.25,33.88,1.52,61.96,16.26,85.74,39.64,7.03,6.91,13.12,7.57,21.84,2.99,7.94-4.17,17.15-8.39,25.77-8.33,21.71.14,43.56,1.63,65.07,4.58,18.54,2.54,36.42,8.18,49.04,24.08,1.62,2.05,6.73,3.25,9.3,2.31,16.06-5.87,32.28-4.96,50.01-1.66,25.5,7.92,47.41,20.73,61.32,44.65,3.3,5.67,6.99,8.09,13.55,2.94,37.83-29.72,81.45-48.23,126.38-63.88,52.42-18.26,107.49-21.63,162.04-27.28,36.45-3.78,70.08-13.72,101.67-32.93,60.18-36.6,107.72-85.5,145.59-144.33,29.44-45.73,49.75-95.96,69.74-146.17,25.11-63.08,33.96-129.38,35.66-196.89,1.52-60.3-4.87-119.6-25.21-176.53-54.65-152.99-153.73-267.85-297.71-343.36-43.51-22.82-88.99-40.77-138.16-52.92v-.03Z"/>
      <path class="cls-12" d="M1389.48,2013.64c-16.38-2.53-32.59-3.44-48.65,2.43-2.57.94-7.68-.26-9.3-2.31-12.61-15.91-30.5-21.54-49.04-24.08-21.52-2.95-43.36-4.44-65.07-4.58-8.62-.06-17.82,4.16-25.77,8.33-8.72,4.58-14.82,3.92-21.84-2.99-23.77-23.38-51.86-38.13-85.74-39.64-26.8-1.2-51.98,5.4-75.91,17.25-1.95.97-4.02,1.68-6.36,2.65-1.48-1.82-3-3.39-4.19-5.19-23.18-35.21-56.93-49.9-97.84-49.06-17.53.36-35,3.43-52.52,4.94-2.47.21-6.08-.62-7.51-2.34-32.85-39.29-75.7-41.1-121.32-32.81-1.87.34-3.88,1.31-5.57.9-5.89-1.42-12.13-2.45-17.33-5.3-4.85-2.65-8.59-7.37-12.73-11.27-14.61-13.76-30.99-23.85-51.53-25.88-3.68-.36-7.24-1.81-11.84-3.01,13.75-33.75,29.24-65.83,59.77-86.27,28.02-18.76,57.93-34.7,87.05-51.8,17.69-10.39,36.4-19.32,52.98-31.23,21.61-15.52,30.6-38.87,32.35-64.91.29-4.32-2.27-8.84-3.52-13.26-1.07-.45-2.14-.9-3.21-1.35-4.47,5.63-9.58,10.87-13.25,16.98-6.35,10.55-9.91,10.71-18.21,1.9-9.06-9.62-19.07-18.38-29.04-27.08-23.93-20.91-24.34-28.9-1.37-50.87,8.45-8.08,17.42-15.62,26.24-23.3,9.72-8.46,11.45-18.3,8.05-30.75-31.33-114.8-12.79-219.94,63.19-312.87,42.4-51.85,99.51-79.65,163.45-95.03,5.21-1.25,10.41-2.55,15.59-3.96,1.5-.41,2.88-1.27,5.06-2.26-12.61-15.51-30.25-11.7-46.57-16.32,4.19-5.19,7.24-9.94,11.21-13.74,119.59-114.32,262.03-174.66,427.28-180.9,64.3-2.43,127.43,4.9,189.71,24.23,1.33,4.5,1.87,7.93,3.12,11.07,13.56,34.29,28.47,68.1,40.59,102.88,23.59,67.67,37.09,137.36,35.87,209.39-.09,5.3-2.62,10.56-4.58,15.56-34.35-30.74-73.5-51.96-116-67.41-2.64-.96-5.8-2.37-8.18-1.69-3.54,1.01-7.98,3-9.43,5.89-1.09,2.17.98,7.43,3.28,9.5,4.63,4.17,10.23,7.34,15.67,10.5,36.95,21.49,71.69,45.97,102.66,75.58,2.88,2.76,5.17,6.13,7.63,9.99,2.01,9.85,2.84,19.49,6.47,27.92,19.03,44.26,34.42,89.53,38.36,137.86,3.09,37.91,2.02,75.64-13.29,111.38-4.61,10.75-10.91,20.78-16.43,31.13,6.63-44.4,4.98-86.57-14.72-128.08-2.18,1.91-3.79,2.64-3.87,3.5-.47,5.26-.45,10.57-.86,15.84-3.23,41.08-16.12,79.66-33.34,116.51-23.13,49.49-49.88,97.17-82.21,141.33-23.51,32.12-49.36,62.29-84.24,83.08-4.44,2.64-8.68,5.62-13.89,8.5-9.7-.59-18.63-2.47-27.31-1.64-36.12,3.43-72.25,7.05-108.19,11.97-13.26,1.82-26.26,6.77-38.82,11.71-3.9,1.54-8.01,7.66-8.19,11.85-.13,2.98,6.17,6.23,9.54,10.12.77,16.07,7.51,28.54,18.64,38.69,12.3,11.21,25.23,21.75,37.18,33.31,15.23,14.73,24.1,32.68,19.67,54.28-2.4,11.72-7.78,22.82-11.82,34.2v.03ZM1259.83,1559.98c4.14,36.26,13.85,70.83,33.55,101.81,28.99,45.57,82.93,81.04,151.53,62.94,43.77-11.55,81.09-32.89,111.92-65.91,47.2-50.55,76.91-110.79,97.12-176.17,18.58-60.11,23.47-121.22,7.56-182.49-17.9-68.95-58.72-113.31-139.19-119.45-45.99-3.51-85.43,13.76-121.36,40.46-47.62,35.39-80.48,82.14-104.67,135.92-28.88,64.22-40.83,131.21-36.46,202.89h0ZM1021.86,1566.32c51.9-23.95,87.39-65.83,115.69-112.96,36.71-61.15,55.74-128.54,55.75-200.47,0-34.89-5.77-68.69-23.34-99.5-11.04-19.37-24.91-37.21-46.84-43.53-30.09-8.68-61.19-13.42-92.47-5.05-39.4,10.55-69.51,35.15-95.98,64.91-47.65,53.59-76.01,116.74-90.35,186.39-9.81,47.65-7.94,95,8.72,141.16,13.93,38.59,39.51,65.91,79.02,78.5,30.56,9.74,59.95,3.38,89.8-9.45h0ZM1084.85,1724.53c-1.65,8.37-3.59,16.69-4.9,25.11-2.84,18.18,1.68,28.87,16.15,35.58,22.27,10.33,45.79,16.27,70.44,16.61,15.93.22,24.74-7.16,27.08-23.23,1.68-11.53,2.36-23.26,2.6-34.92.78-37.88,1.83-75.78,1.4-113.66-.24-20.96-10.64-31.47-31.02-35.95-15.99-3.52-27.38,2.62-37.54,20.35-19.56,34.14-35.93,69.57-44.21,110.12h0ZM948.71,1740.72c19.25,6.07,38.22,13.26,57.8,17.95,33.88,8.12,36.13,5.98,49.67-26.77,13.03-31.52,27.24-62.55,40.29-94.07,4.42-10.67,7.8-21.99,9.91-33.34,1.64-8.85-3.44-14.3-12.83-16.65-23.89-6-43.64-.23-61.78,16.58-31.02,28.73-57.58,61.22-83.08,94.7-2.83,3.72-4.85,8.14-6.79,12.44-4.82,10.69-3.45,20.31,6.82,29.16h-.01ZM1400.27,1164.65c28.25-11.77,57.84-17.79,88.2-20.35,5.98-.5,10.58-2.14,10.99-9.11.4-6.75-3.67-9.74-9.52-10.87-4.02-.78-8.13-1.43-12.21-1.49-57.62-.91-107.83,15.18-143.59,63.63-4.14,5.62-7.18,12.05-10.72,18.11.65.49,1.3.99,1.96,1.48,24.54-13.62,49.08-27.24,74.9-41.41h-.01Z"/>
      <path class="cls-4" d="M1390.16,2014.03c3.36-11.77,8.74-22.87,11.14-34.59,4.43-21.61-4.44-39.55-19.67-54.28-11.95-11.56-24.88-22.1-37.18-33.31-11.13-10.15-17.88-22.62-17.97-38.94,13.28-2.41,25.92-3.24,38.36-5.33,55.18-9.29,110.33-12.41,165.88-2.84,50.19,8.65,100.83,13.91,151.79,13.07,54.65-.9,107.37-11.31,156-37.74,21.51-11.69,41.71-25.19,56.53-45.29,20.73-28.12,24.7-57.46,6.46-88.49-17.77-30.25-40.93-55.16-71.18-73.26-10.16-6.08-20.08-12.56-30.02-18.79,4.89-8.62,9.46-15.84,13.19-23.47,3.88-7.93,7.66-16.03,10.26-24.43,29.04-93.95,12.84-180.75-43.66-259.94-17.33-24.28-38.78-45.62-58.34-68.31,1.39-5.28,3.92-10.54,4.01-15.85,1.22-72.03-12.28-141.72-35.87-209.39-12.12-34.78-27.03-68.59-40.59-102.88-1.24-3.15-1.79-6.57-2.52-10.59,48.12,10.45,93.59,28.41,137.1,51.23,143.98,75.51,243.06,190.37,297.71,343.36,20.34,56.93,26.72,116.23,25.21,176.53-1.7,67.51-10.55,133.81-35.66,196.89-19.99,50.21-40.3,100.44-69.74,146.17-37.87,58.83-85.41,107.73-145.59,144.33-31.59,19.21-65.22,29.15-101.67,32.93-54.54,5.66-109.62,9.02-162.04,27.28-44.93,15.65-88.55,34.16-126.38,63.88-6.56,5.15-10.26,2.73-13.55-2.94-13.91-23.91-35.82-36.73-62-45.03v.02ZM1776.22,990.17c-19.36,7.92-30.96,20.9-32.79,43.06-1.79,21.72,5.09,41.26,12.07,60.65,14.4,40,36.48,75.26,68.77,103.61,16.9,14.84,34.05,29.65,56.58,34.59,37.1,8.14,57.35-9.83,73.82-39.76,2.52-4.58,3.63-11.12,2.65-16.23-4.08-21.29-8.26-42.65-14.34-63.41-3.12-10.62-9.33-20.77-15.89-29.87-27.77-38.5-62.36-69.22-106.03-88.73-13.81-6.17-28.14-11.52-44.85-3.91h.01ZM2062.98,1328.49c-.1-1.88-.17-3.76-.31-5.63-2.09-28.02-8.52-54.69-25.22-77.91-11.62-16.15-44.88-25.55-60.71-7.97-9.43,10.47-14.08,23.65-13.88,36.16.39,24.01,3.55,48.14,7.6,71.88,4.27,25.05,18.31,43.11,42.5,53.81,22.47,9.95,42.65-8.35,45.06-24.94,2.12-14.52,3.57-29.14,4.97-45.4h-.01ZM1935.38,1364.93c.66-3.31,2.04-6.67,1.86-9.93-1.42-24.76-9.43-47.35-23.28-67.84-6.3-9.31-13.42-18.97-26.19-16.99-13.2,2.04-23.6,10.04-27.5,23.17-8.62,29.01,5.33,73.42,31.53,87.61,16.13,8.74,36.11,2.73,43.58-16.03h0Z"/>
      <path class="cls-13" d="M899.04,2242.8c-3.67,20.77-6.66,41.7-11.27,62.26-2.56,11.42-9.54,12.51-17.36,3.92-36.23-39.79-52.9-88.06-61.04-140.2-7.97-51.04-1.48-100.85,12.63-149.83,4.93-17.12,12.2-33.75,20.08-49.78,9.13-18.56,25.15-26.76,46.74-23.94,9.42,12.72,18.44,24.33,26.69,36.47,14.41,21.2,21.28,44.03,18.2,70.4-3.2,27.38-13.1,52.29-22.7,77.57-9.92,26.11-20.23,52.38-18.6,80.99.62,10.8,4.34,21.43,6.64,32.14h0Z"/>
      <path class="cls-13" d="M738.58,2170.66c-6.67,21.06-13.26,42.15-20.08,63.16-1.55,4.78-3.44,9.59-6,13.89-5.95,10-14.98,10.18-21.69.62-37.04-52.71-50.14-111.5-44.08-175.08,4.08-42.73,16.3-83.08,37.46-120.4,6.81-12,14.89-23.76,24.54-33.49,5.31-5.35,15.1-6.25,23.78-8.42,17.58,14.93,28.92,32.68,31.45,54.41,1.8,15.45,1.71,31.42.07,46.9-2.62,24.71-6.73,49.29-11.17,73.76-3.13,17.24-8.46,34.08-11.62,51.31-2.01,10.91-1.85,22.22-2.67,33.35h.01Z"/>
      <path class="cls-13" d="M1041.76,2237.94c-4.14,5.16-8.29,10.32-12.43,15.47-1.2-.26-2.41-.52-3.61-.77-4.65-11.91-10.13-23.57-13.81-35.78-19.54-64.81-20.4-130.12-3.4-195.58,5.69-21.92,16.95-31.83,37.76-33.39,2.56,1.3,3.96,2.05,5.46,2.34,30.21,5.87,46.35,22.44,47.98,52.73.75,13.99-2.18,28.28-4.33,42.29-3.81,24.83-12.4,48.22-25.87,69.31-11.88,18.62-19.35,38.77-24.67,59.86-1.92,7.61-2.1,15.66-3.08,23.51h0Z"/>
      <path class="cls-13" d="M1209.63,2211.98c-3.87-3.73-8.96-6.8-11.42-11.31-13.66-24.94-17.71-52.3-19.26-80.29-1.53-27.68,1.07-54.91,8.1-81.64,1.14-4.32,4.73-8.92,8.5-11.45,15.89-10.69,33.77-10.99,52.81-7.46,14.08,11.17,20.14,25.25,18.18,41.36-2.15,17.72-6.12,35.29-10.42,52.65-5.31,21.38-12.32,42.18-24.56,60.94-7.86,12.04-14.66,24.78-21.93,37.2h0Z"/>
      <path class="cls-16" d="M899.38,2241.97c-2.65-9.88-6.36-20.5-6.98-31.31-1.64-28.61,8.67-54.88,18.6-80.99,9.6-25.27,19.5-50.19,22.7-77.57,3.08-26.37-3.78-49.19-18.2-70.4-8.25-12.14-17.27-23.75-25.93-36.25,33.09-.38,61.89,9.32,83.83,35.73,8.63,10.39,10.97,21.26,6.16,33.43-10.34,26.19-15.01,53.35-16.16,81.4-.23,5.69-2.9,13.2-7.1,16.5-25.18,19.87-37.93,46.94-45.84,76.73-4.53,17.04-7.23,34.58-11.09,52.72h.01Z"/>
      <path class="cls-16" d="M1042.32,2237.61c.42-7.52.6-15.57,2.52-23.18,5.32-21.1,12.78-41.24,24.67-59.86,13.46-21.1,22.06-44.48,25.87-69.31,2.15-14.02,5.09-28.31,4.33-42.29-1.63-30.3-17.77-46.86-47.98-52.73-1.5-.29-2.9-1.04-4.73-2.26,40.69-4.39,77.2,5.26,106.02,36.4,2.32,2.5,3.18,7.5,2.81,11.15-1.25,12.55-1.86,25.47-5.55,37.37-3.35,10.8-8.27,22.72-16.21,30.19-27.47,25.84-45.86,57.56-63.83,89.93-8.41,15.15-18.2,29.54-27.93,44.6h0Z"/>
      <path class="cls-8" d="M638.63,1966.6c-6.32,18.85-11.64,38.12-19.35,56.38-4.27,10.12-12.01,18.99-19.19,27.57-4.14,4.95-8.35,2.93-10.01-3.45-8.9-34.37-11.64-69.12-3.91-103.96,4.77-21.53,11.32-42.68,17.35-63.92,2.41-8.49,8.5-11.62,16.87-8.9,6.26,2.03,12.26,4.85,18.8,8.54,1.47,8.04,3.72,14.92,3.34,21.66-1.04,18.49-3.29,36.92-4.81,55.39-.29,3.52.58,7.12.91,10.69Z"/>
      <path class="cls-16" d="M1347.12,2050.94c5.07-1.88,10.07-5.15,15.21-5.39,23.98-1.12,42.48,9.64,57.24,28,12.05,15,11.13,14.14.36,29.71-15.79,22.84-29.87,46.86-44.67,70.38-3.87,6.15-7.58,12.41-11.61,18.46-5.5,8.25-10.15,8.3-13.56-1.22-6.03-16.86-10.56-34.26-14.93-52.44,1.85-1.66,3.15-2.11,3.96-3.01,14.03-15.66,24.93-33.1,30.29-53.69,4.11-15.8-8.87-31.23-22.29-30.8h0Z"/>
      <path class="cls-5" d="M1210.31,2212.15c6.59-12.6,13.39-25.34,21.25-37.38,12.25-18.76,19.26-39.56,24.56-60.94,4.31-17.36,8.27-34.93,10.42-52.65,1.96-16.11-4.1-30.19-17.35-41.14,22.72-1.61,43.61,3.84,62.42,16.93,8.09,5.63,9.85,12.13,6.97,21.98-4.4,15.04-6.35,30.78-10.13,46.03-1.16,4.68-4.27,9.32-7.6,12.95-10.83,11.78-22.59,22.72-33.23,34.67-14.87,16.71-28.86,34.21-43.68,50.97-3.34,3.78-8.58,5.88-13.63,8.57h0Z"/>
      <path class="cls-16" d="M739.11,2170.27c.28-10.74.13-22.05,2.13-32.96,3.17-17.23,8.5-34.07,11.62-51.31,4.44-24.46,8.55-49.05,11.17-73.76,1.64-15.48,1.73-31.45-.07-46.9-2.53-21.73-13.87-39.47-30.69-54.37,28.58-3.67,54.1,4.08,76.48,22.26,7.16,5.82,8.32,11.4,2.82,20.18-24.11,38.48-41.44,79.36-41.82,125.96-.14,17.01-1.46,34.08-3.51,50.96-.65,5.34-4.98,10.5-8.39,15.18-6.09,8.35-12.78,16.26-19.74,24.75h0Z"/>
      <path class="cls-10" d="M1346.56,2051.51c13.98-1.01,26.97,14.42,22.85,30.22-5.36,20.59-16.25,38.03-30.29,53.69-.8.9-2.11,1.35-3.88,2.26-4.72-29.41,3.85-57.39,11.31-86.17h.01Z"/>
      <path class="cls-7" d="M639.17,1966.19c-.87-3.16-1.74-6.77-1.45-10.29,1.52-18.47,3.77-36.9,4.81-55.39.38-6.74-1.87-13.62-2.82-21.18,11.75,6.53,23.54,13.58,35.01,21.14,5.29,3.49,3.16,7.27.03,11.86-12.01,17.59-23.41,35.6-35.58,53.86h0Z"/>
      <path class="cls-14" d="M1259.78,1559.18c-4.31-70.88,7.64-137.88,36.52-202.1,24.18-53.78,57.05-100.53,104.67-135.92,35.94-26.7,75.37-43.97,121.36-40.46,80.47,6.14,121.28,50.5,139.19,119.45,15.91,61.27,11.02,122.38-7.56,182.49-20.22,65.39-49.93,125.62-97.12,176.17-30.83,33.02-68.14,54.37-111.92,65.91-68.6,18.1-122.54-17.37-151.53-62.94-19.7-30.98-29.41-65.54-33.61-102.6h0ZM1393.96,1332.21c22.52-39.7,49.34-76.17,82.18-108.27-2.81-.33-4.66.09-6.33.88-28.57,13.49-54.66,30.96-75.99,54.16-65.01,70.68-105,152.56-106.95,250.27-.76,38.12,6.19,74.87,25.07,108.61,7.24,12.94,16.2,24.33,30.84,32.26-33.73-120.95-7.27-231.16,51.19-337.9h-.01Z"/>
      <path class="cls-14" d="M1021.23,1566.62c-29.22,12.53-58.61,18.89-89.17,9.15-39.51-12.6-65.1-39.91-79.02-78.5-16.66-46.16-18.53-93.5-8.72-141.16,14.34-69.65,42.7-132.8,90.35-186.39,26.47-29.77,56.58-54.36,95.98-64.91,31.28-8.38,62.38-3.64,92.47,5.05,21.92,6.33,35.8,24.16,46.84,43.53,17.56,30.82,23.34,64.62,23.34,99.5,0,71.92-19.03,139.32-55.75,200.47-28.3,47.14-63.8,89.01-116.32,113.25h0ZM1034.97,1162.02c12.69-11.03,25.38-22.05,40.02-34.78-6.45.67-10.5.69-14.37,1.56-28.12,6.37-51.41,22.17-73.79,39.22-31.29,23.82-52.64,55.76-71.49,89.72-35.34,63.69-51.8,131.15-40.64,203.92,1.73,11.31,7.31,22.02,11.11,33.01,1.21-.26,2.43-.51,3.64-.77.5-3.92,1.11-7.82,1.48-11.75,1.73-18.54,3.11-37.12,5.18-55.62,1.44-12.86,2.52-25.97,5.97-38.36,12.65-45.48,30.49-88.64,55.91-128.84,22.06-34.9,45.92-68.02,76.98-97.33v.02Z"/>
      <path class="cls-4" d="M1499.66,1809.1c4.33-2.82,8.57-5.8,13.01-8.45,34.88-20.79,60.72-50.96,84.24-83.08,32.32-44.16,59.08-91.84,82.21-141.33,17.22-36.85,30.11-75.42,33.34-116.51.41-5.27.39-10.58.86-15.84.08-.86,1.68-1.59,3.87-3.5,19.7,41.5,21.35,83.68,14.72,128.08,5.52-10.36,11.82-20.38,16.43-31.13,15.31-35.74,16.38-73.47,13.29-111.38-3.94-48.33-19.33-93.6-38.36-137.86-3.63-8.43-4.46-18.07-5.8-27.9,12.39,12.58,24.86,25.25,35.45,39.35,37.73,50.26,55.79,107.26,55.24,170.02-.37,41.99-17.73,78.42-38.83,113.46-11.75,19.52-9.33,27.93,10.75,38.48,1.96,1.03,3.98,1.92,5.95,2.94,31.36,16.32,61.14,34.93,82.06,64.29,23.1,32.43,26.76,39.41-6.62,71.35-22.86,21.88-50.57,36.67-80.5,47-39.88,13.76-81.08,20.73-123.03,17.68-52.85-3.84-105.51-10.33-158.25-15.68h-.03Z"/>
      <path class="cls-9" d="M1498.78,1809.15c53.62,5.29,106.28,11.78,159.13,15.62,41.95,3.05,83.15-3.92,123.03-17.68,29.93-10.33,57.64-25.12,80.5-47,33.38-31.94,29.72-38.92,6.62-71.35-20.91-29.37-50.7-47.97-82.06-64.29-1.96-1.02-3.99-1.92-5.95-2.94-20.08-10.55-22.5-18.96-10.75-38.48,21.1-35.04,38.45-71.47,38.83-113.46.56-62.76-17.51-119.76-55.24-170.02-10.58-14.1-23.06-26.77-35.33-40.12-3.23-3.11-5.52-6.48-8.41-9.24-30.97-29.61-65.71-54.09-102.66-75.58-5.44-3.16-11.04-6.33-15.67-10.5-2.3-2.07-4.37-7.33-3.28-9.5,1.45-2.89,5.89-4.88,9.43-5.89,2.38-.68,5.54.73,8.18,1.69,42.49,15.44,81.65,36.67,116,67.41,20.13,22.97,41.59,44.3,58.91,68.59,56.5,79.2,72.71,166,43.66,259.94-2.6,8.4-6.38,16.51-10.26,24.43-3.73,7.63-8.3,14.84-13.19,23.47,9.94,6.23,19.86,12.71,30.02,18.79,30.25,18.1,53.41,43.01,71.18,73.26,18.24,31.04,14.27,60.37-6.46,88.49-14.82,20.1-35.02,33.6-56.53,45.29-48.63,26.43-101.35,36.84-156,37.74-50.96.84-101.6-4.42-151.79-13.07-55.55-9.57-110.71-6.45-165.88,2.84-12.43,2.09-25.07,2.92-38.29,4.57-4.1-2.88-10.4-6.14-10.28-9.12.18-4.19,4.29-10.31,8.19-11.85,12.56-4.94,25.56-9.89,38.82-11.71,35.94-4.92,72.07-8.54,108.19-11.97,8.68-.83,17.61,1.06,27.31,1.64h.03Z"/>
      <path class="cls-1" d="M1085.1,1723.69c8.03-39.72,24.41-75.15,43.96-109.29,10.16-17.73,21.54-23.87,37.54-20.35,20.38,4.48,30.78,14.99,31.02,35.95.43,37.88-.62,75.78-1.4,113.66-.24,11.66-.92,23.4-2.6,34.92-2.34,16.08-11.15,23.45-27.08,23.23-24.65-.34-48.17-6.28-70.44-16.61-14.46-6.71-18.99-17.39-16.15-35.58,1.31-8.42,3.25-16.74,5.15-25.94h0ZM1114.57,1741.12c-1.77,12.32.42,16.67,8.33,14.64,3.67-.94,7.72-5.41,9.16-9.2,11.78-30.9,23.46-61.85,34.08-93.16,3.37-9.93,2.84-20.91-3.84-33.83-7.46,14.5-15.13,26.46-20,39.47-9.93,26.5-18.36,53.57-27.74,82.08h.01Z"/>
      <path class="cls-1" d="M948.12,1740.29c-9.67-8.42-11.04-18.04-6.23-28.73,1.94-4.3,3.96-8.72,6.79-12.44,25.5-33.48,52.05-65.97,83.08-94.7,18.14-16.8,37.89-22.57,61.78-16.58,9.4,2.36,14.48,7.81,12.83,16.65-2.11,11.35-5.49,22.66-9.91,33.34-13.05,31.52-27.25,62.55-40.29,94.07-13.54,32.74-15.79,34.89-49.67,26.77-19.58-4.69-38.55-11.89-58.39-18.38h.01ZM980.23,1714.93c.51,1.88.55,5.05,1.6,5.43,5,1.82,10.24,3.67,15.47,3.91,2.69.12,6.32-2.51,8.16-4.94,5.68-7.53,10.46-15.73,16.02-23.35,17.64-24.19,35.53-48.19,53.12-72.41,1.58-2.17,1.65-5.44,2.42-8.2-.89-.88-1.77-1.75-2.66-2.63-8.92,5.44-18.55,10.01-26.55,16.59-6.66,5.48-11.54,13.19-16.96,20.1-16.71,21.33-33.31,42.75-50.62,65.51h0Z"/>
      <path class="cls-11" d="M1399.64,1164.92c-25.18,13.89-49.72,27.52-74.26,41.14-.65-.49-1.3-.99-1.96-1.48,3.55-6.06,6.58-12.49,10.72-18.11,35.76-48.45,85.97-64.53,143.59-63.63,4.08.06,8.19.71,12.21,1.49,5.85,1.13,9.92,4.11,9.52,10.87-.42,6.96-5.01,8.6-10.99,9.11-30.36,2.56-59.95,8.58-88.84,20.62h.01Z"/>
      <path class="cls-15" d="M1776.89,989.93c16.03-7.36,30.37-2.01,44.18,4.16,43.66,19.51,78.26,50.23,106.03,88.73,6.56,9.1,12.77,19.25,15.89,29.87,6.09,20.76,10.27,42.13,14.34,63.41.98,5.11-.13,11.66-2.65,16.23-16.48,29.92-36.72,47.89-73.82,39.76-22.53-4.94-39.68-19.76-56.58-34.59-32.29-28.34-54.37-63.61-68.77-103.61-6.98-19.39-13.86-38.93-12.07-60.65,1.83-22.16,13.43-35.14,33.46-43.31h0Z"/>
      <path class="cls-15" d="M2063.15,1329.33c-1.57,15.41-3.02,30.04-5.14,44.56-2.42,16.59-22.59,34.88-45.06,24.94-24.19-10.71-38.23-28.76-42.5-53.81-4.04-23.73-7.21-47.87-7.6-71.88-.2-12.51,4.46-25.7,13.88-36.16,15.83-17.58,49.09-8.18,60.71,7.97,16.71,23.22,23.13,49.89,25.22,77.91.14,1.87.21,3.75.48,6.47h.01Z"/>
      <path class="cls-15" d="M1935.12,1365.65c-7.22,18.05-27.2,24.05-43.33,15.31-26.2-14.19-40.15-58.61-31.53-87.61,3.9-13.14,14.3-21.13,27.5-23.17,12.76-1.97,19.89,7.68,26.19,16.99,13.85,20.48,21.86,43.08,23.28,67.84.19,3.26-1.2,6.62-2.11,10.65h0Z"/>
      <path class="cls-17" d="M1393.66,1332.87c-58.15,106.07-84.61,216.29-50.88,337.24-14.64-7.93-23.6-19.32-30.84-32.26-18.88-33.74-25.83-70.49-25.07-108.61,1.95-97.71,41.95-179.59,106.95-250.27,21.33-23.2,47.42-40.67,75.99-54.16,1.67-.79,3.52-1.21,6.33-.88-32.84,32.1-59.67,68.57-82.49,108.93h.01Z"/>
      <path class="cls-17" d="M1034.46,1162.46c-30.55,28.88-54.41,62-76.47,96.89-25.41,40.2-43.25,83.37-55.91,128.84-3.45,12.38-4.53,25.5-5.97,38.36-2.07,18.5-3.45,37.08-5.18,55.62-.37,3.93-.98,7.83-1.48,11.75-1.21.26-2.43.51-3.64.77-3.8-10.99-9.38-21.7-11.11-33.01-11.16-72.77,5.29-140.23,40.64-203.92,18.85-33.96,40.2-65.9,71.49-89.72,22.39-17.05,45.67-32.84,73.79-39.22,3.86-.88,7.92-.89,14.37-1.56-14.64,12.72-27.33,23.75-40.53,35.22v-.02Z"/>
      <path class="cls-2" d="M1114.73,1740.28c9.21-27.67,17.64-54.74,27.58-81.24,4.88-13.01,12.54-24.97,20-39.47,6.68,12.92,7.21,23.91,3.84,33.83-10.62,31.31-22.3,62.26-34.08,93.16-1.45,3.8-5.5,8.26-9.16,9.2-7.92,2.03-10.1-2.33-8.17-15.48h0Z"/>
      <path class="cls-3" d="M980.57,1714.25c16.97-22.07,33.57-43.5,50.28-64.83,5.42-6.92,10.3-14.63,16.96-20.1,7.99-6.57,17.62-11.15,26.55-16.59.89.88,1.77,1.75,2.66,2.63-.77,2.76-.84,6.03-2.42,8.2-17.59,24.22-35.48,48.22-53.12,72.41-5.56,7.63-10.34,15.83-16.02,23.35-1.83,2.43-5.47,5.06-8.16,4.94-5.23-.23-10.47-2.08-15.47-3.91-1.05-.38-1.1-3.55-1.27-6.12v.02Z"/>
    </g>
  </g>
  <g id="Layer_7" data-name="Layer 7">
    <g class="cls-6">
      <g class="cls-6">
        <path d="M263.99,1645.28c.44,4.53.08,4.55,4.8,4.28,8.9-.5,18-.65,26.9-1.16,2.91-.16,5.98-.52,8.89-.69,7.81-.44,11.02,7.94,11.39,14.48.58,10.17-3.74,14.42-13.73,14.99-9.08.51-18.18.66-27.26,1.18-16.89.96-33.9,3.01-50.79,3.97-13.08.74-28.55,4.17-29.58-14-.39-6.9,3.71-14.97,11.52-15.41,2-.11,4.04.5,6.04.39l27.61-1.56c2.18-.12,4.05-2.42,3.75-4.59l-2.33-21.91c-.73-6.52-1.1-6.5-7.46-6.32-8.38.11-16.73.58-25.08,1.06-6.36.36-12.86,1.27-19.22,1.63-8.54.48-12.58-6.58-13.01-14.21-.98-17.25,13.51-15.52,26.23-16.24,27.97-1.58,55.85-1.52,83.82-3.1,13.26-.75,27.29-3.91,28.34,14.61.39,6.9-2.51,13.62-10.32,14.07-13.08.74-26.03.38-39.11,1.12-2.54.14-3.91,1.68-3.77,4.22.44,7.81,1.6,15.4,2.41,23.19Z"/>
      </g>
    </g>
    <g class="cls-6">
      <g class="cls-6">
        <path d="M261.46,1713.45c5.56-.95,11.18-1.53,16.8-2.12,12.89-1.27,30.73-3.75,33.63,13.29,1.07,6.28.32,14.89-7.39,16.2-4.84.82-9.78-1.1-14.75-1-7.36.14-14.95,1.07-22.3,2.32-5.74.98-35.12,7.26-33.77,15.15.21,1.26.9,2.06,1.77,2.84,13.32,12.13,52.6,15.23,70.42,13.68,5.08-.5,9.74-2.39,14.09,1.48,3.03,2.62,4.81,6.56,5.45,10.33,1.34,7.89-1.33,14.99-9.94,16.45-10.04,1.71-23.83.92-34.15-.1-25.67-2.28-63.52-10.05-68.71-40.54-5.43-31.92,23.03-43.59,48.86-47.98Z"/>
      </g>
    </g>
    <g class="cls-6">
      <g class="cls-6">
        <path d="M243.19,1923.47c2.39-6.02,9.9-10.14,14.87-13.88,7.44-5.62,51.44-36.46,52.14-41.78-.21-.7-1.48-.51-2.05-.53-16.05,1.52-33.36,5.88-48.88,10.47-11.69,3.46-23.04,8.71-27.83-7.52-2.58-8.72,0-15.37,9.08-18.05,3.31-.98,6.61-1.38,9.98-2.19,24.51-6.3,49.1-11.67,74.54-13.5,6.87-.51,12.88-1.34,17.39,4.91,1.21,1.54,2.18,3.53,2.75,5.45,1.19,4.01.98,8.44.14,12.67-6.24,30.87-43.89,51.1-44.88,54.81.38.65,1.6.29,1.95.18,15.5-2.12,30.81-5.5,45.95-8.84,6.44-1.33,14.75-5.31,20.76-1.01,3.14,2.3,5.1,5.7,6.13,9.19,2.53,8.55.69,15.16-8.21,17.79-6.11,1.81-12.35,2.51-18.61,3.79-24.82,5.25-49.49,9.7-74.79,10.73-6.74.29-15.08,1.61-21.57-.45-4.79-1.43-7.65-5.33-9.04-10.04-1.13-3.84-1.33-8.33.19-12.2Z"/>
      </g>
    </g>
    <g class="cls-6">
      <g class="cls-6">
        <path d="M399.18,2033.58c-2.19-5.2-4.94-9.37-7.55-15.57-.85-2.01-3.3-3.15-5.31-2.3l-80.46,33.92c-3.86,1.63-7.57,3.59-11.59,5.28-9.72,4.1-15.83,2.73-20.21-7.67-6.29-14.92,4.19-18.15,15.59-22.96,8.55-3.6,8.59-3.03,17.14-6.64l71.74-30.25c2.18-.92,2.81-3.16,1.9-5.34-1.98-4.69-1.85-2.97-3.82-7.67-2.47-5.87-10.04-23.8-.98-27.62,9.05-3.82,13.71,3.5,16.54,10.2,5.87,13.91,9.62,21.41,15.49,35.33,3.82,9.05,21.66,45.75,7.41,51.76-6.71,2.83-13.47-4.79-15.87-10.49Z"/>
      </g>
    </g>
    <g class="cls-6">
      <g class="cls-6">
        <path d="M429.75,2096.7c-2.23-4.17-4.04-8.36-6.27-12.53-1.2-2.25-3.01-2.93-5.34-1.89-3.38,1.39-6.51,3.26-9.8,4.81-3.78,1.81-7.8,3.54-11.49,5.51-1.28.68-2.31,1.85-1.54,3.3,1.03,1.93,9.77,6.33,13.11,12.6,2.82,5.3,3.7,13.9-2.56,17.24-9.15,4.88-24.68-13.02-30.53-18.97-1.34-1.35-3.46-1.46-5.06-.6-9.31,4.96-18.03,10.65-26.83,16.57-1.68,1.1-4.11,1.57-2.74,4.14,1.88,3.53,4.82,6.71,6.7,10.24,2.91,5.46,4.7,14.61-2.04,18.2-9.79,5.22-19.19-11.62-22.78-18.36-3.6-6.74-10.87-20.39-7.4-27.8,1.85-3.87,7.07-6.45,10.51-8.9,11.11-7.78,22.56-14.92,34.6-21.34,16.69-8.9,33.74-16.76,50.52-25.5,7.79-3.95,14.54-7.14,19.65,1.27,5.79,9.7,7,12.35,14.1,25.67,2.4,4.49,4.95,8.9,5.5,14.18.43,3.9-.92,8.33-4.61,10.29-6.26,3.34-12.94-3-15.68-8.13Z"/>
      </g>
    </g>
    <g class="cls-6">
      <g class="cls-6">
        <path d="M432.32,2243.66c-.16,2.72.43,5.6.02,8.27-.31,2.82-1.84,5.79-4.27,7.4-6.07,4.01-12.81-1.57-16.02-6.42-.5-.76-.75-1.47-1.25-2.23-6.26-11.78,3.77-46.1,1.16-50.05-1.2-1.82-5.71,1.59-7.02,2.24l-25.18,14.03c-7.99,4.41-14.43,1.25-19.25-6.03-5.62-8.5-3.37-15,4.82-20.42,3.64-2.41,7.69-4.21,11.33-6.61,6.22-4.11,9.25-3.5,13.39-5.8,18.76-10.87,37.68-21.85,56.74-32.26.61-.4,1.31-.65,2.07-1.15,3.34-2.21,1.74-6.6,5.23-8.91,11.23-7.42,35.95,18.11,41.57,26.61,11.23,17,14.51,42.09-4.76,54.83-3.19,2.11-6.78,3.61-10.36,4.45-14.75,3.42-28.15-1.68-41.14-8.14-.96-.46-1.81-.76-2.72-.16-1.52,1-4.14,26.72-4.36,30.36ZM438.6,2186.52c.2.3.65.66,1,.86,9.71,6.45,25.33,12.26,36.1,5.14,7.13-4.71,6.76-12.54,2.45-19.06-1.2-1.82-2.91-3.75-4.57-5.27-1.91-1.57-4.69-1.48-6.76-.33-8.9,5.01-18.5,9.61-27,15.23-1.21.8-2.13,2.06-1.22,3.43Z"/>
      </g>
    </g>
    <g class="cls-6">
      <g class="cls-6">
        <path d="M552.53,2329.42c-.65.09-1.16.06-1.57.43-.81.73-.49,1.91-.03,2.96,1.01,2.76,2.42,5.16,3.42,8.17,4.14,11.43,3.39,22.86-4.43,31.58-.42.62-1.23,1.35-1.91,1.96-18.96,17-51.41,9.69-72.44-3.95-4.36-2.69-8.71-5.63-12.11-9.42-2.79-3.12-4.9-7.09-5.06-11.1-.46-5.69-1.44-8.97,3.16-13.1,1.35-1.21,2.83-2.29,4.05-3.39l79.91-71.65c4.88-4.37,8.6-8.94,16.11-4.92,9.01,4.87,19.08,11.47,26.25,19.47,11.05,12.33,16.82,29.39,3.95,40.92-10.29,9.23-25.6,11.23-39.3,12.03ZM488.71,2356.34c11.21,4.61,30.75,5.41,39.83-2.72,8.8-7.89,5.58-17.22-1.95-25.61-1.34-1.49-2.67-2.98-4.14-4.35-1.59-1.5-3.34-.18-4.56.91-1.35,1.21-2.47,2.7-3.82,3.91l-26.55,23.8c-.81.73-1.02,2.13-.17,3.08.36.41.86.69,1.36.98ZM543.93,2305.12c9.4.13,21.92-2.8,28.7-8.87,2.3-2.06,4.8-5.28,2.12-8.26-2.43-2.71-7.33-7.36-10.71-4.32l-21.13,18.95c-.41.37-1.23,1.35-.63,2.03.36.41,1.27.33,1.65.48Z"/>
      </g>
    </g>
    <g class="cls-6">
      <g class="cls-6">
        <path d="M656.03,2380.31c-3.49-3.19-6.6-6.53-10.09-9.73-1.88-1.72-3.81-1.76-5.67,0-2.73,2.44-5.05,5.24-7.64,7.8-2.96,2.96-6.18,5.94-9,9.02-.98,1.07-1.56,2.52-.36,3.62,1.61,1.47,11.32,2.72,16.55,7.51,4.43,4.05,8.12,11.88,3.33,17.11-7,7.65-27.6-4.06-35.1-7.73-1.71-.83-3.74-.22-4.97,1.12-7.13,7.78-13.46,16.04-19.78,24.56-1.22,1.6-3.35,2.85-1.2,4.82,2.95,2.7,6.77,4.72,9.73,7.43,4.56,4.18,9.29,12.21,4.13,17.84-7.49,8.18-21.96-4.57-27.6-9.73-5.64-5.16-17.04-15.6-16.24-23.75.46-4.27,4.52-8.44,6.94-11.89,7.88-11.03,16.3-21.58,25.52-31.64,12.78-13.95,26.24-27.04,39.15-40.87,6.03-6.32,11.34-11.57,18.95-5.34,8.69,7.21,10.71,9.31,21.85,19.51,3.76,3.44,7.64,6.75,9.91,11.54,1.7,3.53,1.9,8.16-.92,11.24-4.79,5.23-13.2,1.48-17.49-2.45Z"/>
      </g>
    </g>
    <g class="cls-6">
      <g class="cls-6">
        <path d="M684.3,2544.54c-7.89-1.63-15.23-4.9-21.61-9.73-28.29-21.4-18.15-55.92.07-80.01,19.2-25.39,56.35-51.58,86.96-28.43,7.83,5.93,13.4,14.24,17.12,23.21,1.55,3.68,2.77,8.71.02,12.33-3.95,5.22-12.6,2.79-16.95-.51-7.98-6.04-6.93-14.36-13.02-18.97-3.92-2.96-12.99-.02-17.14,1.86-13.19,5.99-24.7,16.67-33.37,28.13-7.46,9.87-18.96,28.09-14.97,40.91.68,2.11,1.69,3.79,3.58,5.22,6.67,5.05,18.95,2.7,25.76,7.85,4.5,3.4,8.94,11.1,4.88,16.46-4.72,6.24-14.89,3.11-21.33,1.66Z"/>
      </g>
    </g>
    <g class="cls-6">
      <g class="cls-6">
        <path d="M750.53,2513.85c14.34-23.86,43.71-41.65,71.34-30.77,5.46,2.22,10.82,4.59,15.97,7.69,25.73,15.46,28.42,40.64,13.61,65.28-17.99,29.94-52.32,45.38-84.13,26.26-26.04-15.65-32.26-42.74-16.79-68.46ZM776.04,2527.91c-7.03,11.69-11.85,28.54,2.34,37.07,16.84,10.12,39.38-9.02,47.81-23.05,3.75-6.24,11.75-25.2,3.49-30.17-1.87-1.12-3.87-1.69-5.74-2.81-2.18-1.31-4.08-3.09-6.27-4.4-13.25-7.97-35.26,12.76-41.64,23.37Z"/>
      </g>
    </g>
    <g class="cls-6">
      <g class="cls-6">
        <path d="M1009.04,2580.53c-8.31,19.4-17.03,38.82-24.5,58.57-1.84,4.75-4.08,9.53-5.01,14.47-.62,3.3.5,7.14-.79,10.15-2.87,6.69-13.45,6.91-19.13,4.47-17.06-7.31-7.15-25.82-2.56-37.91,3.25-8.5,7.07-16.96,10.15-25.54.21-.5.79-1.84-.05-2.2-2.17-.93-22.43,17.7-37.81,11.11-12.88-5.52-17.13-37.62-21.65-39.55-2.34-1-6.57,7.48-7.52,9.25-9.29,16.6-17.77,33.16-25.22,50.55-3.94,9.2-9.72,12.06-19.25,7.98-9.36-4.01-11.71-10.56-7.77-19.75,5.87-13.71,39.14-79.81,50.39-83.9,3.51-1.27,7.29-.84,10.63.6,11.87,5.09,22.89,24.65,27.09,36.54,1.08,3.03,1.72,8.46,4.9,9.82,7.36,3.15,42.18-31.01,60.91-22.99,8.36,3.58,10.7,10.13,7.19,18.32Z"/>
      </g>
    </g>
    <g class="cls-6">
      <g class="cls-6">
        <path d="M1083.52,2613.34c-4.55-1.3-8.82-2.91-13.36-4.21-2.45-.7-4.2.12-5.08,2.52-1.35,3.4-2.18,6.94-3.36,10.39-1.33,3.97-2.88,8.07-4.04,12.09-.4,1.4-.28,2.95,1.29,3.4,2.1.6,11.35-2.61,18.17-.65,5.77,1.66,12.56,7.01,10.6,13.83-2.86,9.97-26.52,8.66-34.87,8.73-1.9.02-3.45,1.47-3.95,3.22-2.91,10.14-4.9,20.36-6.76,30.8-.38,1.97-1.73,4.05,1.07,4.85,3.85,1.1,8.17,1.21,12.02,2.31,5.95,1.71,13.76,6.79,11.65,14.13-3.06,10.67-21.7,5.69-29.04,3.59-7.34-2.11-22.21-6.38-25.12-14.03-1.49-4.03.29-9.57.92-13.74,2.14-13.39,4.98-26.58,8.75-39.69,5.22-18.18,11.44-35.89,16.84-54.03,2.58-8.34,4.99-15.41,14.58-13.22,10.99,2.59,13.74,3.57,28.25,7.73,4.9,1.41,9.84,2.64,14.01,5.92,3.1,2.4,5.34,6.45,4.18,10.48-1.96,6.82-11.15,7.21-16.75,5.6Z"/>
      </g>
    </g>
    <g class="cls-6">
      <g class="cls-6">
        <path d="M1230.27,2675.34c4.53.42,4.48.78,5.11-3.91,1.18-8.83,2.75-17.8,3.93-26.64.39-2.88.61-5.97,1-8.86,1.04-7.75,9.87-9.33,16.36-8.46,10.1,1.35,13.46,6.39,12.14,16.3-1.21,9.02-2.77,17.98-3.97,27-2.24,16.77-3.42,33.86-5.66,50.63-1.74,12.98-1.28,28.83-19.31,26.42-6.85-.92-14-6.46-12.97-14.21.27-1.98,1.25-3.87,1.52-5.86l3.66-27.41c.29-2.16-1.61-4.44-3.8-4.54l-21.96-1.83c-6.54-.51-6.59-.15-7.61,6.14-1.47,8.25-2.58,16.54-3.69,24.84-.84,6.31-1.17,12.88-2.01,19.19-1.13,8.47-8.83,11.12-16.4,10.1-17.13-2.29-12.7-16.2-11.02-28.82,3.71-27.77,9.02-55.14,12.73-82.91,1.76-13.16,1.29-27.54,19.69-25.08,6.85.91,12.91,5.03,11.87,12.78-1.73,12.98-4.53,25.64-6.26,38.62-.34,2.52.91,4.16,3.44,4.5,7.75,1.04,15.42,1.33,23.22,2Z"/>
      </g>
    </g>
    <g class="cls-6">
      <g class="cls-6">
        <path d="M1296.82,2690.65c.11-5.64.58-11.27,1.06-16.9,1.16-12.89,2.06-30.89,19.34-30.55,6.37.12,14.69,2.47,14.54,10.29-.1,4.91-2.91,9.4-3.74,14.3-1.23,7.25-1.75,14.89-1.89,22.34-.11,5.82.57,35.86,8.57,36.01,1.27.02,2.19-.5,3.12-1.21,14.4-10.82,24.79-48.82,26.59-66.62.46-5.09-.53-10.02,4.09-13.57,3.14-2.49,7.35-3.5,11.17-3.42,8,.16,14.48,4.1,14.31,12.83-.2,10.19-3.55,23.58-6.48,33.53-7.03,24.79-21.74,60.53-52.66,59.92-32.37-.63-38.52-30.77-38.01-56.97Z"/>
      </g>
    </g>
    <g class="cls-6">
      <g class="cls-6">
        <path d="M1499.98,2747.64c-5.47-3.46-8.13-11.61-10.9-17.17-4.14-8.35-26.33-57.29-31.44-58.96-.72.07-.78,1.36-.9,1.92-1.47,16.06-.38,33.87,1.26,49.97,1.24,12.13,4.3,24.25-12.53,25.97-9.05.92-15.1-2.85-16.06-12.26-.35-3.44-.14-6.75-.31-10.21-1.66-25.25-2.4-50.41.49-75.75.76-6.84,1.06-12.91,8.04-16.18,1.74-.91,3.87-1.49,5.86-1.7,4.16-.42,8.47.6,12.48,2.2,29.19,11.83,42.12,52.57,45.58,54.22.71-.25.58-1.52.54-1.88.78-15.62.28-31.3-.21-46.79-.12-6.57-2.49-15.47,2.83-20.59,2.84-2.67,6.54-3.96,10.16-4.33,8.87-.91,15.03,2.12,15.97,11.35.65,6.33.19,12.6.29,18.99.58,25.36.39,50.43-3.26,75.49-.96,6.68-1.2,15.12-4.43,21.12-2.29,4.44-6.65,6.53-11.53,7.03-3.98.41-8.44-.24-11.95-2.44Z"/>
      </g>
    </g>
    <g class="cls-6">
      <g class="cls-6">
        <path d="M1636.97,2614.33c-5.51,1.21-10.11,3.15-16.69,4.6-2.13.47-3.7,2.67-3.23,4.81l18.74,85.29c.9,4.09,2.15,8.1,3.09,12.36,2.26,10.3-.2,16.06-11.21,18.48-15.81,3.47-17.09-7.42-19.74-19.5-1.99-9.06-1.42-9-3.41-18.06l-16.71-76.05c-.51-2.31-2.6-3.34-4.91-2.83-4.97,1.09-3.26,1.28-8.23,2.37-6.22,1.37-25.23,5.54-27.34-4.05-2.11-9.59,5.93-12.85,13.04-14.41,14.75-3.24,22.8-5.57,37.55-8.81,9.6-2.11,48.93-12.98,52.24,2.12,1.56,7.11-7.15,12.38-13.19,13.7Z"/>
      </g>
    </g>
    <g class="cls-6">
      <g class="cls-6">
        <path d="M1704.55,2595.56c-4.5,1.44-8.95,2.48-13.45,3.92-2.43.78-3.42,2.43-2.82,4.91.76,3.58,2.04,6.99,2.98,10.51,1.1,4.04,2.09,8.31,3.36,12.29.44,1.39,1.41,2.61,2.97,2.11,2.08-.67,7.98-8.48,14.74-10.64,5.72-1.83,14.34-1.15,16.5,5.6,3.16,9.88-17.23,21.94-24.14,26.64-1.57,1.07-2.05,3.14-1.5,4.87,3.22,10.05,7.25,19.65,11.5,29.36.78,1.85.81,4.33,3.58,3.44,3.81-1.22,7.46-3.54,11.28-4.75,5.89-1.89,15.21-2,17.54,5.27,3.38,10.57-14.87,16.79-22.15,19.12-7.28,2.33-22,7.04-28.68,2.3-3.48-2.52-5.08-8.12-6.88-11.93-5.66-12.32-10.63-24.87-14.79-37.86-5.77-18.02-10.44-36.2-16.03-54.27-2.49-8.37-4.42-15.59,4.77-19.1,10.58-3.96,13.4-4.67,27.78-9.28,4.85-1.55,9.65-3.28,14.93-2.87,3.91.28,8.03,2.4,9.3,6.38,2.16,6.76-5.27,12.19-10.81,13.97Z"/>
      </g>
    </g>
    <g class="cls-6">
      <g class="cls-6">
        <path d="M1792.68,2549.72c20.73.76,35.67,13.33,43.68,31.87,4.25,9.85,6.46,21.38,6.01,32.28-.87,22.77-13.07,51.41-35.12,60.93-8.52,3.68-13.96,3.45-19.81-4.13-9.04-11.75-16.25-28.46-22.16-42.15-4.11-9.52-7.96-19.35-11.73-29.01-2.84-7.49-7.78-16.65-9.48-24.25-1.38-5.94,3.91-11.59,9.09-13.83,2-.87,3.98-1.32,5.99-2.19,3.68-1.59,7.21-3.51,10.88-5.09,6.51-2.81,15.59-4.75,22.66-4.43ZM1808.45,2643.17c8.08-14.78,7.93-35.33,1.37-50.53-5.91-13.7-18.13-25.46-33.83-18.68-1.34.58.13,3.51.49,4.35,8.29,19.21,14.58,39.28,25.17,59.67.72,1.67,3.78,9.66,6.8,5.19Z"/>
      </g>
    </g>
  </g>
  <g id="Layer_9_copy_4" data-name="Layer 9 copy 4">
    <g class="cls-6">
      <g class="cls-6">
        <path class="cls-18" d="M523.18,580.63c3.81-10.36,9.57-21.22,17.28-32.58,7.71-11.35,16.36-21.88,25.94-31.59,9.58-9.7,19.6-17.77,30.04-24.21,10.44-6.43,20.4-10.02,29.88-10.75,16.74,8.47,35.59,22.04,56.55,40.71,20.96,18.68,43.56,39.99,67.79,63.91,43.44,42.9,78.09,81.26,103.95,115.06,25.86,33.81,42.77,65.45,50.75,94.91,7.97,29.47,6.78,57.85-3.56,85.18-10.34,27.32-30.15,55.8-59.4,85.42-14.73,14.92-30.28,27.11-46.63,36.58-16.36,9.48-34,15.06-52.9,16.77-18.91,1.72-39.43-1-61.57-8.14-22.14-7.13-46.31-19.6-72.51-37.4-12.75-8.96-26.01-19.33-39.77-31.1-13.76-11.77-27.45-24.08-41.05-36.9-13.6-12.83-26.78-25.63-39.53-38.44-12.76-12.8-24.74-24.74-35.98-35.83-23.05-22.76-42.96-43.23-59.74-61.42-16.78-18.17-28.7-35.8-35.77-52.88,2.6-9.13,7.6-18.92,15-29.38,7.4-10.45,16.04-20.38,25.92-29.8,9.88-9.41,20.29-17.89,31.25-25.44,10.95-7.54,21.33-12.73,31.13-15.57,6.44,3.54,14.68,10.26,24.73,20.18,10.05,9.92,22.16,21.89,36.35,35.9,11.82,11.67,23.08,22.89,33.76,33.64,10.69,10.76,21.2,21.24,31.54,31.45,10.35,10.22,20.86,20.7,31.54,31.45,10.69,10.76,21.94,21.97,33.76,33.64,5.62,5.55,11.64,10.69,18.06,15.41,6.42,4.73,12.88,8.39,19.38,10.96,6.5,2.59,12.79,3.76,18.87,3.5,6.08-.25,11.44-2.72,16.08-7.42,5.45-5.52,8.06-11.71,7.85-18.59-.22-6.87-2.18-14.05-5.87-21.54-3.7-7.48-8.86-15.11-15.5-22.87-6.63-7.76-13.64-15.29-21.03-22.59-19.21-18.97-40.06-38.35-62.55-58.13-22.49-19.79-43.19-39.01-62.1-57.69-8.27-8.17-15.74-15.24-22.4-21.21-6.65-5.96-13.17-13.71-19.53-23.22Z"/>
      </g>
    </g>
    <g class="cls-6">
      <g class="cls-6">
        <path class="cls-18" d="M1171.87,613.15c4.35,10.85,7.14,22.27,8.37,34.27,1.22,12,1.14,23.64-.28,34.91-1.42,11.27-4.07,21.89-7.93,31.87-3.88,9.97-8.86,18.42-14.97,25.35-4.85-1.23-11.15-4.15-18.9-8.78-7.75-4.63-15.89-9.99-24.4-16.09-8.52-6.1-17-12.45-25.46-19.05-8.46-6.59-15.94-12.42-22.45-17.46-15.57-12.49-28.22-22.64-37.95-30.46-9.73-7.81-17.5-13.71-23.31-17.72-5.81-4-10.13-6.55-12.97-7.65-2.84-1.09-5.15-1.18-6.93-.25-2.81,1.46-3.59,4.45-2.38,8.96,1.22,4.53,3.65,10.28,7.29,17.28,2.88,5.53,6.89,12.46,12.03,20.78,5.14,8.33,10.62,17.3,16.44,26.91,5.81,9.62,11.87,19.7,18.16,30.23,6.29,10.54,12.13,20.97,17.5,31.28,2.3,4.42,3.68,9.55,4.14,15.41-4.9,6.76-10.69,13.52-17.37,20.28-6.68,6.75-13.72,12.99-21.1,18.71-7.39,5.71-14.89,10.44-22.49,14.17-7.62,3.72-14.7,6.13-21.26,7.21-7.21-1.4-13.46-5.64-18.76-12.71-7.54-10.12-16.02-22.68-25.44-37.68-9.43-14.99-19.04-30.82-28.85-47.49-9.81-16.67-19.29-33.16-28.42-49.47-9.14-16.31-16.97-30.73-23.49-43.26-9.01-17.31-19.07-37.24-30.16-59.8-11.09-22.55-22.12-45.6-33.09-69.16-10.97-23.55-21.07-46.38-30.32-68.5-9.25-22.11-16.55-41.13-21.93-57.06-.64-2.47-1.01-4.74-1.11-6.8-.1-2.06-.02-4.08.23-6.09,4.58-4.25,10.77-9,18.57-14.23,7.8-5.22,16.12-9.91,24.98-14.06,8.85-4.13,17.53-7.37,26.04-9.69,8.5-2.32,15.4-2.75,20.69-1.29,4.72,2.23,8.91,6.84,12.55,13.84,4.6,8.84,8.44,17.15,11.51,24.91,3.07,7.77,6.14,15.53,9.21,23.3,3.07,7.77,6.29,15.81,9.65,24.13,3.36,8.32,7.73,17.64,13.09,27.95,2.69,5.16,5.51,9.19,8.48,12.09,2.97,2.91,5.85,3.63,8.66,2.17,1.53-.8,2.81-3.92,3.86-9.38,1.04-5.46,1.85-12.31,2.41-20.57.56-8.25.93-17.34,1.1-27.26.18-9.92.16-19.75-.05-29.48-.27-9.22-.11-19.49.48-30.8.59-11.3,1.59-22.13,3.01-32.47,1.42-10.33,3.28-19.5,5.6-27.5,2.31-7.99,5.03-13.03,8.15-15.13,6.5-.57,14.5.65,24,3.66,9.5,3.02,19.26,7.3,29.27,12.86,10.01,5.56,19.65,12.25,28.9,20.07,9.25,7.83,16.63,16.4,22.12,25.71.21,7.86-.18,17.07-1.15,27.64-.97,10.58-2.28,21.44-3.92,32.59-1.64,11.16-3.45,22.29-5.44,33.39-1.99,11.11-4.03,21.18-6.12,30.23-1.71,7.91-2.84,14.59-3.41,20.04-.56,5.45-.72,9.98-.46,13.58.26,3.62.88,6.68,1.88,9.21.99,2.53,2.06,4.9,3.21,7.11,2.11,4.06,8.15,9.45,18.14,16.19,9.98,6.74,21.9,13.78,35.74,21.08,10.01,5.56,19.72,10.69,29.13,15.38,9.41,4.71,18.5,9.58,27.27,14.6,8.77,5.04,17.3,10.55,25.6,16.52,8.29,5.99,16.56,13.15,24.79,21.51Z"/>
      </g>
    </g>
    <g class="cls-6">
      <g class="cls-6">
        <path class="cls-18" d="M1332.73,188.61c9.25-6.02,20.36-11.29,33.33-15.78,12.97-4.49,26.2-7.76,39.68-9.81,13.48-2.05,26.34-2.53,38.56-1.45,12.21,1.09,22.34,4.17,30.38,9.25,8.36,16.8,15.35,38.94,20.99,66.44,5.63,27.5,11.01,58.09,16.12,91.76,9.17,60.36,14.01,111.83,14.53,154.38.51,42.57-4.85,78.04-16.07,106.42-11.23,28.39-29.16,50.43-53.78,66.15s-57.53,26.7-98.69,32.95c-20.73,3.15-40.48,3.63-59.26,1.44-18.78-2.19-36.26-8.26-52.43-18.18-16.18-9.93-31.01-24.37-44.49-43.34-13.49-18.95-25.41-43.4-35.76-73.33-4.86-14.8-9.29-31.04-13.28-48.71-3.99-17.67-7.6-35.71-10.84-54.12-3.23-18.41-6.14-36.56-8.71-54.45-2.57-17.88-5.04-34.62-7.42-50.23-4.87-32.03-8.59-60.34-11.17-84.95-2.58-24.6-1.6-45.86,2.94-63.78,7.54-5.76,17.41-10.62,29.59-14.58,12.18-3.95,25.04-6.74,38.59-8.38,13.54-1.63,26.96-2.21,40.26-1.71,13.29.5,24.71,2.55,34.26,6.14,3.04,6.69,5.63,17,7.75,30.96,2.12,13.96,4.68,30.8,7.67,50.51,2.5,16.43,4.81,32.14,6.95,47.15,2.13,15.02,4.29,29.7,6.48,44.07,2.18,14.38,4.34,29.07,6.48,44.07,2.13,15.02,4.45,30.73,6.95,47.15,1.19,7.8,2.94,15.52,5.26,23.15,2.32,7.63,5.31,14.42,8.98,20.38,3.66,5.96,8,10.66,13.03,14.09,5.02,3.44,10.8,4.66,17.33,3.67,7.67-1.17,13.47-4.57,17.4-10.21,3.94-5.64,6.66-12.56,8.17-20.78,1.51-8.21,1.93-17.41,1.25-27.6-.68-10.19-1.79-20.41-3.35-30.68-4.05-26.69-9.18-54.69-15.38-84-6.2-29.3-11.29-57.09-15.28-83.38-1.75-11.49-3.5-21.62-5.27-30.39-1.77-8.76-2.36-18.86-1.77-30.29Z"/>
      </g>
    </g>
    <g class="cls-6">
      <g class="cls-6">
        <path class="cls-18" d="M1635.88,674.15c-8.11,2-17.22,2.92-27.34,2.77-10.12-.16-20.01-1.33-29.68-3.51s-18.75-4.98-27.25-8.39c-8.5-3.42-15.33-7.41-20.48-11.97-1.9-7.24-2.7-15.41-2.42-24.5.29-9.09,1.29-18.76,3.02-29.02,1.72-10.25,3.85-20.95,6.37-32.09,2.52-11.14,5.06-22.38,7.62-33.73,8.14-36.05,16.8-71.78,25.98-107.18,9.17-35.39,17.83-71.12,25.98-107.18,1.46-6.48,2.97-12.84,4.53-19.1,1.56-6.25,2.79-12.67,3.7-19.28.54-3.71.15-7.2-1.17-10.48-1.32-3.27-2.55-7.28-3.69-12.01-1.14-4.73-1.77-10.72-1.9-17.99-.13-7.26,1.23-17.18,4.07-29.74,2.83-12.55,5.4-22.3,7.71-29.24,2.3-6.93,4.61-12.26,6.93-16,2.31-3.73,4.73-6.28,7.24-7.62s5.49-2.48,8.94-3.41c2.88-1.04,7.57-1.58,14.05-1.62,6.48-.02,13.57.19,21.27.65,7.69.46,15.11,1.18,22.25,2.15,7.14.97,12.81,1.94,17.01,2.89,18.21,4.11,36.57,8.48,55.12,13.09,18.53,4.62,36.19,10.52,52.96,17.71,16.77,7.2,31.97,16.48,45.6,27.86,13.62,11.38,24.5,25.76,32.65,43.14,8.14,17.39,12.92,38.59,14.34,63.6,1.41,25.02-1.81,54.95-9.68,89.79-6.86,30.38-15.6,55.03-26.2,73.92-10.6,18.9-22.17,33.63-34.72,44.21-12.55,10.58-25.72,17.72-39.5,21.41-13.79,3.7-27.29,5.44-40.48,5.22-13.2-.21-25.83-1.68-37.87-4.4-12.05-2.72-22.55-5.09-31.51-7.12-5.61-1.27-10.09-1.96-13.44-2.08-3.36-.12-6.09.86-8.17,2.94-2.09,2.08-3.85,5.31-5.28,9.67-1.43,4.37-3.01,10.4-4.75,18.09-1.1,4.86-2.33,10.97-3.7,18.33-1.37,7.36-2.8,15.02-4.31,22.98-1.51,7.96-2.94,15.62-4.31,22.98-1.37,7.35-2.6,13.46-3.7,18.33-1.55,6.88-3.49,12.19-5.81,15.93ZM1707.3,365.82c-2.75,12.15-4.45,21.67-5.12,28.54-.67,6.87-.11,12.22,1.68,16.03,1.79,3.82,4.9,6.65,9.34,8.5,4.44,1.86,10.29,3.6,17.58,5.25,5.32,1.2,11.45,1.74,18.41,1.6,6.94-.13,13.7-1.7,20.27-4.68,6.56-2.99,12.65-7.78,18.27-14.39,5.61-6.61,9.75-15.78,12.4-27.54,1.37-6.08,1.93-12.44,1.67-19.1-.26-6.66-1.88-12.88-4.84-18.66-2.97-5.78-7.46-10.95-13.5-15.5-6.04-4.56-14.1-7.97-24.18-10.25-8.13-1.84-14.89-2.51-20.3-2.03-5.41.48-10.02,2.64-13.82,6.46-3.81,3.83-7.05,9.38-9.72,16.65-2.68,7.28-5.38,16.99-8.13,29.14Z"/>
      </g>
    </g>
    <g class="cls-6">
      <g class="cls-6">
        <path class="cls-18" d="M2106.82,874.31c-5.62,3.25-13.75,3.82-24.42,1.71-10.67-2.12-21.9-5.84-33.69-11.19-11.79-5.35-23.01-11.82-33.66-19.4-10.65-7.59-18.76-15.23-24.33-22.92,4.27-12.13,8.24-24.57,11.91-37.35,3.66-12.77,7.76-24.64,12.29-35.59,2.95-6.51,4.45-12.01,4.49-16.47.04-4.46-1.04-8.55-3.23-12.25-2.19-3.7-5.63-7.36-10.3-10.96-4.68-3.6-10.48-7.72-17.41-12.33-3.35-2.23-7.24-4.93-11.66-8.13-4.43-3.19-8.91-6.04-13.44-8.57-4.54-2.51-8.88-4.53-13.04-6.06-4.16-1.52-7.53-1.64-10.11-.36-2.58,1.28-4.98,2.56-7.2,3.82-2.22,1.27-4.74,2.96-7.53,5.09-2.8,2.13-6.11,4.91-9.95,8.35-3.84,3.43-8.9,8.05-15.17,13.86-5.58,5.27-10.46,10.01-14.63,14.21-4.18,4.21-7.83,7.88-10.96,11.04-3.13,3.15-6.09,6.05-8.88,8.68-2.79,2.64-5.7,4.93-8.73,6.91-8.11-3.89-16.29-9.47-24.58-16.72-8.28-7.26-15.99-15.12-23.1-23.6-7.12-8.48-13.18-17.13-18.19-25.94-5-8.81-8.16-16.9-9.47-24.26,2.76-4.15,6.28-8.66,10.56-13.55,4.28-4.88,8.74-9.9,13.37-15.05,4.63-5.15,9.2-10.08,13.73-14.81,4.52-4.72,8.52-8.92,12-12.59,18.77-20.44,40.21-43.22,64.33-68.32,24.12-25.11,49.07-49.67,74.86-73.66,25.79-24,51.21-45.87,76.25-65.63,25.04-19.75,47.76-34.08,68.15-42.96,6.8-2.96,14.15-4.3,22.08-4.02,7.91.28,16.21,1.69,24.88,4.2,8.67,2.53,17.29,5.89,25.87,10.1s16.82,8.94,24.71,14.19c5.5,3.66,11.43,8.61,17.81,14.84,6.37,6.23,12.17,13.33,17.39,21.3,5.22,7.96,9.33,16.81,12.35,26.54,3,9.74,3.67,20.02,1.97,30.87-2.09,15.07-5.86,32.39-11.29,51.98-5.44,19.58-12.03,40.51-19.78,62.79-7.75,22.28-16.37,45.48-25.86,69.6-9.49,24.12-19.28,48.04-29.36,71.75-10.09,23.72-20.3,46.86-30.64,69.41-10.35,22.55-20.07,43.52-29.17,62.9-1.37,3.09-2.73,6.3-4.08,9.63-1.36,3.34-3.08,6.31-5.16,8.92ZM2030.57,575.94c-6.95,7.85-8.97,13.74-6.06,17.67,2.91,4.44,6.52,7.96,10.82,10.56,4.29,2.61,8.48,5.27,12.55,7.97,6.46,4.29,12.06,7.4,16.82,9.32,4.75,1.92,8.73,2.82,11.92,2.69,3.19-.12,5.71-.94,7.57-2.44,1.86-1.5,3.36-3.62,4.49-6.37,2.27-4.97,6.31-13.38,12.12-25.23,5.81-11.85,11.31-24.27,16.52-37.28,5.2-13,8.94-24.98,11.23-35.93,2.28-10.95,1.03-18.02-3.75-21.2-3.59-2.38-9.64-.55-18.15,5.51-8.52,6.06-17.65,13.83-27.4,23.3-9.76,9.48-19.15,19.06-28.19,28.76-9.04,9.7-15.87,17.25-20.5,22.65Z"/>
      </g>
    </g>
    <g class="cls-6">
      <g class="cls-6">
        <path class="cls-18" d="M2374.69,1012.49c-3.03,5.17-10.08,12.35-21.15,21.56-11.07,9.21-23.72,18.87-37.93,28.99-14.22,10.12-28.97,19.82-44.25,29.1-15.29,9.28-28.81,16.34-40.58,21.17-6.15-2.43-13.28-5.94-21.38-10.51-8.1-4.59-16.46-10.29-25.08-17.11-8.62-6.83-17.17-14.48-25.65-22.96-8.48-8.49-16.18-17.84-23.09-28.07-14.62-21.66-24.08-44.21-28.38-67.64-4.29-23.44-1.92-47.56,7.13-72.38,9.05-24.82,25.53-50.5,49.45-77.05,23.92-26.54,56.53-53.77,97.84-81.66,42.34-28.59,79.94-48.61,112.8-60.06,32.86-11.45,62.09-16.03,87.7-13.74,25.6,2.29,47.98,10.57,67.14,24.83,19.15,14.27,36.45,32.82,51.88,55.67,12.54,18.56,22.28,35.97,29.26,52.23,6.96,16.26,11.26,30.42,12.9,42.48-2.13,3.52-6.54,8.32-13.22,14.38-6.68,6.07-14.42,12.6-23.23,19.59-8.81,6.99-18.4,14.32-28.74,22.01-10.35,7.68-20.47,14.77-30.36,21.28-9.89,6.5-18.96,12.19-27.19,17.06-8.25,4.87-14.92,8.34-20.03,10.41-.05-8.98.91-17.94,2.88-26.9,1.96-8.95,3.39-17.97,4.28-27.06.88-9.09.38-18.54-1.49-28.36-1.88-9.83-6.42-20.09-13.66-30.8-5.3-7.85-12.63-14.26-21.99-19.2-9.35-4.95-20.13-7.72-32.31-8.33-12.19-.61-25.55,1.31-40.09,5.76-14.55,4.45-29.73,12.02-45.56,22.71-32.01,21.62-52.09,42.53-60.23,62.76-8.14,20.22-6.43,38.91,5.14,56.04,5.46,8.09,12.48,15.14,21.04,21.14,8.56,6,17.52,11.47,26.87,16.42,9.35,4.94,18.42,9.47,27.22,13.59,8.79,4.11,16.15,8.33,22.07,12.64Z"/>
      </g>
    </g>
    <g class="cls-6">
      <g class="cls-6">
        <path class="cls-18" d="M2749.55,1191.85c2.61,2.04,5.27,5.61,7.98,10.73,2.7,5.12,5.3,11.14,7.8,18.07,2.49,6.94,4.67,14.31,6.52,22.14,1.85,7.82,3.23,15.46,4.14,22.92.9,7.46,1.15,14.34.72,20.63-.43,6.3-1.7,11.32-3.8,15.06-.75.47-1.2.8-1.37.99-.18.19-.63.52-1.37.99-7.09,4.33-16.94,9.17-29.54,14.51-12.61,5.34-26.88,10.86-42.82,16.55-15.94,5.69-33.05,11.43-51.3,17.23-18.27,5.79-36.58,11.38-54.93,16.76-18.36,5.38-36.27,10.42-53.71,15.14-17.45,4.72-33.25,8.75-47.39,12.1-12.94,3.06-27.86,6.74-44.76,11.03-16.91,4.29-34.17,8.45-51.79,12.47-17.62,4.01-34.9,7.66-51.83,10.93-16.94,3.27-32.1,5.45-45.5,6.56-3.36.2-6.59.08-9.69-.36-3.09-.45-5.51-1.65-7.25-3.6-3.47-5.67-6-13.63-7.57-23.88-1.57-10.25-2.28-20.93-2.14-32.03.15-11.1,1.11-21.95,2.86-32.55,1.76-10.6,4.41-19.27,7.93-26,4.45-2.82,9.5-4.9,15.17-6.25,7.28-1.72,16.05-3.87,26.32-6.45,10.27-2.58,20.76-5.13,31.48-7.67,10.7-2.53,21.1-5.07,31.17-7.59,10.06-2.53,18.75-4.66,26.02-6.38,6.87-1.62,12.58-3.2,17.13-4.72,4.54-1.52,7.97-3.73,10.27-6.64,2.29-2.91,3.44-6.64,3.43-11.21-.02-4.57-.98-10.91-2.9-19.01-2.12-8.95-4.8-15.76-8.04-20.45-3.25-4.69-7.21-7.89-11.87-9.59-4.67-1.7-10.22-2.16-16.65-1.37-6.44.78-14.1,2.23-22.98,4.33-6.88,1.63-14.69,3.77-23.45,6.43-8.76,2.66-17.81,5.47-27.14,8.41-9.34,2.94-18.39,5.75-27.14,8.41-8.76,2.66-16.78,4.85-24.05,6.58-6.46,1.53-11.82,1.47-16.05-.19-4.23-1.65-8.6-3.87-13.1-6.64-3.14-4.28-6.7-10.74-10.67-19.39-3.97-8.65-7.32-17.9-10.08-27.72-2.75-9.83-4.6-19.43-5.53-28.79-.94-9.37.03-17.05,2.87-23.03,2.03-2.25,4.16-4.08,6.38-5.49,8.91-5.65,24.43-12.64,46.57-20.98,22.13-8.34,47.2-17,75.16-25.97,27.97-8.98,56.96-17.68,86.97-26.11,30.02-8.43,57.08-15.79,81.2-22.09,10.51-2.49,22.74-5.38,36.68-8.68s28.24-6.46,42.89-9.48c14.65-3.02,29.09-6,43.34-8.93,14.24-2.93,26.72-5.21,37.43-6.86,4.51-.77,8.83-1.42,12.98-1.96,4.13-.54,8.08-.07,11.85,1.4,3.35,3.34,6.62,8.17,9.83,14.49,3.2,6.33,6.13,13.3,8.79,20.94,2.66,7.63,4.96,15.57,6.92,23.82,1.95,8.24,3.48,16.07,4.59,23.48,1.11,7.41,1.59,13.93,1.43,19.58-.17,5.64-1.05,9.54-2.67,11.7-3.86,3.57-8.65,6.32-14.37,8.27-5.73,1.94-12.44,3.83-20.11,5.64-9.3,2.2-19.84,4.54-31.63,7.04-11.79,2.49-23.79,4.96-36.02,7.41-12.22,2.45-24.23,4.92-36.02,7.42-11.79,2.49-22.33,4.84-31.62,7.04-8.49,2.01-15.41,3.87-20.77,5.58-5.36,1.71-9.27,4.11-11.74,7.2-2.47,3.09-3.61,7.34-3.38,12.75.21,5.41,1.44,12.86,3.69,22.37,2.31,9.78,4.62,17.28,6.92,22.49,2.29,5.21,5.49,8.8,9.59,10.79,4.09,1.98,9.46,2.56,16.09,1.73,6.62-.83,15.6-2.58,26.92-5.26,8.08-1.91,17-4.32,26.78-7.22,9.77-2.9,19.69-6.06,29.77-9.48,10.07-3.42,20.03-6.88,29.87-10.39,9.83-3.51,18.9-6.69,27.19-9.53,7.47-2.65,15.4-5.27,23.75-7.83,8.35-2.57,14.78-3.35,19.29-2.35Z"/>
      </g>
    </g>
    <g class="cls-6">
      <g class="cls-6">
        <path class="cls-18" d="M2264.24,1848.73c-5.24-3.84-9.02-11.06-11.38-21.67-2.35-10.62-3.45-22.4-3.29-35.34.16-12.95,1.58-25.82,4.24-38.62,2.67-12.8,6.41-23.3,11.21-31.49,12.82-.97,25.81-2.33,38.98-4.1,13.17-1.78,25.68-2.79,37.54-3.04,7.15.08,12.78-.75,16.88-2.51,4.1-1.76,7.41-4.39,9.92-7.88,2.51-3.5,4.48-8.11,5.9-13.83,1.42-5.73,2.86-12.69,4.29-20.89.7-3.96,1.61-8.62,2.76-13.95,1.14-5.34,1.95-10.59,2.44-15.75.48-5.16.58-9.96.31-14.38-.28-4.42-1.52-7.56-3.73-9.4-2.21-1.85-4.34-3.54-6.39-5.06-2.05-1.53-4.62-3.15-7.69-4.85-3.08-1.71-6.96-3.62-11.64-5.76s-10.95-4.91-18.78-8.32c-7.07-2.99-13.37-5.55-18.89-7.68-5.53-2.14-10.37-4-14.51-5.6s-7.99-3.15-11.52-4.64c-3.53-1.49-6.81-3.24-9.84-5.22.31-8.99,2.12-18.73,5.44-29.22,3.32-10.5,7.42-20.72,12.33-30.64,4.9-9.93,10.39-18.95,16.45-27.08s12.19-14.26,18.41-18.42c4.91.86,10.45,2.27,16.65,4.23,6.19,1.96,12.58,4.02,19.15,6.2,6.58,2.17,12.93,4.38,19.08,6.62,6.14,2.24,11.59,4.22,16.35,5.93,26.26,8.97,55.73,19.46,88.41,31.46,32.69,12,65.2,24.98,97.53,38.96,32.34,13.98,62.58,28.46,90.74,43.45,28.15,14.99,50.4,30.04,66.72,45.15,5.44,5.03,9.62,11.23,12.55,18.6,2.92,7.36,4.97,15.52,6.15,24.47,1.17,8.95,1.55,18.2,1.15,27.75-.41,9.55-1.43,18.99-3.07,28.33-1.14,6.5-3.29,13.92-6.43,22.27-3.15,8.34-7.32,16.5-12.51,24.48-5.19,7.98-11.65,15.3-19.35,21.97-7.71,6.66-16.86,11.4-27.47,14.21-14.64,4.14-32.02,7.65-52.13,10.54-20.11,2.89-41.93,5.26-65.45,7.12-23.52,1.85-48.23,3.28-74.12,4.28-25.9,1-51.74,1.65-77.5,1.94-25.78.29-51.07.23-75.87-.18-24.81-.41-47.91-.89-69.32-1.43-3.38-.01-6.87.03-10.46.13-3.6.09-7.02-.29-10.24-1.14ZM2506.84,1659.03c-9.98-3.21-16.19-2.69-18.61,1.55-2.89,4.45-4.67,9.17-5.33,14.15-.67,4.98-1.42,9.88-2.26,14.69-1.34,7.64-1.93,14.02-1.77,19.15.15,5.12.93,9.13,2.33,12,1.4,2.87,3.15,4.85,5.28,5.95,2.12,1.1,4.67,1.62,7.63,1.56,5.46.08,14.79.41,27.98.97,13.18.56,26.78.61,40.77.15,14-.46,26.46-1.85,37.41-4.16,10.94-2.31,16.92-6.29,17.91-11.95.74-4.24-3.38-9.05-12.34-14.41-8.97-5.37-19.75-10.61-32.35-15.73-12.6-5.13-25.15-9.87-37.67-14.25-12.51-4.38-22.18-7.6-28.98-9.67Z"/>
      </g>
    </g>
  </g>
</svg>