<?xml version="1.0" encoding="UTF-8"?>
<svg xmlns="http://www.w3.org/2000/svg" viewBox="0 0 3732.74 3679.22">
  <defs>
    <style>
      .cls-1 {
        fill: #242133;
      }

      .cls-2 {
        fill: #77766b;
      }

      .cls-3 {
        fill: #76756b;
      }

      .cls-4 {
        fill: #c8c7b0;
      }

      .cls-5 {
        fill: #afad90;
      }

      .cls-6 {
        fill: #aeac90;
      }

      .cls-7 {
        fill: #c8c6a1;
      }

      .cls-8 {
        fill: #252234;
      }

      .cls-9 {
        fill: #c7c5a1;
      }

      .cls-10 {
        fill: #272436;
      }

      .cls-11 {
        fill: #e6e5c6;
      }

      .cls-12 {
        fill: #c9c7a2;
      }

      .cls-13 {
        font-size: 356px;
      }

      .cls-13, .cls-14, .cls-15, .cls-16 {
        fill: #211e31;
        font-family: SuperComic, 'Super Comic';
      }

      .cls-17 {
        fill: #221f32;
      }

      .cls-14 {
        font-size: 47px;
      }

      .cls-18 {
        fill: #bfbea7;
      }

      .cls-15 {
        font-size: 124px;
      }

      .cls-19 {
        fill: #afad91;
      }

      .cls-16 {
        font-size: 35px;
      }

      .cls-20 {
        fill: #78776c;
      }

      .cls-21 {
        font-family: BaksoSapi, 'Bakso Sapi';
        font-size: 181.92px;
      }
    </style>
  </defs>
  <g id="Layer_2" data-name="Layer 2">
    <g>
      <path class="cls-8" d="M2429.68,2219.58c-33.36,45.54-67.42,89.37-111.39,124.61-58.58,46.96-124.24,71.13-199.92,72.88-69.4,1.6-137.13,17.45-199.46,48.34-43.93,21.77-80.86,53.76-104.25,99.04-9.69,18.75-21.79,36.29-33.33,54.03-7.31,11.25-16.83,20.73-31.61,18.89-15.87-1.98-25.99-12.47-31.78-26.77-4.25-10.5-7.25-21.5-10.89-32.25-.77-2.28-1.89-4.44-3.66-8.55-4.16,4.17-7.52,7.19-10.47,10.57-16.8,19.3-32.74,39.43-50.43,57.88-25.3,26.38-56.02,23.16-75.03-8.18-7.71-12.7-12.12-27.64-16.58-42.01-4.11-13.23-6.29-27.07-10.13-44.28-7.87,9.17-15.35,15.85-20.29,24.05-11.4,18.94-21.43,38.7-32.28,57.98-8.52,15.14-16.92,30.39-26.31,44.98-8.99,13.96-21.35,24.13-38.27,27.42-12.48,2.43-20.68-.58-26.08-11.85-16.29-33.98-31.28-68.45-33.58-106.9-.24-3.99-1.52-7.92-2.65-13.56-9.53,9.87-14.39,20.45-16.91,31.73-5.45,24.37-9.32,49.11-15.08,73.4-4.88,20.56-11.17,40.82-17.51,61-4.86,15.48-16.67,24.09-31.69,28.75-14,4.34-25.05-.94-33.56-11.56-20.01-25-38.27-51.24-50.53-81.06-9.83-23.91-21.81-47.19-23.49-73.75-.15-2.35-1.67-4.61-2.99-8.02-11.09,13.18-16.45,27.33-17.94,43.39-2.14,23.1-8.94,44.56-24,62.82-14.78,17.91-32.95,18.94-49.82,2.86-37.57-35.8-57.51-80.27-63.78-131.22-2.43-19.75-3.58-39.66-5.34-59.5-.27-3.07-.65-6.14-1.21-11.38-2.75,3.57-4.27,5.35-5.6,7.28-8.98,13.08-20.11,14.86-31.85,4.09-4.23-3.89-7.62-9.38-9.73-14.8-20.37-52.4-22.97-105.5-8.06-160.05,6.39-23.38,13.74-45.88,25.77-66.94,2.83-4.96,4.38-11.19,4.73-16.95,1.65-27.27,15.97-48.76,30.79-70.14,29.25-42.22,69.87-69.91,115.85-90.6,17.86-8.04,36.12-15.18,54.15-22.85,4.27-1.82,8.34-4.12,14.08-6.98-3.49-2.99-5.47-5.43-8.02-6.76-24.54-12.75-41.76-33.64-58.54-54.48-10.02-12.45-7.07-28.22-1.57-41.84,9.01-22.32,24.49-40.54,42.61-56.02,7.16-6.12,8.99-11.52,7.01-20.35-17.95-80.04-14.51-159.13,13.82-236.31,24.06-65.55,64-118.83,125.57-154.1,1.37-.79,2.68-1.84,4.16-2.26,25.08-7.12,40.78-25.61,57.19-44.45,109.64-125.84,249.93-194.58,413.74-214.38,126.03-15.24,246.8,9.53,361.57,62.79,130.03,60.35,232.8,152.51,307.92,274.18,48.31,78.25,72.7,164.97,78.21,257.01,6.53,109.27-18.51,211.91-61.22,311.65-13.59,31.73-29.88,61.19-50.33,89.49ZM1730.16,2549.33c5.15,17.18,9.68,34.58,15.71,51.44,3.41,9.52,8.06,9.47,13.56,1.22,4.03-6.05,7.74-12.31,11.61-18.46,14.8-23.52,28.88-47.54,44.67-70.38,10.77-15.57,11.69-14.71-.36-29.71-14.76-18.36-33.26-29.12-57.24-28-5.14.24-10.15,3.51-16.33,6.55-6.9,28.2-15.48,56.18-11.61,87.34ZM1034.54,2287.54c-6.12-2.47-12.12-5.29-18.37-7.32-8.37-2.72-14.46.41-16.87,8.9-6.03,21.24-12.58,42.39-17.35,63.92-7.73,34.84-4.99,69.59,3.91,103.96,1.65,6.38,5.87,8.4,10.01,3.45,7.19-8.58,14.92-17.46,19.19-27.57,7.71-18.26,13.03-37.53,20.42-57.18,11.63-17.85,23.03-35.86,35.04-53.45,3.13-4.59,5.26-8.37-.03-11.86-11.46-7.56-23.25-14.62-35.95-22.84ZM1643.29,2428.85c-18.2-2.66-36.09-2.37-51.97,8.33-3.76,2.53-7.36,7.14-8.5,11.45-7.04,26.73-9.64,53.96-8.1,81.64,1.55,27.99,5.6,55.36,19.26,80.29,2.47,4.51,7.55,7.58,12.79,11.66,4.37-2.87,9.61-4.97,12.95-8.75,14.82-16.76,28.81-34.26,43.68-50.97,10.64-11.95,22.4-22.89,33.23-34.67,3.34-3.63,6.44-8.27,7.6-12.95,3.78-15.25,5.73-30.99,10.13-46.03,2.88-9.85,1.12-16.35-6.97-21.98-18.8-13.09-39.7-18.53-64.09-18.02ZM1440.93,2397.03c-19.7,2.32-30.96,12.23-36.65,34.15-17,65.46-16.14,130.77,3.4,195.58,3.68,12.2,9.16,23.87,13.81,35.78,1.2.26,2.41.52,3.61.77,4.14-5.16,8.29-10.32,13.55-16.13,9.16-14.73,18.95-29.12,27.37-44.27,17.96-32.37,36.36-64.09,63.83-89.93,7.94-7.47,12.86-19.39,16.21-30.19,3.69-11.9,4.3-24.82,5.55-37.37.36-3.65-.49-8.64-2.81-11.15-28.83-31.14-65.33-40.79-107.86-37.25ZM1127.38,2320.1c-7.77,2.91-17.56,3.81-22.87,9.16-9.65,9.73-17.73,21.49-24.54,33.49-21.17,37.32-33.39,77.67-37.46,120.4-6.07,63.58,7.04,122.37,44.08,175.08,6.71,9.56,15.74,9.38,21.69-.62,2.56-4.3,4.44-9.11,6-13.89,6.82-21.01,13.41-42.1,21.14-63.94,6.44-8.1,13.12-16.01,19.21-24.36,3.42-4.68,7.74-9.84,8.39-15.18,2.05-16.89,3.38-33.95,3.51-50.96.38-46.6,17.7-87.48,41.82-125.96,5.51-8.79,4.34-14.37-2.82-20.18-22.38-18.19-47.9-25.93-78.15-23.04ZM1283.83,2354.27c-20.84-1.95-36.86,6.25-45.99,24.81-7.88,16.03-15.15,32.66-20.08,49.78-14.11,48.98-20.6,98.79-12.63,149.83,8.15,52.15,24.82,100.41,61.04,140.2,7.81,8.58,14.8,7.5,17.36-3.92,4.61-20.56,7.6-41.49,11.95-63.93,3.52-17.31,6.22-34.84,10.75-51.89,7.92-29.79,20.66-56.86,45.84-76.73,4.19-3.31,6.86-10.81,7.1-16.5,1.15-28.05,5.81-55.21,16.16-81.4,4.81-12.18,2.46-23.05-6.16-33.43-21.94-26.41-50.74-36.11-85.34-36.82ZM2041.47,1287.6c-61.81-18.12-124.94-25.45-189.25-23.02-165.25,6.24-307.69,66.58-427.28,180.9-3.97,3.79-7.02,8.55-11.21,13.74,16.31,4.62,33.96.81,46.57,16.32-2.18.99-3.56,1.85-5.06,2.26-5.17,1.41-10.37,2.7-15.59,3.96-63.94,15.39-121.05,43.18-163.45,95.03-75.98,92.93-94.52,198.07-63.19,312.87,3.4,12.45,1.67,22.29-8.05,30.75-8.82,7.68-17.8,15.22-26.24,23.3-22.97,21.97-22.55,29.96,1.37,50.87,9.97,8.71,19.98,17.47,29.04,27.08,8.3,8.81,11.87,8.64,18.21-1.9,3.67-6.11,8.79-11.35,13.25-16.98,1.07.45,2.14.9,3.21,1.35,1.25,4.43,3.81,8.94,3.52,13.26-1.75,26.03-10.75,49.39-32.35,64.91-16.59,11.91-35.29,20.85-52.98,31.23-29.12,17.1-59.03,33.05-87.05,51.8-30.53,20.43-46.02,52.52-59.77,86.27,4.6,1.2,8.17,2.65,11.84,3.01,20.53,2.03,36.92,12.12,51.53,25.88,4.14,3.9,7.88,8.62,12.73,11.27,5.2,2.84,11.45,3.87,17.33,5.3,1.69.41,3.7-.56,5.57-.9,45.62-8.3,88.47-6.48,121.32,32.81,1.44,1.72,5.04,2.55,7.51,2.34,17.52-1.51,34.99-4.58,52.52-4.94,40.91-.84,74.66,13.85,97.84,49.06,1.18,1.8,2.71,3.37,4.19,5.19,2.34-.97,4.41-1.68,6.36-2.65,23.93-11.85,49.11-18.45,75.91-17.25,33.88,1.52,61.96,16.26,85.74,39.64,7.03,6.91,13.12,7.57,21.84,2.99,7.94-4.17,17.15-8.39,25.77-8.33,21.71.14,43.56,1.63,65.07,4.58,18.54,2.54,36.42,8.18,49.04,24.08,1.62,2.05,6.73,3.25,9.3,2.31,16.06-5.87,32.28-4.96,50.01-1.66,25.5,7.92,47.41,20.73,61.32,44.65,3.3,5.67,6.99,8.09,13.55,2.94,37.83-29.72,81.45-48.23,126.38-63.88,52.42-18.26,107.49-21.63,162.04-27.28,36.45-3.78,70.08-13.72,101.67-32.93,60.18-36.6,107.72-85.5,145.59-144.33,29.44-45.73,49.75-95.96,69.74-146.17,25.11-63.08,33.96-129.38,35.66-196.89,1.52-60.3-4.87-119.6-25.21-176.53-54.65-152.99-153.73-267.85-297.71-343.36-43.51-22.82-88.99-40.77-138.16-52.92Z"/>
      <path class="cls-11" d="M1785.25,2423.54c-16.38-2.53-32.59-3.44-48.65,2.43-2.57.94-7.68-.26-9.3-2.31-12.61-15.91-30.5-21.54-49.04-24.08-21.52-2.95-43.36-4.44-65.07-4.58-8.62-.06-17.82,4.16-25.77,8.33-8.72,4.58-14.82,3.92-21.84-2.99-23.77-23.38-51.86-38.13-85.74-39.64-26.8-1.2-51.98,5.4-75.91,17.25-1.95.97-4.02,1.68-6.36,2.65-1.48-1.82-3-3.39-4.19-5.19-23.18-35.21-56.93-49.9-97.84-49.06-17.53.36-35,3.43-52.52,4.94-2.47.21-6.08-.62-7.51-2.34-32.85-39.29-75.7-41.1-121.32-32.81-1.87.34-3.88,1.31-5.57.9-5.89-1.42-12.13-2.45-17.33-5.3-4.85-2.65-8.59-7.37-12.73-11.27-14.61-13.76-30.99-23.85-51.53-25.88-3.68-.36-7.24-1.81-11.84-3.01,13.75-33.75,29.24-65.83,59.77-86.27,28.02-18.76,57.93-34.7,87.05-51.8,17.69-10.39,36.4-19.32,52.98-31.23,21.61-15.52,30.6-38.87,32.35-64.91.29-4.32-2.27-8.84-3.52-13.26-1.07-.45-2.14-.9-3.21-1.35-4.47,5.63-9.58,10.87-13.25,16.98-6.35,10.55-9.91,10.71-18.21,1.9-9.06-9.62-19.07-18.38-29.04-27.08-23.93-20.91-24.34-28.9-1.37-50.87,8.45-8.08,17.42-15.62,26.24-23.3,9.72-8.46,11.45-18.3,8.05-30.75-31.33-114.8-12.79-219.94,63.19-312.87,42.4-51.85,99.51-79.65,163.45-95.03,5.21-1.25,10.41-2.55,15.59-3.96,1.5-.41,2.88-1.27,5.06-2.26-12.61-15.51-30.25-11.7-46.57-16.32,4.19-5.19,7.24-9.94,11.21-13.74,119.59-114.32,262.03-174.66,427.28-180.9,64.3-2.43,127.43,4.9,189.71,24.23,1.33,4.5,1.87,7.93,3.12,11.07,13.56,34.29,28.47,68.1,40.59,102.88,23.59,67.67,37.09,137.36,35.87,209.39-.09,5.3-2.62,10.56-4.58,15.56-34.35-30.74-73.5-51.96-116-67.41-2.64-.96-5.8-2.37-8.18-1.69-3.54,1.01-7.98,3-9.43,5.89-1.09,2.17.98,7.43,3.28,9.5,4.63,4.17,10.23,7.34,15.67,10.5,36.95,21.49,71.69,45.97,102.66,75.58,2.88,2.76,5.17,6.13,7.63,9.99,2.01,9.85,2.84,19.49,6.47,27.92,19.03,44.26,34.42,89.53,38.36,137.86,3.09,37.91,2.02,75.64-13.29,111.38-4.61,10.75-10.91,20.78-16.43,31.13,6.63-44.4,4.98-86.57-14.72-128.08-2.18,1.91-3.79,2.64-3.87,3.5-.47,5.26-.45,10.57-.86,15.84-3.23,41.08-16.12,79.66-33.34,116.51-23.13,49.49-49.88,97.17-82.21,141.33-23.51,32.12-49.36,62.29-84.24,83.08-4.44,2.64-8.68,5.62-13.89,8.5-9.7-.59-18.63-2.47-27.31-1.64-36.12,3.43-72.25,7.05-108.19,11.97-13.26,1.82-26.26,6.77-38.82,11.71-3.9,1.54-8.01,7.66-8.19,11.85-.13,2.98,6.17,6.23,9.54,10.12.77,16.07,7.51,28.54,18.64,38.69,12.3,11.21,25.23,21.75,37.18,33.31,15.23,14.73,24.1,32.68,19.67,54.28-2.4,11.72-7.78,22.82-11.82,34.2ZM1655.6,1969.88c4.14,36.26,13.85,70.83,33.55,101.81,28.99,45.57,82.93,81.04,151.53,62.94,43.77-11.55,81.09-32.89,111.92-65.91,47.2-50.55,76.91-110.79,97.12-176.17,18.58-60.11,23.47-121.22,7.56-182.49-17.9-68.95-58.72-113.31-139.19-119.45-45.99-3.51-85.43,13.76-121.36,40.46-47.62,35.39-80.48,82.14-104.67,135.92-28.88,64.22-40.83,131.21-36.46,202.89ZM1417.63,1976.22c51.9-23.95,87.39-65.83,115.69-112.96,36.71-61.15,55.74-128.54,55.75-200.47,0-34.89-5.77-68.69-23.34-99.5-11.04-19.37-24.91-37.21-46.84-43.53-30.09-8.68-61.19-13.42-92.47-5.05-39.4,10.55-69.51,35.15-95.98,64.91-47.65,53.59-76.01,116.74-90.35,186.39-9.81,47.65-7.94,95,8.72,141.16,13.93,38.59,39.51,65.91,79.02,78.5,30.56,9.74,59.95,3.38,89.8-9.45ZM1480.62,2134.43c-1.65,8.37-3.59,16.69-4.9,25.11-2.84,18.18,1.68,28.87,16.15,35.58,22.27,10.33,45.79,16.27,70.44,16.61,15.93.22,24.74-7.16,27.08-23.23,1.68-11.53,2.36-23.26,2.6-34.92.78-37.88,1.83-75.78,1.4-113.66-.24-20.96-10.64-31.47-31.02-35.95-15.99-3.52-27.38,2.62-37.54,20.35-19.56,34.14-35.93,69.57-44.21,110.12ZM1344.48,2150.62c19.25,6.07,38.22,13.26,57.8,17.95,33.88,8.12,36.13,5.98,49.67-26.77,13.03-31.52,27.24-62.55,40.29-94.07,4.42-10.67,7.8-21.99,9.91-33.34,1.64-8.85-3.44-14.3-12.83-16.65-23.89-6-43.64-.23-61.78,16.58-31.02,28.73-57.58,61.22-83.08,94.7-2.83,3.72-4.85,8.14-6.79,12.44-4.82,10.69-3.45,20.31,6.82,29.16ZM1796.04,1574.55c28.25-11.77,57.84-17.79,88.2-20.35,5.98-.5,10.58-2.14,10.99-9.11.4-6.75-3.67-9.74-9.52-10.87-4.02-.78-8.13-1.43-12.21-1.49-57.62-.91-107.83,15.18-143.59,63.63-4.14,5.62-7.18,12.05-10.72,18.11.65.49,1.3.99,1.96,1.48,24.54-13.62,49.08-27.24,74.9-41.41Z"/>
      <path class="cls-4" d="M1785.93,2423.93c3.36-11.77,8.74-22.87,11.14-34.59,4.43-21.61-4.44-39.55-19.67-54.28-11.95-11.56-24.88-22.1-37.18-33.31-11.13-10.15-17.88-22.62-17.97-38.94,13.28-2.41,25.92-3.24,38.36-5.33,55.18-9.29,110.33-12.41,165.88-2.84,50.19,8.65,100.83,13.91,151.79,13.07,54.65-.9,107.37-11.31,156-37.74,21.51-11.69,41.71-25.19,56.53-45.29,20.73-28.12,24.7-57.46,6.46-88.49-17.77-30.25-40.93-55.16-71.18-73.26-10.16-6.08-20.08-12.56-30.02-18.79,4.89-8.62,9.46-15.84,13.19-23.47,3.88-7.93,7.66-16.03,10.26-24.43,29.04-93.95,12.84-180.75-43.66-259.94-17.33-24.28-38.78-45.62-58.34-68.31,1.39-5.28,3.92-10.54,4.01-15.85,1.22-72.03-12.28-141.72-35.87-209.39-12.12-34.78-27.03-68.59-40.59-102.88-1.24-3.15-1.79-6.57-2.52-10.59,48.12,10.45,93.59,28.41,137.1,51.23,143.98,75.51,243.06,190.37,297.71,343.36,20.34,56.93,26.72,116.23,25.21,176.53-1.7,67.51-10.55,133.81-35.66,196.89-19.99,50.21-40.3,100.44-69.74,146.17-37.87,58.83-85.41,107.73-145.59,144.33-31.59,19.21-65.22,29.15-101.67,32.93-54.54,5.66-109.62,9.02-162.04,27.28-44.93,15.65-88.55,34.16-126.38,63.88-6.56,5.15-10.26,2.73-13.55-2.94-13.91-23.91-35.82-36.73-62-45.03ZM2171.99,1400.07c-19.36,7.92-30.96,20.9-32.79,43.06-1.79,21.72,5.09,41.26,12.07,60.65,14.4,40,36.48,75.26,68.77,103.61,16.9,14.84,34.05,29.65,56.58,34.59,37.1,8.14,57.35-9.83,73.82-39.76,2.52-4.58,3.63-11.12,2.65-16.23-4.08-21.29-8.26-42.65-14.34-63.41-3.12-10.62-9.33-20.77-15.89-29.87-27.77-38.5-62.36-69.22-106.03-88.73-13.81-6.17-28.14-11.52-44.85-3.91ZM2458.75,1738.39c-.1-1.88-.17-3.76-.31-5.63-2.09-28.02-8.52-54.69-25.22-77.91-11.62-16.15-44.88-25.55-60.71-7.97-9.43,10.47-14.08,23.65-13.88,36.16.39,24.01,3.55,48.14,7.6,71.88,4.27,25.05,18.31,43.11,42.5,53.81,22.47,9.95,42.65-8.35,45.06-24.94,2.12-14.52,3.57-29.14,4.97-45.4ZM2331.15,1774.83c.66-3.31,2.04-6.67,1.86-9.93-1.42-24.76-9.43-47.35-23.28-67.84-6.3-9.31-13.42-18.97-26.19-16.99-13.2,2.04-23.6,10.04-27.5,23.17-8.62,29.01,5.33,73.42,31.53,87.61,16.13,8.74,36.11,2.73,43.58-16.03Z"/>
      <path class="cls-12" d="M1294.81,2652.7c-3.67,20.77-6.66,41.7-11.27,62.26-2.56,11.42-9.54,12.51-17.36,3.92-36.23-39.79-52.9-88.06-61.04-140.2-7.97-51.04-1.48-100.85,12.63-149.83,4.93-17.12,12.2-33.75,20.08-49.78,9.13-18.56,25.15-26.76,46.74-23.94,9.42,12.72,18.44,24.33,26.69,36.47,14.41,21.2,21.28,44.03,18.2,70.4-3.2,27.38-13.1,52.29-22.7,77.57-9.92,26.11-20.23,52.38-18.6,80.99.62,10.8,4.34,21.43,6.64,32.14Z"/>
      <path class="cls-12" d="M1134.35,2580.56c-6.67,21.06-13.26,42.15-20.08,63.16-1.55,4.78-3.44,9.59-6,13.89-5.95,10-14.98,10.18-21.69.62-37.04-52.71-50.14-111.5-44.08-175.08,4.08-42.73,16.3-83.08,37.46-120.4,6.81-12,14.89-23.76,24.54-33.49,5.31-5.35,15.1-6.25,23.78-8.42,17.58,14.93,28.92,32.68,31.45,54.41,1.8,15.45,1.71,31.42.07,46.9-2.62,24.71-6.73,49.29-11.17,73.76-3.13,17.24-8.46,34.08-11.62,51.31-2.01,10.91-1.85,22.22-2.67,33.35Z"/>
      <path class="cls-12" d="M1437.53,2647.84c-4.14,5.16-8.29,10.32-12.43,15.47-1.2-.26-2.41-.52-3.61-.77-4.65-11.91-10.13-23.57-13.81-35.78-19.54-64.81-20.4-130.12-3.4-195.58,5.69-21.92,16.95-31.83,37.76-33.39,2.56,1.3,3.96,2.05,5.46,2.34,30.21,5.87,46.35,22.44,47.98,52.73.75,13.99-2.18,28.28-4.33,42.29-3.81,24.83-12.4,48.22-25.87,69.31-11.88,18.62-19.35,38.77-24.67,59.86-1.92,7.61-2.1,15.66-3.08,23.51Z"/>
      <path class="cls-12" d="M1605.4,2621.88c-3.87-3.73-8.96-6.8-11.42-11.31-13.66-24.94-17.71-52.3-19.26-80.29-1.53-27.68,1.07-54.91,8.1-81.64,1.14-4.32,4.73-8.92,8.5-11.45,15.89-10.69,33.77-10.99,52.81-7.46,14.08,11.17,20.14,25.25,18.18,41.36-2.15,17.72-6.12,35.29-10.42,52.65-5.31,21.38-12.32,42.18-24.56,60.94-7.86,12.04-14.66,24.78-21.93,37.2Z"/>
      <path class="cls-19" d="M1295.15,2651.87c-2.65-9.88-6.36-20.5-6.98-31.31-1.64-28.61,8.67-54.88,18.6-80.99,9.6-25.27,19.5-50.19,22.7-77.57,3.08-26.37-3.78-49.19-18.2-70.4-8.25-12.14-17.27-23.75-25.93-36.25,33.09-.38,61.89,9.32,83.83,35.73,8.63,10.39,10.97,21.26,6.16,33.43-10.34,26.19-15.01,53.35-16.16,81.4-.23,5.69-2.9,13.2-7.1,16.5-25.18,19.87-37.93,46.94-45.84,76.73-4.53,17.04-7.23,34.58-11.09,52.72Z"/>
      <path class="cls-19" d="M1438.09,2647.51c.42-7.52.6-15.57,2.52-23.18,5.32-21.1,12.78-41.24,24.67-59.86,13.46-21.1,22.06-44.48,25.87-69.31,2.15-14.02,5.09-28.31,4.33-42.29-1.63-30.3-17.77-46.86-47.98-52.73-1.5-.29-2.9-1.04-4.73-2.26,40.69-4.39,77.2,5.26,106.02,36.4,2.32,2.5,3.18,7.5,2.81,11.15-1.25,12.55-1.86,25.47-5.55,37.37-3.35,10.8-8.27,22.72-16.21,30.19-27.47,25.84-45.86,57.56-63.83,89.93-8.41,15.15-18.2,29.54-27.93,44.6Z"/>
      <path class="cls-7" d="M1034.4,2376.5c-6.32,18.85-11.64,38.12-19.35,56.38-4.27,10.12-12.01,18.99-19.19,27.57-4.14,4.95-8.35,2.93-10.01-3.45-8.9-34.37-11.64-69.12-3.91-103.96,4.77-21.53,11.32-42.68,17.35-63.92,2.41-8.49,8.5-11.62,16.87-8.9,6.26,2.03,12.26,4.85,18.8,8.54,1.47,8.04,3.72,14.92,3.34,21.66-1.04,18.49-3.29,36.92-4.81,55.39-.29,3.52.58,7.12.91,10.69Z"/>
      <path class="cls-19" d="M1742.89,2460.84c5.07-1.88,10.07-5.15,15.21-5.39,23.98-1.12,42.48,9.64,57.24,28,12.05,15,11.13,14.14.36,29.71-15.79,22.84-29.87,46.86-44.67,70.38-3.87,6.15-7.58,12.41-11.61,18.46-5.5,8.25-10.15,8.3-13.56-1.22-6.03-16.86-10.56-34.26-14.93-52.44,1.85-1.66,3.15-2.11,3.96-3.01,14.03-15.66,24.93-33.1,30.29-53.69,4.11-15.8-8.87-31.23-22.29-30.8Z"/>
      <path class="cls-5" d="M1606.08,2622.05c6.59-12.6,13.39-25.34,21.25-37.38,12.25-18.76,19.26-39.56,24.56-60.94,4.31-17.36,8.27-34.93,10.42-52.65,1.96-16.11-4.1-30.19-17.35-41.14,22.72-1.61,43.61,3.84,62.42,16.93,8.09,5.63,9.85,12.13,6.97,21.98-4.4,15.04-6.35,30.78-10.13,46.03-1.16,4.68-4.27,9.32-7.6,12.95-10.83,11.78-22.59,22.72-33.23,34.67-14.87,16.71-28.86,34.21-43.68,50.97-3.34,3.78-8.58,5.88-13.63,8.57Z"/>
      <path class="cls-19" d="M1134.88,2580.17c.28-10.74.13-22.05,2.13-32.96,3.17-17.23,8.5-34.07,11.62-51.31,4.44-24.46,8.55-49.05,11.17-73.76,1.64-15.48,1.73-31.45-.07-46.9-2.53-21.73-13.87-39.47-30.69-54.37,28.58-3.67,54.1,4.08,76.48,22.26,7.16,5.82,8.32,11.4,2.82,20.18-24.11,38.48-41.44,79.36-41.82,125.96-.14,17.01-1.46,34.08-3.51,50.96-.65,5.34-4.98,10.5-8.39,15.18-6.09,8.35-12.78,16.26-19.74,24.75Z"/>
      <path class="cls-9" d="M1742.33,2461.41c13.98-1.01,26.97,14.42,22.85,30.22-5.36,20.59-16.25,38.03-30.29,53.69-.8.9-2.11,1.35-3.88,2.26-4.72-29.41,3.85-57.39,11.31-86.17Z"/>
      <path class="cls-6" d="M1034.94,2376.09c-.87-3.16-1.74-6.77-1.45-10.29,1.52-18.47,3.77-36.9,4.81-55.39.38-6.74-1.87-13.62-2.82-21.18,11.75,6.53,23.54,13.58,35.01,21.14,5.29,3.49,3.16,7.27.03,11.86-12.01,17.59-23.41,35.6-35.58,53.86Z"/>
      <path class="cls-17" d="M1655.55,1969.08c-4.31-70.88,7.64-137.88,36.52-202.1,24.18-53.78,57.05-100.53,104.67-135.92,35.94-26.7,75.37-43.97,121.36-40.46,80.47,6.14,121.28,50.5,139.19,119.45,15.91,61.27,11.02,122.38-7.56,182.49-20.22,65.39-49.93,125.62-97.12,176.17-30.83,33.02-68.14,54.37-111.92,65.91-68.6,18.1-122.54-17.37-151.53-62.94-19.7-30.98-29.41-65.54-33.61-102.6ZM1789.73,1742.11c22.52-39.7,49.34-76.17,82.18-108.27-2.81-.33-4.66.09-6.33.88-28.57,13.49-54.66,30.96-75.99,54.16-65.01,70.68-105,152.56-106.95,250.27-.76,38.12,6.19,74.87,25.07,108.61,7.24,12.94,16.2,24.33,30.84,32.26-33.73-120.95-7.27-231.16,51.19-337.9Z"/>
      <path class="cls-17" d="M1417,1976.52c-29.22,12.53-58.61,18.89-89.17,9.15-39.51-12.6-65.1-39.91-79.02-78.5-16.66-46.16-18.53-93.5-8.72-141.16,14.34-69.65,42.7-132.8,90.35-186.39,26.47-29.77,56.58-54.36,95.98-64.91,31.28-8.38,62.38-3.64,92.47,5.05,21.92,6.33,35.8,24.16,46.84,43.53,17.56,30.82,23.34,64.62,23.34,99.5,0,71.92-19.03,139.32-55.75,200.47-28.3,47.14-63.8,89.01-116.32,113.25ZM1430.74,1571.92c12.69-11.03,25.38-22.05,40.02-34.78-6.45.67-10.5.69-14.37,1.56-28.12,6.37-51.41,22.17-73.79,39.22-31.29,23.82-52.64,55.76-71.49,89.72-35.34,63.69-51.8,131.15-40.64,203.92,1.73,11.31,7.31,22.02,11.11,33.01,1.21-.26,2.43-.51,3.64-.77.5-3.92,1.11-7.82,1.48-11.75,1.73-18.54,3.11-37.12,5.18-55.62,1.44-12.86,2.52-25.97,5.97-38.36,12.65-45.48,30.49-88.64,55.91-128.84,22.06-34.9,45.92-68.02,76.98-97.33Z"/>
      <path class="cls-4" d="M1895.43,2219c4.33-2.82,8.57-5.8,13.01-8.45,34.88-20.79,60.72-50.96,84.24-83.08,32.32-44.16,59.08-91.84,82.21-141.33,17.22-36.85,30.11-75.42,33.34-116.51.41-5.27.39-10.58.86-15.84.08-.86,1.68-1.59,3.87-3.5,19.7,41.5,21.35,83.68,14.72,128.08,5.52-10.36,11.82-20.38,16.43-31.13,15.31-35.74,16.38-73.47,13.29-111.38-3.94-48.33-19.33-93.6-38.36-137.86-3.63-8.43-4.46-18.07-5.8-27.9,12.39,12.58,24.86,25.25,35.45,39.35,37.73,50.26,55.79,107.26,55.24,170.02-.37,41.99-17.73,78.42-38.83,113.46-11.75,19.52-9.33,27.93,10.75,38.48,1.96,1.03,3.98,1.92,5.95,2.94,31.36,16.32,61.14,34.93,82.06,64.29,23.1,32.43,26.76,39.41-6.62,71.35-22.86,21.88-50.57,36.67-80.5,47-39.88,13.76-81.08,20.73-123.03,17.68-52.85-3.84-105.51-10.33-158.25-15.68Z"/>
      <path class="cls-8" d="M1894.55,2219.05c53.62,5.29,106.28,11.78,159.13,15.62,41.95,3.05,83.15-3.92,123.03-17.68,29.93-10.33,57.64-25.12,80.5-47,33.38-31.94,29.72-38.92,6.62-71.35-20.91-29.37-50.7-47.97-82.06-64.29-1.96-1.02-3.99-1.92-5.95-2.94-20.08-10.55-22.5-18.96-10.75-38.48,21.1-35.04,38.45-71.47,38.83-113.46.56-62.76-17.51-119.76-55.24-170.02-10.58-14.1-23.06-26.77-35.33-40.12-3.23-3.11-5.52-6.48-8.41-9.24-30.97-29.61-65.71-54.09-102.66-75.58-5.44-3.16-11.04-6.33-15.67-10.5-2.3-2.07-4.37-7.33-3.28-9.5,1.45-2.89,5.89-4.88,9.43-5.89,2.38-.68,5.54.73,8.18,1.69,42.49,15.44,81.65,36.67,116,67.41,20.13,22.97,41.59,44.3,58.91,68.59,56.5,79.2,72.71,166,43.66,259.94-2.6,8.4-6.38,16.51-10.26,24.43-3.73,7.63-8.3,14.84-13.19,23.47,9.94,6.23,19.86,12.71,30.02,18.79,30.25,18.1,53.41,43.01,71.18,73.26,18.24,31.04,14.27,60.37-6.46,88.49-14.82,20.1-35.02,33.6-56.53,45.29-48.63,26.43-101.35,36.84-156,37.74-50.96.84-101.6-4.42-151.79-13.07-55.55-9.57-110.71-6.45-165.88,2.84-12.43,2.09-25.07,2.92-38.29,4.57-4.1-2.88-10.4-6.14-10.28-9.12.18-4.19,4.29-10.31,8.19-11.85,12.56-4.94,25.56-9.89,38.82-11.71,35.94-4.92,72.07-8.54,108.19-11.97,8.68-.83,17.61,1.06,27.31,1.64Z"/>
      <path class="cls-1" d="M1480.87,2133.59c8.03-39.72,24.41-75.15,43.96-109.29,10.16-17.73,21.54-23.87,37.54-20.35,20.38,4.48,30.78,14.99,31.02,35.95.43,37.88-.62,75.78-1.4,113.66-.24,11.66-.92,23.4-2.6,34.92-2.34,16.08-11.15,23.45-27.08,23.23-24.65-.34-48.17-6.28-70.44-16.61-14.46-6.71-18.99-17.39-16.15-35.58,1.31-8.42,3.25-16.74,5.15-25.94ZM1510.34,2151.02c-1.77,12.32.42,16.67,8.33,14.64,3.67-.94,7.72-5.41,9.16-9.2,11.78-30.9,23.46-61.85,34.08-93.16,3.37-9.93,2.84-20.91-3.84-33.83-7.46,14.5-15.13,26.46-20,39.47-9.93,26.5-18.36,53.57-27.74,82.08Z"/>
      <path class="cls-1" d="M1343.89,2150.19c-9.67-8.42-11.04-18.04-6.23-28.73,1.94-4.3,3.96-8.72,6.79-12.44,25.5-33.48,52.05-65.97,83.08-94.7,18.14-16.8,37.89-22.57,61.78-16.58,9.4,2.36,14.48,7.81,12.83,16.65-2.11,11.35-5.49,22.66-9.91,33.34-13.05,31.52-27.25,62.55-40.29,94.07-13.54,32.74-15.79,34.89-49.67,26.77-19.58-4.69-38.55-11.89-58.39-18.38ZM1376,2124.83c.51,1.88.55,5.05,1.6,5.43,5,1.82,10.24,3.67,15.47,3.91,2.69.12,6.32-2.51,8.16-4.94,5.68-7.53,10.46-15.73,16.02-23.35,17.64-24.19,35.53-48.19,53.12-72.41,1.58-2.17,1.65-5.44,2.42-8.2-.89-.88-1.77-1.75-2.66-2.63-8.92,5.44-18.55,10.01-26.55,16.59-6.66,5.48-11.54,13.19-16.96,20.1-16.71,21.33-33.31,42.75-50.62,65.51Z"/>
      <path class="cls-10" d="M1795.41,1574.82c-25.18,13.89-49.72,27.52-74.26,41.14-.65-.49-1.3-.99-1.96-1.48,3.55-6.06,6.58-12.49,10.72-18.11,35.76-48.45,85.97-64.53,143.59-63.63,4.08.06,8.19.71,12.21,1.49,5.85,1.13,9.92,4.11,9.52,10.87-.42,6.96-5.01,8.6-10.99,9.11-30.36,2.56-59.95,8.58-88.84,20.62Z"/>
      <path class="cls-18" d="M2172.66,1399.83c16.03-7.36,30.37-2.01,44.18,4.16,43.66,19.51,78.26,50.23,106.03,88.73,6.56,9.1,12.77,19.25,15.89,29.87,6.09,20.76,10.27,42.13,14.34,63.41.98,5.11-.13,11.66-2.65,16.23-16.48,29.92-36.72,47.89-73.82,39.76-22.53-4.94-39.68-19.76-56.58-34.59-32.29-28.34-54.37-63.61-68.77-103.61-6.98-19.39-13.86-38.93-12.07-60.65,1.83-22.16,13.43-35.14,33.46-43.31Z"/>
      <path class="cls-18" d="M2458.92,1739.23c-1.57,15.41-3.02,30.04-5.14,44.56-2.42,16.59-22.59,34.88-45.06,24.94-24.19-10.71-38.23-28.76-42.5-53.81-4.04-23.73-7.21-47.87-7.6-71.88-.2-12.51,4.46-25.7,13.88-36.16,15.83-17.58,49.09-8.18,60.71,7.97,16.71,23.22,23.13,49.89,25.22,77.91.14,1.87.21,3.75.48,6.47Z"/>
      <path class="cls-18" d="M2330.89,1775.55c-7.22,18.05-27.2,24.05-43.33,15.31-26.2-14.19-40.15-58.61-31.53-87.61,3.9-13.14,14.3-21.13,27.5-23.17,12.76-1.97,19.89,7.68,26.19,16.99,13.85,20.48,21.86,43.08,23.28,67.84.19,3.26-1.2,6.62-2.11,10.65Z"/>
      <path class="cls-20" d="M1789.43,1742.77c-58.15,106.07-84.61,216.29-50.88,337.24-14.64-7.93-23.6-19.32-30.84-32.26-18.88-33.74-25.83-70.49-25.07-108.61,1.95-97.71,41.95-179.59,106.95-250.27,21.33-23.2,47.42-40.67,75.99-54.16,1.67-.79,3.52-1.21,6.33-.88-32.84,32.1-59.67,68.57-82.49,108.93Z"/>
      <path class="cls-20" d="M1430.23,1572.36c-30.55,28.88-54.41,62-76.47,96.89-25.41,40.2-43.25,83.37-55.91,128.84-3.45,12.38-4.53,25.5-5.97,38.36-2.07,18.5-3.45,37.08-5.18,55.62-.37,3.93-.98,7.83-1.48,11.75-1.21.26-2.43.51-3.64.77-3.8-10.99-9.38-21.7-11.11-33.01-11.16-72.77,5.29-140.23,40.64-203.92,18.85-33.96,40.2-65.9,71.49-89.72,22.39-17.05,45.67-32.84,73.79-39.22,3.86-.88,7.92-.89,14.37-1.56-14.64,12.72-27.33,23.75-40.53,35.22Z"/>
      <path class="cls-2" d="M1510.5,2150.18c9.21-27.67,17.64-54.74,27.58-81.24,4.88-13.01,12.54-24.97,20-39.47,6.68,12.92,7.21,23.91,3.84,33.83-10.62,31.31-22.3,62.26-34.08,93.16-1.45,3.8-5.5,8.26-9.16,9.2-7.92,2.03-10.1-2.33-8.17-15.48Z"/>
      <path class="cls-3" d="M1376.34,2124.15c16.97-22.07,33.57-43.5,50.28-64.83,5.42-6.92,10.3-14.63,16.96-20.1,7.99-6.57,17.62-11.15,26.55-16.59.89.88,1.77,1.75,2.66,2.63-.77,2.76-.84,6.03-2.42,8.2-17.59,24.22-35.48,48.22-53.12,72.41-5.56,7.63-10.34,15.83-16.02,23.35-1.83,2.43-5.47,5.06-8.16,4.94-5.23-.23-10.47-2.08-15.47-3.91-1.05-.38-1.1-3.55-1.27-6.12Z"/>
    </g>
  </g>
  <g id="Layer_7" data-name="Layer 7">
    <text class="cls-21" transform="translate(586.08 1989.1) rotate(86.76)"><tspan x="0" y="0">H</tspan></text>
    <text class="cls-21" transform="translate(594.27 2121.73) rotate(80.35)"><tspan x="0" y="0">U</tspan></text>
    <text class="cls-21" transform="translate(617.44 2255.31) rotate(73.53)"><tspan x="0" y="0">N</tspan></text>
    <text class="cls-21" transform="translate(660.55 2395.8) rotate(67.14)"><tspan x="0" y="0">T</tspan></text>
    <text class="cls-21" transform="translate(706.39 2502.43) rotate(61.93)"><tspan x="0" y="0">E</tspan></text>
    <text class="cls-21" transform="translate(753.99 2591.69) rotate(56.54)"><tspan x="0" y="0">R</tspan></text>
    <text class="cls-21" transform="translate(821.9 2691.67) rotate(52.34)"><tspan x="0" y="0"> </tspan></text>
    <text class="cls-21" transform="translate(854.19 2735.03) rotate(48.12)"><tspan x="0" y="0">B</tspan></text>
    <text class="cls-21" transform="translate(937.91 2827) rotate(42.48)"><tspan x="0" y="0">E</tspan></text>
    <text class="cls-21" transform="translate(1018.38 2900.14) rotate(37.1)"><tspan x="0" y="0">C</tspan></text>
    <text class="cls-21" transform="translate(1109.86 2969.18) rotate(31.01)"><tspan x="0" y="0">O</tspan></text>
    <text class="cls-21" transform="translate(1228.5 3040.88) rotate(23.19)"><tspan x="0" y="0">M</tspan></text>
    <text class="cls-21" transform="translate(1393.6 3108.36) rotate(16.02)"><tspan x="0" y="0">E</tspan></text>
    <text class="cls-21" transform="translate(1495.56 3136.41) rotate(12.1)"><tspan x="0" y="0"> </tspan></text>
    <text class="cls-21" transform="translate(1548.72 3148.93) rotate(7.61)"><tspan x="0" y="0">H</tspan></text>
    <text class="cls-21" transform="translate(1680.68 3165.85) rotate(1.12)"><tspan x="0" y="0">U</tspan></text>
    <text class="cls-21" transform="translate(1816.51 3168.04) rotate(-5.83)"><tspan x="0" y="0">N</tspan></text>
    <text class="cls-21" transform="translate(1962.9 3151.5) rotate(-12.39)"><tspan x="0" y="0">T</tspan></text>
    <text class="cls-21" transform="translate(2076.35 3125.69) rotate(-17.75)"><tspan x="0" y="0">E</tspan></text>
    <text class="cls-21" transform="translate(2173.07 3094.77) rotate(-23.35)"><tspan x="0" y="0">D</tspan></text>
  </g>
  <g id="Layer_9_copy_4" data-name="Layer 9 copy 4">
    <text class="cls-13" transform="translate(1080.63 1485.58) rotate(-45.36) scale(1.21 1.75)"><tspan x="0" y="0">u</tspan></text>
    <text class="cls-13" transform="translate(1333.17 1229.4) rotate(-27.5) scale(1.21 1.75)"><tspan x="0" y="0">k</tspan></text>
    <text class="cls-13" transform="translate(1562.1 1092) rotate(-8.64) scale(1.21 1.75)"><tspan x="0" y="0">u</tspan></text>
    <text class="cls-13" transform="translate(1903.96 1033.49) rotate(12.73) scale(1.21 1.75)"><tspan x="0" y="0">p</tspan></text>
    <text class="cls-13" transform="translate(2172.1 1075.62) rotate(33.63) scale(1.21 1.75)"><tspan x="0" y="0">a</tspan></text>
    <text class="cls-16" transform="translate(2628.14 1138.26) rotate(46.68) scale(1.21 1.75)"><tspan x="0" y="0"> </tspan></text>
    <text class="cls-13" transform="translate(2464.72 1270.21) rotate(55.97) scale(1.21 1.75)"><tspan x="0" y="0">c</tspan></text>
    <text class="cls-14" transform="translate(2818.45 1436.17) rotate(66.58) scale(1.21 1.75)"><tspan x="0" y="0"> </tspan></text>
    <text class="cls-13" transform="translate(2632.54 1504.4) rotate(76.69) scale(1.21 1.75)"><tspan x="0" y="0">h</tspan></text>
    <text class="cls-15" transform="translate(2860.1 1834.72) rotate(88.65) scale(1.21 1.75)"><tspan x="0" y="0"> </tspan></text>
    <text class="cls-13" transform="translate(2718.25 1872.19) rotate(99.94) scale(1.21 1.75)"><tspan x="0" y="0">a</tspan></text>
  </g>
</svg>